<?xml version="1.0" encoding="UTF-8" standalone="no"?>
<svg xmlns:xlink="http://www.w3.org/1999/xlink" height="322.05px" width="95.6px" xmlns="http://www.w3.org/2000/svg">
  <g transform="matrix(1.0, 0.0, 0.0, 1.0, -3.7, -28.0)">
    <path d="M90.3 227.75 L90.85 227.75 90.85 227.85 90.55 228.75 90.45 228.9 89.8 228.9 89.75 227.85 89.75 227.75 90.05 227.75 90.05 227.85 90.0 228.65 90.25 227.85 90.3 227.75 M77.9 229.1 Q77.65 229.45 77.3 229.35 L77.3 229.1 77.9 229.1 M70.55 227.85 L70.15 228.55 70.1 227.85 70.1 227.75 70.55 227.75 70.55 227.85 M44.1 332.45 L45.15 332.5 45.5 332.25 46.2 331.25 46.25 331.2 46.6 331.2 46.7 331.35 45.95 332.25 45.4 332.8 44.1 332.8 41.7 334.4 Q40.6 334.55 40.0 333.7 39.6 333.5 39.25 333.9 38.9 336.65 38.7 339.55 L38.6 340.8 38.1 341.35 Q37.8 341.65 37.55 341.35 L37.4 340.55 37.4 340.45 37.2 340.15 36.85 339.35 Q37.0 338.45 36.75 337.6 L36.7 337.5 36.05 337.55 35.8 338.05 35.9 339.4 Q36.0 342.35 35.5 345.2 L35.25 346.3 34.4 347.25 Q33.4 345.5 33.4 343.0 33.45 338.9 32.95 334.9 L31.65 335.5 31.25 335.25 Q30.95 333.75 30.95 332.25 L31.0 331.25 30.95 331.2 30.95 331.15 30.85 331.2 30.55 331.2 30.55 331.15 30.6 331.1 31.0 331.1 31.05 331.2 31.2 332.25 31.5 334.85 31.5 334.95 31.95 335.05 32.3 334.55 33.2 334.6 Q33.9 339.85 34.1 345.35 L34.25 346.55 34.8 345.75 34.85 345.65 Q35.55 344.3 35.45 342.5 35.3 339.9 35.65 337.4 36.25 336.85 36.9 337.25 37.2 339.3 38.0 341.0 38.9 338.35 38.75 335.3 L38.7 334.15 Q38.9 333.65 39.4 333.35 L40.15 333.35 Q40.55 333.8 41.1 334.1 42.35 334.05 42.95 332.9 L44.1 332.45 M54.6 332.25 L54.6 331.95 54.4 331.2 54.4 331.1 54.5 331.1 54.55 331.2 54.8 332.25 54.65 333.05 54.65 333.15 55.4 335.3 56.2 334.7 Q56.35 333.9 56.9 333.3 57.2 333.0 57.55 333.0 57.85 333.0 58.15 333.3 58.2 334.65 59.2 335.15 L60.0 333.55 Q60.7 333.25 61.15 333.75 L61.15 334.4 Q61.15 336.75 61.8 338.9 L61.85 339.7 62.1 339.35 62.15 339.25 62.0 334.4 Q62.0 334.0 62.35 334.05 62.55 335.4 63.05 336.6 63.9 335.45 63.9 333.6 L64.9 333.45 Q65.35 333.5 65.7 333.9 66.3 338.2 66.35 342.55 L66.45 344.95 67.3 347.6 67.35 348.25 67.6 348.45 67.6 348.6 67.7 349.25 67.4 349.25 67.4 349.15 67.4 348.95 66.8 348.15 Q66.3 345.65 66.1 343.0 L66.25 342.3 65.85 337.6 65.85 336.95 Q65.4 335.6 65.5 334.05 L65.5 333.95 64.05 333.9 Q64.05 335.35 63.5 336.6 L63.4 336.7 62.9 336.85 Q62.2 335.85 62.3 334.55 L62.3 334.4 Q61.95 336.5 62.35 338.8 L62.4 339.2 62.1 339.65 62.1 339.8 61.65 339.85 Q61.05 337.3 60.95 334.7 L60.95 333.9 Q60.5 333.35 60.05 333.9 59.7 334.35 59.65 334.95 L59.6 335.05 59.25 335.5 59.2 335.55 58.25 335.05 58.05 333.85 58.0 333.6 57.15 333.55 Q56.6 334.05 56.45 334.8 L55.7 335.6 55.2 335.5 Q54.25 334.0 54.6 332.25 M24.15 332.25 Q23.8 332.55 23.6 333.0 L23.45 333.35 21.45 333.15 20.3 333.2 20.2 333.1 19.95 332.9 19.95 332.8 19.9 332.75 19.6 332.75 Q19.25 333.05 19.05 333.55 L18.8 334.1 Q17.8 334.35 16.95 334.95 L16.85 335.0 Q16.1 335.35 15.8 334.7 L15.65 334.4 14.95 334.35 Q14.45 335.45 14.4 336.65 14.35 337.3 13.85 337.75 13.5 337.95 13.15 337.75 L12.85 337.55 12.4 336.7 12.0 335.85 11.55 335.9 11.5 335.95 Q11.2 338.15 11.2 340.45 11.25 342.75 10.7 344.95 L10.45 345.3 Q10.3 345.4 10.25 345.65 L10.15 345.75 Q9.85 346.1 9.6 345.75 L9.1 339.9 8.75 334.95 8.5 334.55 8.15 333.95 8.1 333.95 7.7 333.9 7.45 334.25 7.35 334.45 Q7.35 334.85 6.8 334.7 6.1 333.7 5.95 332.35 L5.9 332.05 5.8 331.25 6.2 332.15 6.25 332.35 6.4 333.25 6.7 334.4 6.75 334.4 7.15 334.4 7.25 334.05 7.4 333.9 7.45 333.75 8.25 333.65 8.65 334.2 9.0 334.75 Q9.0 337.65 9.45 340.55 L9.85 345.45 Q11.15 343.4 11.1 340.3 L11.1 335.85 11.2 335.8 11.4 335.55 12.15 335.5 12.25 335.65 12.45 335.85 12.65 336.6 13.1 337.3 13.45 337.45 13.7 337.45 14.4 335.65 14.55 334.5 14.75 334.15 14.95 333.95 16.0 334.0 16.05 334.15 16.05 334.35 16.05 334.45 16.1 334.6 16.75 334.7 Q17.4 334.05 18.45 333.9 L19.0 333.15 19.35 332.6 Q19.55 332.4 19.75 332.45 L20.1 332.6 20.3 332.8 23.4 333.0 Q23.55 332.55 23.85 332.25 L24.65 331.35 24.9 331.2 25.05 331.1 25.8 331.1 25.6 331.2 Q24.75 331.5 24.15 332.25 M75.35 333.9 L75.55 333.5 76.15 333.5 76.55 333.9 76.55 334.8 76.5 335.0 76.9 335.3 Q77.85 334.95 78.5 334.05 L79.5 334.1 80.75 333.1 Q82.05 332.25 83.7 332.25 L85.4 332.45 Q86.2 332.75 86.85 333.35 L86.5 334.55 86.45 334.65 Q87.55 340.8 87.5 347.3 L87.5 347.4 87.4 349.25 87.05 349.25 86.45 337.35 86.35 334.35 86.25 333.95 Q86.65 333.7 86.5 333.4 L85.3 332.8 80.75 333.15 79.55 334.4 Q78.8 334.8 78.75 334.3 L78.25 334.5 77.7 335.4 77.7 335.45 Q76.85 335.9 76.2 335.25 76.15 334.75 76.35 334.4 L76.35 334.35 75.95 333.8 Q75.2 335.55 75.65 338.1 L75.7 338.4 75.25 338.85 Q74.9 338.8 74.7 338.5 L74.25 338.4 73.85 337.95 Q73.9 336.55 73.6 335.4 L73.55 335.2 73.8 333.65 73.8 333.55 Q73.0 333.15 72.0 333.8 L71.45 334.7 Q70.85 337.0 68.9 338.4 L68.6 339.55 68.5 339.65 68.25 341.65 68.2 341.4 68.25 340.75 Q68.3 339.45 68.65 338.25 70.45 336.75 71.1 334.5 L71.95 333.3 73.05 333.0 74.2 333.1 74.2 333.75 73.95 335.1 73.9 335.2 Q74.3 336.3 74.25 337.6 L74.25 337.85 75.25 338.4 75.35 333.9 M68.05 347.85 L68.05 348.45 68.05 349.25 67.7 349.25 67.8 348.45 68.0 348.25 68.0 348.15 68.05 347.85 M87.8 349.25 L88.25 347.45 Q89.05 343.7 88.85 339.55 88.7 337.05 89.5 334.75 L90.5 333.55 90.9 333.45 91.4 333.95 Q91.4 334.7 91.7 335.3 L91.75 335.4 Q93.25 334.5 94.25 332.55 L94.45 332.25 94.5 332.25 94.9 331.7 94.9 331.45 95.05 331.4 95.6 331.5 95.15 332.15 93.35 334.25 92.2 335.85 91.7 335.9 91.3 335.5 90.9 334.05 90.9 333.95 Q88.65 336.6 89.0 340.9 89.35 345.3 88.35 349.25 L87.8 349.25" fill="#000000" fill-rule="evenodd" stroke="none"/>
    <path d="M90.05 227.75 L90.3 227.75 90.25 227.85 90.0 228.65 90.05 227.85 90.05 227.75" fill="url(#gradient0)" fill-rule="evenodd" stroke="none"/>
    <path d="M4.2 327.7 L4.2 232.95 Q4.2 231.5 5.2 230.5 L6.2 229.75 6.85 229.55 7.55 229.5 94.95 229.5 95.6 229.55 96.25 229.75 97.3 230.5 Q98.25 231.5 98.25 232.95 L98.25 246.2 98.05 247.05 98.05 322.05 98.25 322.35 98.25 327.7 Q98.2 329.05 97.3 330.05 96.55 330.85 95.55 331.05 L94.95 331.1 47.15 331.1 46.75 331.1 31.6 331.1 31.1 331.1 26.15 331.1 25.45 331.1 7.55 331.1 6.4 330.9 Q5.7 330.6 5.2 330.05 L4.2 327.7 M94.8 325.55 L94.6 265.85 94.6 264.4 94.8 235.75 Q94.75 234.65 93.85 233.9 L91.7 233.1 10.8 233.1 8.6 233.9 Q7.7 234.65 7.75 235.75 L7.75 245.9 7.5 247.05 7.75 325.55 Q7.7 326.6 8.6 327.4 L10.8 328.2 91.7 328.2 93.85 327.4 Q94.75 326.6 94.8 325.55" fill="url(#gradient1)" fill-rule="evenodd" stroke="none"/>
    <path d="M98.25 246.2 L98.25 247.05 98.05 247.05 98.25 246.2 M7.75 245.9 L7.75 247.05 7.5 247.05 7.75 245.9" fill="url(#gradient2)" fill-rule="evenodd" stroke="none"/>
    <path d="M7.75 245.9 L7.75 235.75 Q7.7 234.65 8.6 233.9 L10.8 233.1 91.7 233.1 93.85 233.9 Q94.75 234.65 94.8 235.75 L94.6 264.4 94.6 265.85 94.8 325.55 91.7 328.2 10.8 328.2 8.6 327.4 7.75 325.55 7.5 247.05 7.75 247.05 7.75 245.9" fill="url(#gradient3)" fill-rule="evenodd" stroke="none"/>
    <path d="M44.1 332.25 L44.1 332.45 42.95 332.9 Q42.35 334.05 41.1 334.1 40.55 333.8 40.15 333.35 L39.4 333.35 Q38.9 333.65 38.7 334.15 L38.75 335.3 Q38.9 338.35 38.0 341.0 37.2 339.3 36.9 337.25 36.25 336.85 35.65 337.4 35.3 339.9 35.45 342.5 35.55 344.3 34.85 345.65 L34.1 345.35 Q33.9 339.85 33.2 334.6 L32.3 334.55 31.95 335.05 31.5 334.95 31.5 334.85 31.2 332.25 31.05 331.2 44.1 331.2 44.1 332.25" fill="url(#gradient4)" fill-rule="evenodd" stroke="none"/>
    <path d="M45.5 332.25 L44.1 332.25 44.1 331.2 46.2 331.2 46.2 331.25 45.5 332.25 M62.0 334.4 L62.15 339.25 62.1 339.35 61.85 339.7 61.8 338.9 Q61.15 336.75 61.15 334.4 L62.0 334.4 M5.9 332.05 Q5.2 331.75 4.65 331.15 L4.6 331.1 6.25 331.1 7.0 331.2 24.65 331.2 24.65 331.35 23.85 332.25 Q23.55 332.55 23.4 333.0 L20.3 332.8 20.1 332.6 19.75 332.45 Q19.55 332.4 19.35 332.6 L19.0 333.15 18.45 333.9 Q17.4 334.05 16.75 334.7 L16.1 334.6 16.05 334.45 16.05 334.35 16.05 334.15 16.0 334.0 14.95 333.95 14.75 334.15 14.55 334.5 14.4 335.65 13.7 337.45 13.45 337.45 13.1 337.3 12.65 336.6 12.45 335.85 12.25 335.65 12.15 335.5 11.4 335.55 11.2 335.8 11.1 335.85 11.1 340.3 Q11.15 343.4 9.85 345.45 L9.45 340.55 Q9.0 337.65 9.0 334.75 L8.65 334.2 8.25 333.65 7.45 333.75 7.4 333.9 7.25 334.05 7.15 334.4 6.75 334.4 6.7 334.4 6.4 333.25 6.25 332.35 7.0 332.25 6.9 332.25 6.2 332.15 5.8 331.25 5.9 332.05 M83.7 332.25 L83.7 331.2 85.4 331.2 85.4 332.45 83.7 332.25 M74.2 333.75 L75.35 333.9 75.25 338.4 74.25 337.85 74.25 337.6 Q74.3 336.3 73.9 335.2 L73.95 335.1 74.2 333.75 M34.1 345.35 L34.85 345.65 34.8 345.75 34.25 346.55 34.1 345.35 M94.4 332.25 L94.4 331.2 94.9 331.45 94.9 331.7 94.4 332.25" fill="url(#gradient5)" fill-rule="evenodd" stroke="none"/>
    <path d="M46.2 331.25 L46.2 331.2 44.1 331.2 31.05 331.2 31.0 331.1 54.4 331.1 54.4 331.2 54.6 331.95 54.6 332.25 45.95 332.25 46.7 331.35 46.6 331.2 54.4 331.2 46.6 331.2 46.25 331.2 46.2 331.25 M46.2 331.2 L46.25 331.2 46.2 331.2 M54.55 331.2 L54.5 331.1 95.15 331.1 95.0 331.15 94.4 331.2 95.0 331.15 95.15 331.1 96.8 331.1 96.75 331.15 Q96.05 331.9 95.15 332.15 L95.6 331.5 95.05 331.4 94.9 331.45 94.4 331.2 85.4 331.2 83.7 331.2 54.55 331.2 M30.95 332.25 L24.15 332.25 Q24.75 331.5 25.6 331.2 L25.8 331.1 30.6 331.1 30.55 331.15 30.55 331.2 30.85 331.2 30.95 331.15 30.95 331.2 31.0 331.25 30.95 332.25 M6.25 331.1 L25.05 331.1 24.9 331.2 24.65 331.35 24.65 331.2 24.9 331.2 24.65 331.2 7.0 331.2 6.25 331.1 M30.95 331.2 L30.85 331.2 30.95 331.2 M25.6 331.2 L30.55 331.2 25.6 331.2 M94.5 332.25 L94.4 332.25 94.9 331.7 94.5 332.25" fill="url(#gradient6)" fill-rule="evenodd" stroke="none"/>
    <path d="M61.15 334.4 L61.15 333.75 Q60.7 333.25 60.0 333.55 L59.2 335.15 Q58.2 334.65 58.15 333.3 57.85 333.0 57.55 333.0 57.2 333.0 56.9 333.3 56.35 333.9 56.2 334.7 L55.4 335.3 54.65 333.15 54.65 333.05 54.8 332.25 54.55 331.2 83.7 331.2 83.7 332.25 Q82.05 332.25 80.75 333.1 L79.5 334.1 78.5 334.05 Q77.85 334.95 76.9 335.3 L76.5 335.0 76.55 334.8 76.55 333.9 76.15 333.5 75.55 333.5 75.35 333.9 74.2 333.75 74.2 333.1 73.05 333.0 71.95 333.3 71.1 334.5 Q70.45 336.75 68.65 338.25 68.3 339.45 68.25 340.75 L68.2 341.4 68.25 341.65 68.35 343.0 68.35 345.1 68.05 347.85 68.0 348.15 68.0 348.25 67.8 348.45 67.7 349.25 67.6 348.6 67.6 348.45 67.35 348.25 67.3 347.6 66.45 344.95 66.35 342.55 Q66.3 338.2 65.7 333.9 65.35 333.5 64.9 333.45 L63.9 333.6 Q63.9 335.45 63.05 336.6 62.55 335.4 62.35 334.05 62.0 334.0 62.0 334.4 L61.15 334.4" fill="url(#gradient7)" fill-rule="evenodd" stroke="none"/>
    <path d="M69.25 349.85 L69.25 349.25 69.3 349.25 69.25 350.05 69.25 349.85" fill="url(#gradient8)" fill-rule="evenodd" stroke="none"/>
    <path d="M98.05 322.05 L98.25 322.05 98.25 322.35 98.05 322.05 M5.2 330.05 Q4.25 329.05 4.2 327.7 L5.2 330.05" fill="url(#gradient9)" fill-rule="evenodd" stroke="none"/>
    <path d="M85.4 332.45 L85.4 331.2 94.4 331.2 94.4 332.25 94.45 332.25 94.25 332.55 Q93.25 334.5 91.75 335.4 L91.7 335.3 Q91.4 334.7 91.4 333.95 L90.9 333.45 90.5 333.55 89.5 334.75 Q88.7 337.05 88.85 339.55 89.05 343.7 88.25 347.45 L87.8 349.25 87.4 349.25 87.5 347.4 87.5 347.3 Q87.55 340.8 86.45 334.65 L86.5 334.55 86.85 333.35 Q86.2 332.75 85.4 332.45" fill="url(#gradient10)" fill-rule="evenodd" stroke="none"/>
    <path d="M4.2 327.7 L4.2 232.95 Q4.2 231.5 5.2 230.5 L6.2 229.75 6.85 229.55 7.55 229.5 94.95 229.5 95.6 229.55 96.25 229.75 97.3 230.5 Q98.25 231.5 98.25 232.95 L98.25 246.2 98.25 247.05 M98.05 247.05 L98.05 322.05 98.25 322.35 98.25 327.7 Q98.2 329.05 97.3 330.05 96.55 330.85 95.55 331.05 L94.95 331.1 47.15 331.1 M98.25 322.05 L98.25 322.35 M46.75 331.1 L31.6 331.1 M31.1 331.1 L26.15 331.1 M25.45 331.1 L7.55 331.1 6.4 330.9 Q5.7 330.6 5.2 330.05 4.25 329.05 4.2 327.7 M94.8 325.55 L94.6 265.85 94.6 264.4 94.8 235.75 Q94.75 234.65 93.85 233.9 L91.7 233.1 10.8 233.1 8.6 233.9 Q7.7 234.65 7.75 235.75 L7.75 245.9 7.75 247.05 M7.5 247.05 L7.75 325.55 Q7.7 326.6 8.6 327.4 L10.8 328.2 91.7 328.2 93.85 327.4 Q94.75 326.6 94.8 325.55 M98.25 246.2 L98.05 247.05 M7.75 245.9 L7.5 247.05 M46.2 331.2 L44.1 331.2 31.05 331.2 M54.4 331.2 L46.6 331.2 46.25 331.2 46.2 331.2 M83.7 331.2 L54.55 331.2 M24.9 331.2 L24.65 331.2 7.0 331.2 6.25 331.1 M30.55 331.2 L30.85 331.2 30.95 331.2 M30.55 331.2 L25.6 331.2 M85.4 331.2 L83.7 331.2 M94.4 331.2 L85.4 331.2 M94.4 331.2 L95.0 331.15 95.15 331.1" fill="none" stroke="#000000" stroke-linecap="round" stroke-linejoin="round" stroke-width="1.0"/>
    <path d="M8.25 80.45 L8.25 70.3 Q8.2 69.2 9.1 68.45 L11.3 67.65 92.2 67.65 94.35 68.45 Q95.25 69.2 95.3 70.3 L95.1 98.95 95.1 100.4 95.3 160.1 92.2 162.75 11.3 162.75 9.1 161.95 8.25 160.1 8.0 81.6 8.25 81.6 8.25 80.45" fill="url(#gradient11)" fill-rule="evenodd" stroke="none"/>
    <path d="M95.3 160.1 L95.1 100.4 95.1 98.95 95.3 70.3 Q95.25 69.2 94.35 68.45 L92.2 67.65 11.3 67.65 9.1 68.45 Q8.2 69.2 8.25 70.3 L8.25 80.45 8.0 81.6 8.25 160.1 Q8.2 161.15 9.1 161.95 L11.3 162.75 92.2 162.75 94.35 161.95 Q95.25 161.15 95.3 160.1 M4.7 162.25 L4.7 67.5 Q4.7 66.05 5.7 65.05 L6.7 64.3 7.35 64.1 8.05 64.05 95.45 64.05 96.1 64.1 96.75 64.3 97.8 65.05 Q98.75 66.05 98.75 67.5 L98.75 80.75 98.55 81.6 98.55 156.6 98.75 156.9 98.75 162.25 Q98.7 163.6 97.8 164.6 L96.05 165.6 95.45 165.65 47.65 165.65 47.25 165.65 32.1 165.65 31.6 165.65 26.65 165.65 25.95 165.65 8.05 165.65 6.9 165.45 5.7 164.6 4.7 162.25" fill="url(#gradient12)" fill-rule="evenodd" stroke="none"/>
    <path d="M8.25 80.45 L8.25 81.6 8.0 81.6 8.25 80.45 M98.75 80.75 L98.75 81.6 98.55 81.6 98.75 80.75" fill="url(#gradient13)" fill-rule="evenodd" stroke="none"/>
    <path d="M70.65 63.1 L70.6 62.4 71.05 62.4 70.65 63.1 M78.4 63.65 Q78.15 64.0 77.8 63.9 L77.8 63.65 78.4 63.65 M90.75 62.4 L91.35 62.4 91.05 63.3 90.95 63.45 90.3 63.45 90.25 62.4 90.55 62.4 90.5 63.2 90.75 62.4 M55.0 165.65 L55.05 165.75 55.3 166.8 55.15 167.6 55.15 167.7 55.9 169.85 56.7 169.25 Q56.85 168.45 57.4 167.85 57.7 167.55 58.05 167.55 58.35 167.55 58.65 167.85 58.7 169.2 59.7 169.7 L60.5 168.1 Q61.2 167.8 61.65 168.3 L61.65 168.95 Q61.65 171.3 62.3 173.45 L62.35 174.25 62.6 173.9 62.65 173.8 Q62.45 171.4 62.5 168.95 62.5 168.55 62.85 168.6 63.05 169.95 63.55 171.15 64.4 170.0 64.4 168.15 L65.4 168.0 Q65.85 168.05 66.2 168.45 66.8 172.75 66.85 177.1 L66.95 179.5 67.8 182.15 67.85 182.8 68.1 183.0 68.1 183.15 68.2 183.8 68.3 183.0 68.5 182.8 68.5 182.7 68.55 182.4 68.55 183.0 68.55 183.8 68.2 183.8 67.9 183.8 67.9 183.7 67.9 183.5 67.3 182.7 Q66.8 180.2 66.6 177.55 L66.75 176.85 66.35 172.15 66.35 171.5 Q65.9 170.15 66.0 168.6 L66.0 168.5 64.55 168.45 Q64.55 169.9 64.0 171.15 L63.9 171.25 63.4 171.4 Q62.7 170.4 62.8 169.1 L62.8 168.95 Q62.45 171.05 62.85 173.35 L62.9 173.75 62.6 174.2 62.6 174.35 62.15 174.4 Q61.55 171.85 61.45 169.25 L61.45 168.45 Q61.0 167.9 60.55 168.45 60.2 168.9 60.15 169.5 L60.1 169.6 59.75 170.05 59.7 170.1 58.75 169.6 58.55 168.4 58.5 168.15 57.65 168.1 Q57.1 168.6 56.95 169.35 L56.2 170.15 55.7 170.05 Q54.75 168.55 55.1 166.8 L55.1 166.5 54.9 165.75 54.9 165.65 55.0 165.65 M95.4 166.0 L95.55 165.95 96.1 166.05 95.65 166.7 93.85 168.8 Q93.45 169.7 92.7 170.4 L92.2 170.45 91.8 170.05 91.4 168.6 91.4 168.5 Q89.15 171.15 89.5 175.45 89.85 179.85 88.85 183.8 L88.3 183.8 88.75 182.0 Q89.55 178.25 89.35 174.1 89.2 171.6 90.0 169.3 L91.0 168.1 91.4 168.0 91.9 168.5 Q91.9 169.25 92.2 169.85 L92.25 169.95 Q93.75 169.05 94.75 167.1 L94.95 166.8 95.0 166.8 95.4 166.25 95.4 166.0 M84.2 166.8 L85.9 167.0 Q86.7 167.3 87.35 167.9 L87.0 169.1 86.95 169.2 Q88.05 175.35 88.0 181.85 L88.0 181.95 87.9 183.8 87.55 183.8 86.95 171.9 86.85 168.9 86.75 168.5 Q87.15 168.25 87.0 167.95 L85.8 167.35 81.25 167.7 80.05 168.95 Q79.3 169.35 79.25 168.85 L78.75 169.05 78.2 169.95 78.2 170.0 Q77.35 170.45 76.7 169.8 76.65 169.3 76.85 168.95 L76.85 168.9 76.45 168.35 Q75.7 170.1 76.15 172.65 L76.2 172.95 75.75 173.4 75.2 173.05 74.75 172.95 74.35 172.5 Q74.4 171.1 74.1 169.95 L74.05 169.75 74.3 168.2 74.3 168.1 Q73.5 167.7 72.5 168.35 L71.95 169.25 Q71.35 171.55 69.4 172.95 L69.1 174.1 69.0 174.2 68.75 176.2 68.7 175.95 68.75 175.3 Q68.8 174.0 69.15 172.8 70.95 171.3 71.6 169.05 L72.45 167.85 73.55 167.55 74.7 167.65 74.7 168.3 74.45 169.65 74.4 169.75 Q74.8 170.85 74.75 172.15 L74.75 172.4 75.75 172.95 75.85 168.45 76.05 168.05 76.65 168.05 77.05 168.45 77.05 169.35 77.0 169.55 77.4 169.85 Q78.35 169.5 79.0 168.6 L80.0 168.65 81.25 167.65 Q82.55 166.8 84.2 166.8 M6.75 166.9 L6.9 167.8 7.2 168.95 7.25 168.95 7.65 168.95 7.75 168.6 7.9 168.45 7.95 168.3 8.75 168.2 9.15 168.75 9.5 169.3 Q9.5 172.2 9.95 175.1 L10.35 180.0 Q11.65 177.95 11.6 174.85 L11.6 170.4 11.7 170.35 11.9 170.1 12.65 170.05 12.75 170.2 12.95 170.4 13.15 171.15 13.6 171.85 13.95 172.0 14.2 172.0 14.9 170.2 15.05 169.05 15.25 168.7 15.45 168.5 16.5 168.55 16.55 168.7 16.55 168.9 16.55 169.0 16.6 169.15 17.25 169.25 Q17.9 168.6 18.95 168.45 L19.5 167.7 19.85 167.15 20.25 167.0 20.6 167.15 20.8 167.35 23.9 167.55 Q24.05 167.1 24.35 166.8 L25.15 165.9 25.4 165.75 25.55 165.65 26.3 165.65 26.1 165.75 Q25.25 166.05 24.65 166.8 L24.1 167.55 23.95 167.9 21.95 167.7 20.8 167.75 20.7 167.65 20.45 167.45 20.45 167.35 20.4 167.3 20.1 167.3 Q19.75 167.6 19.55 168.1 L19.3 168.65 Q18.3 168.9 17.45 169.5 L17.35 169.55 Q16.6 169.9 16.3 169.25 L16.15 168.95 15.45 168.9 Q14.95 170.0 14.9 171.2 14.85 171.85 14.35 172.3 14.0 172.5 13.65 172.3 L13.35 172.1 12.9 171.25 12.5 170.4 12.05 170.45 12.0 170.5 Q11.7 172.7 11.7 175.0 11.75 177.3 11.2 179.5 L10.95 179.85 10.75 180.2 10.65 180.3 Q10.35 180.65 10.1 180.3 L9.6 174.45 9.25 169.5 9.0 169.1 8.65 168.5 8.6 168.5 8.2 168.45 7.95 168.8 7.85 169.0 Q7.85 169.4 7.3 169.25 6.6 168.25 6.45 166.9 L6.4 166.6 6.3 165.8 6.7 166.7 6.75 166.9 M31.45 166.8 L31.5 165.8 31.45 165.75 31.45 165.7 31.35 165.75 31.05 165.75 31.05 165.7 31.1 165.65 31.5 165.65 31.55 165.75 31.7 166.8 32.0 169.4 32.0 169.5 32.45 169.6 32.8 169.1 33.7 169.15 Q34.4 174.4 34.6 179.9 34.6 180.5 34.75 181.1 L35.3 180.3 35.35 180.2 Q36.05 178.85 35.95 177.05 35.8 174.45 36.15 171.95 36.75 171.4 37.4 171.8 37.7 173.85 38.5 175.55 39.4 172.9 39.25 169.85 L39.2 168.7 39.9 167.9 40.65 167.9 41.6 168.65 Q42.85 168.6 43.45 167.45 L44.6 167.0 45.65 167.05 46.0 166.8 46.7 165.8 46.75 165.75 47.1 165.75 47.2 165.9 46.45 166.8 45.9 167.35 44.6 167.35 Q43.4 168.1 42.2 168.95 41.1 169.1 40.5 168.25 40.1 168.05 39.75 168.45 39.4 171.2 39.2 174.1 L39.1 175.35 38.6 175.9 Q38.3 176.2 38.05 175.9 L37.9 175.1 37.9 175.0 37.7 174.7 37.35 173.9 Q37.5 173.0 37.25 172.15 L37.2 172.05 36.55 172.1 36.3 172.6 36.4 173.95 Q36.5 176.9 36.0 179.75 L35.75 180.85 34.9 181.8 Q33.9 180.05 33.9 177.55 33.95 173.45 33.45 169.45 L32.15 170.05 31.75 169.8 Q31.45 168.3 31.45 166.8" fill="#000000" fill-rule="evenodd" stroke="none"/>
    <path d="M90.55 62.4 L90.75 62.4 90.5 63.2 90.55 62.4" fill="url(#gradient14)" fill-rule="evenodd" stroke="none"/>
    <path d="M98.55 156.6 L98.75 156.6 98.75 156.9 98.55 156.6 M5.7 164.6 Q4.75 163.6 4.7 162.25 L5.7 164.6" fill="url(#gradient15)" fill-rule="evenodd" stroke="none"/>
    <path d="M95.65 165.65 L95.5 165.7 94.9 165.75 95.5 165.7 95.65 165.65 97.3 165.65 97.25 165.7 Q96.55 166.45 95.65 166.7 L96.1 166.05 95.55 165.95 95.4 166.0 94.9 165.75 85.9 165.75 84.2 165.75 55.05 165.75 55.0 165.65 95.65 165.65 M95.0 166.8 L94.9 166.8 95.4 166.25 95.0 166.8 M24.65 166.8 Q25.25 166.05 26.1 165.75 L26.3 165.65 31.1 165.65 31.05 165.7 31.05 165.75 31.35 165.75 31.45 165.7 31.45 165.75 31.5 165.8 31.45 166.8 24.65 166.8 M25.55 165.65 L25.4 165.75 25.15 165.9 25.15 165.75 7.5 165.75 6.75 165.65 25.55 165.65 M46.45 166.8 L47.2 165.9 47.1 165.75 46.75 165.75 46.7 165.8 46.7 165.75 46.75 165.75 46.7 165.75 44.6 165.75 31.55 165.75 31.5 165.65 54.9 165.65 54.9 165.75 55.1 166.5 55.1 166.8 46.45 166.8 M25.4 165.75 L25.15 165.75 25.4 165.75 M31.45 165.75 L31.35 165.75 31.45 165.75 M31.05 165.75 L26.1 165.75 31.05 165.75 M47.1 165.75 L54.9 165.75 47.1 165.75" fill="url(#gradient16)" fill-rule="evenodd" stroke="none"/>
    <path d="M85.9 165.75 L94.9 165.75 94.9 166.8 94.95 166.8 94.75 167.1 Q93.75 169.05 92.25 169.95 L92.2 169.85 Q91.9 169.25 91.9 168.5 L91.4 168.0 91.0 168.1 90.0 169.3 Q89.2 171.6 89.35 174.1 89.55 178.25 88.75 182.0 L88.3 183.8 87.9 183.8 88.0 181.95 88.0 181.85 Q88.05 175.35 86.95 169.2 L87.0 169.1 87.35 167.9 Q86.7 167.3 85.9 167.0 L85.9 165.75" fill="url(#gradient17)" fill-rule="evenodd" stroke="none"/>
    <path d="M84.2 165.75 L85.9 165.75 85.9 167.0 84.2 166.8 84.2 165.75 M94.9 165.75 L95.4 166.0 95.4 166.25 94.9 166.8 94.9 165.75 M75.85 168.45 L75.75 172.95 74.75 172.4 74.75 172.15 Q74.8 170.85 74.4 169.75 L74.45 169.65 74.7 168.3 75.85 168.45 M25.15 165.9 L24.35 166.8 Q24.05 167.1 23.9 167.55 L20.8 167.35 20.6 167.15 20.25 167.0 19.85 167.15 19.5 167.7 18.95 168.45 Q17.9 168.6 17.25 169.25 L16.6 169.15 16.55 169.0 16.55 168.9 16.55 168.7 16.5 168.55 15.45 168.5 15.25 168.7 15.05 169.05 14.9 170.2 14.2 172.0 13.95 172.0 13.6 171.85 13.15 171.15 12.95 170.4 12.75 170.2 12.65 170.05 11.9 170.1 11.7 170.35 11.6 170.4 11.6 174.85 Q11.65 177.95 10.35 180.0 L9.95 175.1 Q9.5 172.2 9.5 169.3 L9.15 168.75 8.75 168.2 7.95 168.3 7.9 168.45 7.75 168.6 7.65 168.95 7.25 168.95 7.2 168.95 6.9 167.8 6.75 166.9 7.5 166.8 7.4 166.8 6.7 166.7 6.3 165.8 6.4 166.6 Q5.7 166.3 5.15 165.7 L5.1 165.65 6.75 165.65 7.5 165.75 25.15 165.75 25.15 165.9 M46.7 165.8 L46.0 166.8 44.6 166.8 44.6 165.75 46.7 165.75 46.7 165.8 M35.35 180.2 L35.3 180.3 34.75 181.1 Q34.6 180.5 34.6 179.9 L35.35 180.2 M62.5 168.95 Q62.45 171.4 62.65 173.8 L62.6 173.9 62.35 174.25 62.3 173.45 Q61.65 171.3 61.65 168.95 L62.5 168.95" fill="url(#gradient18)" fill-rule="evenodd" stroke="none"/>
    <path d="M55.05 165.75 L84.2 165.75 84.2 166.8 Q82.55 166.8 81.25 167.65 L80.0 168.65 79.0 168.6 Q78.35 169.5 77.4 169.85 L77.0 169.55 77.05 169.35 77.05 168.45 76.65 168.05 76.05 168.05 75.85 168.45 74.7 168.3 74.7 167.65 73.55 167.55 72.45 167.85 71.6 169.05 Q70.95 171.3 69.15 172.8 68.8 174.0 68.75 175.3 L68.7 175.95 68.75 176.2 68.85 177.55 68.85 179.65 68.55 182.4 68.5 182.7 68.5 182.8 68.3 183.0 68.2 183.8 68.1 183.15 68.1 183.0 67.85 182.8 67.8 182.15 66.95 179.5 66.85 177.1 Q66.8 172.75 66.2 168.45 65.85 168.05 65.4 168.0 L64.4 168.15 Q64.4 170.0 63.55 171.15 63.05 169.95 62.85 168.6 62.5 168.55 62.5 168.95 L61.65 168.95 61.65 168.3 Q61.2 167.8 60.5 168.1 L59.7 169.7 Q58.7 169.2 58.65 167.85 58.35 167.55 58.05 167.55 57.7 167.55 57.4 167.85 56.85 168.45 56.7 169.25 L55.9 169.85 55.15 167.7 55.15 167.6 55.3 166.8 55.05 165.75" fill="url(#gradient19)" fill-rule="evenodd" stroke="none"/>
    <path d="M44.6 167.0 L43.45 167.45 Q42.85 168.6 41.6 168.65 L40.65 167.9 39.9 167.9 39.2 168.7 39.25 169.85 Q39.4 172.9 38.5 175.55 37.7 173.85 37.4 171.8 36.75 171.4 36.15 171.95 35.8 174.45 35.95 177.05 36.05 178.85 35.35 180.2 L34.6 179.9 Q34.4 174.4 33.7 169.15 L32.8 169.1 32.45 169.6 32.0 169.5 32.0 169.4 31.7 166.8 31.55 165.75 44.6 165.75 44.6 166.8 44.6 167.0" fill="url(#gradient20)" fill-rule="evenodd" stroke="none"/>
    <path d="M69.75 184.6 L69.75 184.4 69.75 183.8 69.8 183.8 69.75 184.6" fill="url(#gradient21)" fill-rule="evenodd" stroke="none"/>
    <path d="M95.3 160.1 L95.1 100.4 95.1 98.95 95.3 70.3 Q95.25 69.2 94.35 68.45 L92.2 67.65 11.3 67.65 9.1 68.45 Q8.2 69.2 8.25 70.3 L8.25 80.45 8.25 81.6 M8.0 81.6 L8.25 160.1 Q8.2 161.15 9.1 161.95 L11.3 162.75 92.2 162.75 94.35 161.95 Q95.25 161.15 95.3 160.1 M4.7 162.25 L4.7 67.5 Q4.7 66.05 5.7 65.05 L6.7 64.3 7.35 64.1 8.05 64.05 95.45 64.05 96.1 64.1 96.75 64.3 97.8 65.05 Q98.75 66.05 98.75 67.5 L98.75 80.75 98.75 81.6 M98.55 81.6 L98.55 156.6 98.75 156.9 98.75 162.25 Q98.7 163.6 97.8 164.6 L96.05 165.6 95.45 165.65 47.65 165.65 M98.75 156.6 L98.75 156.9 M47.25 165.65 L32.1 165.65 M31.6 165.65 L26.65 165.65 M25.95 165.65 L8.05 165.65 6.9 165.45 5.7 164.6 Q4.75 163.6 4.7 162.25 M8.25 80.45 L8.0 81.6 M98.75 80.75 L98.55 81.6 M94.9 165.75 L95.5 165.7 95.65 165.65 M55.05 165.75 L84.2 165.75 85.9 165.75 94.9 165.75 M25.15 165.75 L7.5 165.75 6.75 165.65 M47.1 165.75 L46.75 165.75 46.7 165.75 44.6 165.75 31.55 165.75 M31.05 165.75 L31.35 165.75 31.45 165.75 M25.15 165.75 L25.4 165.75 M26.1 165.75 L31.05 165.75 M54.9 165.75 L47.1 165.75" fill="none" stroke="#000000" stroke-linecap="round" stroke-linejoin="round" stroke-width="1.0"/>
    <path d="M96.25 56.05 L94.45 58.15 93.3 59.75 92.8 59.8 92.4 59.4 92.0 57.95 92.0 57.85 Q89.75 60.5 90.1 64.8 90.45 69.2 89.45 73.15 L88.9 73.15 89.35 71.35 Q90.15 67.6 89.95 63.45 89.8 60.95 90.6 58.65 L91.6 57.45 92.0 57.35 92.5 57.85 Q92.5 58.6 92.8 59.2 L92.85 59.3 Q94.35 58.4 95.35 56.45 L95.55 56.15 95.6 56.15 96.0 55.6 96.0 55.35 96.15 55.3 96.7 55.4 96.25 56.05 M88.5 73.15 L88.15 73.15 87.55 61.25 87.45 58.25 87.35 57.85 Q87.75 57.6 87.6 57.3 L86.4 56.7 81.85 57.05 80.65 58.3 Q79.9 58.7 79.85 58.2 L79.35 58.4 78.8 59.3 78.8 59.35 Q77.95 59.8 77.3 59.15 77.25 58.65 77.45 58.3 L77.45 58.25 77.05 57.7 Q76.3 59.45 76.75 62.0 L76.8 62.3 76.35 62.75 75.8 62.4 75.35 62.3 74.95 61.85 Q75.0 60.45 74.7 59.3 L74.65 59.1 74.9 57.55 74.9 57.45 Q74.1 57.05 73.1 57.7 L72.55 58.6 Q71.95 60.9 70.0 62.3 L69.7 63.45 69.6 63.55 69.35 65.55 69.3 65.3 69.35 64.65 Q69.4 63.35 69.75 62.15 71.55 60.65 72.2 58.4 L73.05 57.2 74.15 56.9 75.3 57.0 75.3 57.65 75.05 59.0 75.0 59.1 Q75.4 60.2 75.35 61.5 L75.35 61.75 76.35 62.3 76.45 57.8 76.65 57.4 77.25 57.4 77.65 57.8 77.65 58.7 77.6 58.9 78.0 59.2 Q78.95 58.85 79.6 57.95 L80.6 58.0 81.85 57.0 Q83.15 56.15 84.8 56.15 L86.5 56.35 87.95 57.25 87.6 58.45 87.55 58.55 Q88.65 64.7 88.6 71.2 L88.6 71.3 88.5 73.15 M69.15 71.75 L69.15 72.35 69.15 73.15 68.8 73.15 68.5 73.15 68.5 73.05 68.5 72.85 67.9 72.05 Q67.4 69.55 67.2 66.9 L67.35 66.2 66.95 61.5 66.95 60.85 Q66.5 59.5 66.6 57.95 L66.6 57.85 65.15 57.8 Q65.15 59.25 64.6 60.5 L64.5 60.6 64.0 60.75 Q63.3 59.75 63.4 58.45 L63.4 58.3 Q63.05 60.4 63.45 62.7 L63.5 63.1 63.2 63.55 63.2 63.7 62.75 63.75 Q62.15 61.2 62.05 58.6 L62.05 57.8 Q61.6 57.25 61.15 57.8 60.8 58.25 60.75 58.85 L60.7 58.95 60.35 59.4 60.3 59.45 Q59.8 59.4 59.35 58.95 L59.15 57.75 59.1 57.5 58.25 57.45 Q57.7 57.95 57.55 58.7 L56.8 59.5 56.3 59.4 Q55.35 57.9 55.7 56.15 L55.7 55.85 55.5 55.1 55.5 55.0 55.5 54.9 55.65 55.1 55.9 56.15 55.75 56.95 55.75 57.05 56.5 59.2 57.3 58.6 Q57.45 57.8 58.0 57.2 58.3 56.9 58.65 56.9 58.95 56.9 59.25 57.2 59.3 58.55 60.3 59.05 L61.1 57.45 Q61.8 57.15 62.25 57.65 L62.25 58.3 Q62.25 60.65 62.9 62.8 L62.95 63.6 63.2 63.25 63.25 63.15 63.1 58.3 Q63.1 57.9 63.45 57.95 63.65 59.3 64.15 60.5 65.0 59.35 65.0 57.5 L66.0 57.35 Q66.45 57.4 66.8 57.8 67.4 62.1 67.45 66.45 L67.55 68.85 68.4 71.5 68.45 72.15 68.7 72.35 68.7 72.5 68.8 73.15 68.9 72.35 69.1 72.15 69.1 72.05 69.15 71.75 M47.05 56.15 L46.5 56.7 45.2 56.7 Q44.0 57.45 42.8 58.3 41.7 58.45 41.1 57.6 40.7 57.4 40.35 57.8 40.0 60.55 39.8 63.45 L39.7 64.7 39.2 65.25 Q38.9 65.55 38.65 65.25 L38.5 64.45 38.5 64.35 38.3 64.05 37.95 63.25 Q38.1 62.35 37.85 61.5 L37.8 61.4 37.15 61.45 36.9 61.95 37.0 63.3 Q37.1 66.25 36.6 69.1 L36.35 70.2 35.5 71.15 Q34.5 69.4 34.5 66.9 34.55 62.8 34.05 58.8 L32.75 59.4 32.35 59.15 Q32.05 57.65 32.05 56.15 L32.1 55.15 32.05 55.1 32.05 55.05 31.95 55.1 31.65 55.1 31.65 55.05 Q31.8 54.85 32.1 54.8 L32.15 55.1 32.3 56.15 32.6 58.75 32.6 58.85 33.05 58.95 33.4 58.45 34.3 58.5 Q35.0 63.75 35.2 69.25 L35.35 70.45 35.9 69.65 35.95 69.55 Q36.65 68.2 36.55 66.4 36.4 63.8 36.75 61.3 37.35 60.75 38.0 61.15 38.3 63.2 39.1 64.9 40.0 62.25 39.85 59.2 L39.8 58.05 Q40.0 57.55 40.5 57.25 L41.25 57.25 42.2 58.0 Q43.45 57.95 44.05 56.8 L45.2 56.35 46.25 56.4 46.6 56.15 47.3 55.15 47.35 55.1 47.7 55.1 47.8 55.25 47.05 56.15 M25.25 56.15 Q24.9 56.45 24.7 56.9 L24.55 57.25 22.55 57.05 21.4 57.1 21.3 57.0 21.05 56.8 21.05 56.7 21.0 56.65 20.7 56.65 20.15 57.45 19.9 58.0 Q18.9 58.25 18.05 58.85 L17.95 58.9 Q17.2 59.25 16.9 58.6 L16.75 58.3 16.05 58.25 Q15.55 59.35 15.5 60.55 15.45 61.2 14.95 61.65 14.6 61.85 14.25 61.65 L13.95 61.45 13.5 60.6 13.1 59.75 12.65 59.8 12.6 59.85 Q12.3 62.05 12.3 64.35 12.35 66.65 11.8 68.85 L11.55 69.2 11.35 69.55 11.25 69.65 Q10.95 70.0 10.7 69.65 L10.2 63.8 9.85 58.85 9.6 58.45 9.25 57.85 9.2 57.85 8.8 57.8 8.55 58.15 8.45 58.35 Q8.45 58.75 7.9 58.6 7.2 57.6 7.05 56.25 L7.0 55.95 6.9 55.15 7.3 56.05 7.35 56.25 7.5 57.15 7.8 58.3 7.85 58.3 8.25 58.3 8.35 57.95 8.5 57.8 8.55 57.65 9.35 57.55 9.75 58.1 10.1 58.65 Q10.1 61.55 10.55 64.45 L10.95 69.35 Q12.25 67.3 12.2 64.2 L12.2 59.75 12.3 59.7 12.5 59.45 13.25 59.4 13.35 59.55 13.55 59.75 13.75 60.5 14.2 61.2 14.55 61.35 14.8 61.35 15.5 59.55 15.65 58.4 15.85 58.05 16.05 57.85 17.1 57.9 17.15 58.05 17.15 58.25 17.15 58.35 17.2 58.5 17.85 58.6 Q18.5 57.95 19.55 57.8 L20.1 57.05 20.45 56.5 20.85 56.35 21.2 56.5 21.4 56.7 24.5 56.9 Q24.65 56.45 24.95 56.15 L25.75 55.25 26.0 55.1 26.45 54.9 26.85 54.95 26.9 55.0 26.7 55.1 Q25.85 55.4 25.25 56.15 M90.5 73.15 L91.05 73.15 90.55 74.8 90.45 74.95 89.8 74.95 89.75 73.15 90.1 73.15 90.0 74.7 90.5 73.15 M70.35 73.15 L70.35 73.75 70.35 73.95 70.4 73.15 70.7 73.15 70.15 74.6 70.1 73.15 70.35 73.15 M77.3 75.15 L77.9 75.15 Q77.65 75.5 77.3 75.4 L77.3 75.15" fill="#000000" fill-rule="evenodd" stroke="none"/>
    <path d="M94.4 32.9 L92.25 32.1 11.35 32.1 9.15 32.9 Q8.25 33.65 8.3 34.75 L8.3 49.55 Q8.25 50.6 9.15 51.4 L11.35 52.2 92.25 52.2 94.4 51.4 Q95.3 50.6 95.35 49.55 L95.35 34.75 Q95.3 33.65 94.4 32.9 M96.8 28.75 L97.85 29.55 Q98.75 30.55 98.8 31.95 L98.8 51.7 98.8 52.55 Q98.8 54.0 97.85 55.05 L96.25 56.05 96.7 55.4 96.15 55.3 96.0 55.35 95.5 55.1 96.1 55.05 Q97.1 54.85 97.85 54.05 98.75 53.05 98.8 51.7 98.75 53.05 97.85 54.05 97.1 54.85 96.1 55.05 L95.5 55.1 86.5 55.1 84.8 55.1 55.65 55.1 55.5 54.9 55.5 55.0 55.5 55.1 55.7 55.85 55.7 56.15 47.05 56.15 47.8 55.25 47.7 55.1 47.35 55.1 47.3 55.15 47.3 55.1 45.2 55.1 32.15 55.1 32.1 54.8 Q31.8 54.85 31.65 55.05 L31.65 55.1 31.95 55.1 32.05 55.05 32.05 55.1 32.1 55.15 32.05 56.15 25.25 56.15 Q25.85 55.4 26.7 55.1 L31.65 55.1 26.7 55.1 26.9 55.0 26.85 54.95 26.45 54.9 26.0 55.1 25.75 55.25 25.75 55.1 8.1 55.1 6.95 54.9 5.75 54.05 Q4.8 53.05 4.75 51.7 L4.75 31.95 Q4.8 30.55 5.75 29.55 L6.75 28.75 Q7.35 28.45 8.1 28.5 L95.5 28.5 96.8 28.75 95.5 28.5 8.1 28.5 6.75 28.75 8.1 28.5 95.5 28.5 96.8 28.75 M96.0 55.6 L95.6 56.15 95.5 56.15 96.0 55.6 M31.95 55.1 L32.05 55.1 31.95 55.1 M25.75 55.1 L26.0 55.1 25.75 55.1 M47.3 55.1 L47.35 55.1 47.3 55.1 M47.7 55.1 L55.5 55.1 47.7 55.1" fill="url(#gradient22)" fill-rule="evenodd" stroke="none"/>
    <path d="M94.4 32.9 Q95.3 33.65 95.35 34.75 L95.35 49.55 Q95.3 50.6 94.4 51.4 L92.25 52.2 11.35 52.2 9.15 51.4 Q8.25 50.6 8.3 49.55 L8.3 34.75 Q8.25 33.65 9.15 32.9 L11.35 32.1 92.25 32.1 94.4 32.9 M7.0 55.95 L5.75 55.05 Q4.75 54.0 4.75 52.55 L4.75 51.7 Q4.8 53.05 5.75 54.05 L6.95 54.9 8.1 55.1 25.75 55.1 25.75 55.25 24.95 56.15 Q24.65 56.45 24.5 56.9 L21.4 56.7 21.2 56.5 20.85 56.35 20.45 56.5 20.1 57.05 19.55 57.8 Q18.5 57.95 17.85 58.6 L17.2 58.5 17.15 58.35 17.15 58.25 17.15 58.05 17.1 57.9 16.05 57.85 15.85 58.05 15.65 58.4 15.5 59.55 14.8 61.35 14.55 61.35 14.2 61.2 13.75 60.5 13.55 59.75 13.35 59.55 13.25 59.4 12.5 59.45 12.3 59.7 12.2 59.75 12.2 64.2 Q12.25 67.3 10.95 69.35 L10.55 64.45 Q10.1 61.55 10.1 58.65 L9.75 58.1 9.35 57.55 8.55 57.65 8.5 57.8 8.35 57.95 8.25 58.3 7.85 58.3 7.8 58.3 7.5 57.15 7.35 56.25 8.1 56.15 8.0 56.15 7.3 56.05 6.9 55.15 7.0 55.95 M95.5 55.1 L96.0 55.35 96.0 55.6 95.5 56.15 95.5 55.1 M86.5 55.1 L86.5 56.35 84.8 56.15 84.8 55.1 86.5 55.1 M62.25 58.3 L63.1 58.3 63.25 63.15 63.2 63.25 62.95 63.6 62.9 62.8 Q62.25 60.65 62.25 58.3 M35.2 69.25 L35.95 69.55 35.9 69.65 35.35 70.45 35.2 69.25 M45.2 56.15 L45.2 55.1 47.3 55.1 47.3 55.15 46.6 56.15 45.2 56.15 M75.3 57.65 L76.45 57.8 76.35 62.3 75.35 61.75 75.35 61.5 Q75.4 60.2 75.0 59.1 L75.05 59.0 75.3 57.65" fill="url(#gradient23)" fill-rule="evenodd" stroke="none"/>
    <path d="M88.9 73.15 L88.5 73.15 88.6 71.3 88.6 71.2 Q88.65 64.7 87.55 58.55 L87.6 58.45 87.95 57.25 86.5 56.35 86.5 55.1 95.5 55.1 95.5 56.15 95.55 56.15 95.35 56.45 Q94.35 58.4 92.85 59.3 L92.8 59.2 Q92.5 58.6 92.5 57.85 L92.0 57.35 91.6 57.45 90.6 58.65 Q89.8 60.95 89.95 63.45 90.15 67.6 89.35 71.35 L88.9 73.15" fill="url(#gradient24)" fill-rule="evenodd" stroke="none"/>
    <path d="M69.35 65.55 L69.45 66.9 69.45 69.0 69.15 71.75 69.1 72.05 69.1 72.15 68.9 72.35 68.8 73.15 68.7 72.5 68.7 72.35 68.45 72.15 68.4 71.5 67.55 68.85 67.45 66.45 Q67.4 62.1 66.8 57.8 66.45 57.4 66.0 57.35 L65.0 57.5 Q65.0 59.35 64.15 60.5 63.65 59.3 63.45 57.95 63.1 57.9 63.1 58.3 L62.25 58.3 62.25 57.65 Q61.8 57.15 61.1 57.45 L60.3 59.05 Q59.3 58.55 59.25 57.2 58.95 56.9 58.65 56.9 58.3 56.9 58.0 57.2 57.45 57.8 57.3 58.6 L56.5 59.2 55.75 57.05 55.75 56.95 55.9 56.15 55.65 55.1 84.8 55.1 84.8 56.15 Q83.15 56.15 81.85 57.0 L80.6 58.0 79.6 57.95 Q78.95 58.85 78.0 59.2 L77.6 58.9 77.65 58.7 77.65 57.8 77.25 57.4 76.65 57.4 76.45 57.8 75.3 57.65 75.3 57.0 74.15 56.9 73.05 57.2 72.2 58.4 Q71.55 60.65 69.75 62.15 69.4 63.35 69.35 64.65 L69.3 65.3 69.35 65.55" fill="url(#gradient25)" fill-rule="evenodd" stroke="none"/>
    <path d="M70.4 73.15 L70.35 73.95 70.35 73.75 70.35 73.15 70.4 73.15" fill="url(#gradient26)" fill-rule="evenodd" stroke="none"/>
    <path d="M90.1 73.15 L90.5 73.15 90.0 74.7 90.1 73.15" fill="url(#gradient27)" fill-rule="evenodd" stroke="none"/>
    <path d="M35.2 69.25 Q35.0 63.75 34.3 58.5 L33.4 58.45 33.05 58.95 32.6 58.85 32.6 58.75 32.3 56.15 32.15 55.1 45.2 55.1 45.2 56.15 45.2 56.35 44.05 56.8 Q43.45 57.95 42.2 58.0 L41.25 57.25 40.5 57.25 Q40.0 57.55 39.8 58.05 L39.85 59.2 Q40.0 62.25 39.1 64.9 38.3 63.2 38.0 61.15 37.35 60.75 36.75 61.3 36.4 63.8 36.55 66.4 36.65 68.2 35.95 69.55 L35.2 69.25" fill="url(#gradient28)" fill-rule="evenodd" stroke="none"/>
    <path d="M94.4 32.9 L92.25 32.1 11.35 32.1 9.15 32.9 Q8.25 33.65 8.3 34.75 L8.3 49.55 Q8.25 50.6 9.15 51.4 L11.35 52.2 92.25 52.2 94.4 51.4 Q95.3 50.6 95.35 49.55 L95.35 34.75 Q95.3 33.65 94.4 32.9 M98.8 31.95 Q98.8 30.5 97.85 29.5 L96.8 28.75 95.5 28.5 8.1 28.5 6.75 28.75 Q6.2 29.0 5.75 29.5 4.75 30.5 4.75 31.95 L4.75 51.7 Q4.8 53.05 5.75 54.05 L6.95 54.9 8.1 55.1 25.75 55.1 26.0 55.1 M98.8 31.95 L98.8 51.7 Q98.75 53.05 97.85 54.05 97.1 54.85 96.1 55.05 L95.5 55.1 86.5 55.1 84.8 55.1 55.65 55.1 M31.95 55.1 L31.65 55.1 26.7 55.1 M32.05 55.1 L31.95 55.1 M45.2 55.1 L32.15 55.1 M47.7 55.1 L47.35 55.1 47.3 55.1 45.2 55.1 M55.5 55.1 L47.7 55.1" fill="none" stroke="#000000" stroke-linecap="round" stroke-linejoin="round" stroke-width="1.0"/>
    <path d="M4.75 196.9 Q4.8 195.5 5.75 194.5 L6.75 193.7 8.1 193.45 95.5 193.45 96.8 193.7 95.5 193.45 8.1 193.45 6.75 193.7 Q7.35 193.4 8.1 193.45 L95.5 193.45 96.8 193.7 97.85 194.5 Q98.75 195.5 98.8 196.9 L98.8 216.65 Q98.75 218.0 97.85 219.0 97.15 219.75 96.25 219.95 L96.1 220.0 95.5 220.05 96.1 220.0 96.25 219.95 Q97.15 219.75 97.85 219.0 98.75 218.0 98.8 216.65 L98.8 217.5 Q98.8 218.9 97.9 219.95 L97.85 220.0 96.25 221.0 96.7 220.35 96.15 220.25 96.0 220.3 95.5 220.05 86.5 220.05 84.8 220.05 55.65 220.05 55.6 219.95 55.5 219.85 55.5 219.95 55.5 220.05 47.7 220.05 55.5 220.05 55.7 220.8 55.7 221.1 47.05 221.1 47.8 220.2 47.7 220.05 47.35 220.05 47.3 220.05 47.35 220.05 47.3 220.1 47.3 220.05 45.2 220.05 32.15 220.05 32.1 219.95 32.1 219.75 Q31.85 219.8 31.7 219.95 L31.65 220.0 31.65 220.05 26.7 220.05 31.65 220.05 31.95 220.05 32.05 220.05 31.95 220.05 32.05 220.0 32.05 220.05 32.1 220.1 32.05 221.1 25.25 221.1 Q25.85 220.35 26.7 220.05 L26.9 219.95 26.85 219.9 26.45 219.85 26.15 219.95 26.0 220.05 25.75 220.05 26.0 220.05 25.75 220.2 25.75 220.05 8.1 220.05 7.35 219.95 6.95 219.85 5.75 219.0 Q4.8 218.0 4.75 216.65 L4.75 196.9 M8.3 199.7 L8.3 214.5 Q8.25 215.55 9.15 216.35 L11.35 217.15 92.25 217.15 94.4 216.35 Q95.3 215.55 95.35 214.5 L95.35 199.7 Q95.3 198.6 94.4 197.85 L92.25 197.05 11.35 197.05 9.15 197.85 Q8.25 198.6 8.3 199.7 M96.0 220.55 L95.6 221.1 95.5 221.1 96.0 220.55" fill="url(#gradient29)" fill-rule="evenodd" stroke="none"/>
    <path d="M4.75 216.65 Q4.8 218.0 5.75 219.0 L6.95 219.85 7.35 219.95 8.1 220.05 25.75 220.05 25.75 220.2 24.95 221.1 Q24.65 221.4 24.5 221.85 L21.4 221.65 21.2 221.45 20.85 221.3 20.45 221.45 20.1 222.0 19.55 222.75 Q18.5 222.9 17.85 223.55 L17.2 223.45 17.15 223.3 17.15 223.2 17.15 223.0 17.1 222.85 16.05 222.8 15.85 223.0 15.65 223.35 15.5 224.5 14.8 226.3 14.55 226.3 14.2 226.15 13.75 225.45 13.55 224.7 13.35 224.5 13.25 224.35 12.5 224.4 12.3 224.65 12.2 224.7 12.2 229.15 12.1 230.85 11.95 231.8 Q11.65 233.2 10.95 234.3 L10.8 231.8 10.7 230.85 10.55 229.4 Q10.1 226.5 10.1 223.6 L9.75 223.05 9.35 222.5 8.55 222.6 8.5 222.75 8.35 222.9 8.25 223.25 7.85 223.25 7.8 223.25 7.5 222.1 7.35 221.2 8.1 221.1 8.0 221.1 7.3 221.0 6.9 220.1 7.0 220.9 5.75 220.0 5.7 219.95 Q4.75 218.9 4.75 217.5 L4.75 216.65 M45.2 220.05 L47.3 220.05 47.3 220.1 46.6 221.1 45.2 221.1 45.2 220.05 M84.8 220.05 L86.5 220.05 86.5 221.3 84.8 221.1 84.8 220.05 M8.3 199.7 Q8.25 198.6 9.15 197.85 L11.35 197.05 92.25 197.05 94.4 197.85 Q95.3 198.6 95.35 199.7 L95.35 214.5 Q95.3 215.55 94.4 216.35 L92.25 217.15 11.35 217.15 9.15 216.35 Q8.25 215.55 8.3 214.5 L8.3 199.7 M96.0 220.3 L96.0 220.55 95.5 221.1 95.5 220.05 96.0 220.3 M76.45 222.75 L76.35 227.25 75.35 226.7 75.35 226.45 Q75.4 225.15 75.0 224.05 L75.05 223.95 75.3 222.6 76.45 222.75 M62.25 223.25 L63.1 223.25 63.25 228.1 63.2 228.2 62.95 228.55 62.9 227.75 Q62.25 225.6 62.25 223.25 M35.95 234.5 L35.9 234.6 35.35 235.4 35.2 234.2 35.95 234.5" fill="url(#gradient30)" fill-rule="evenodd" stroke="none"/>
    <path d="M26.0 220.05 L26.15 219.95 26.45 219.85 26.85 219.9 26.9 219.95 26.7 220.05 Q25.85 220.35 25.25 221.1 24.9 221.4 24.7 221.85 L24.55 222.2 22.55 222.0 21.4 222.05 21.3 221.95 21.05 221.75 21.05 221.65 21.0 221.6 20.7 221.6 20.15 222.4 19.9 222.95 Q18.9 223.2 18.05 223.8 L17.95 223.85 Q17.2 224.2 16.9 223.55 L16.75 223.25 16.05 223.2 Q15.55 224.3 15.5 225.5 15.45 226.15 14.95 226.6 14.6 226.8 14.25 226.6 L13.95 226.4 13.5 225.55 13.1 224.7 12.65 224.75 12.6 224.8 Q12.3 227.0 12.3 229.3 L12.3 230.85 12.2 231.8 11.8 233.8 11.55 234.15 11.35 234.5 11.25 234.6 Q10.95 234.95 10.7 234.6 L10.55 231.8 10.45 230.85 10.2 228.75 9.85 223.8 9.6 223.4 9.25 222.8 9.2 222.8 8.8 222.75 8.55 223.1 8.45 223.3 Q8.45 223.7 7.9 223.55 7.2 222.55 7.05 221.2 L7.0 220.9 6.9 220.1 7.3 221.0 7.35 221.2 7.5 222.1 7.8 223.25 7.85 223.25 8.25 223.25 8.35 222.9 8.5 222.75 8.55 222.6 9.35 222.5 9.75 223.05 10.1 223.6 Q10.1 226.5 10.55 229.4 L10.7 230.85 10.8 231.8 10.95 234.3 Q11.65 233.2 11.95 231.8 L12.1 230.85 12.2 229.15 12.2 224.7 12.3 224.65 12.5 224.4 13.25 224.35 13.35 224.5 13.55 224.7 13.75 225.45 14.2 226.15 14.55 226.3 14.8 226.3 15.5 224.5 15.65 223.35 15.85 223.0 16.05 222.8 17.1 222.85 17.15 223.0 17.15 223.2 17.15 223.3 17.2 223.45 17.85 223.55 Q18.5 222.9 19.55 222.75 L20.1 222.0 20.45 221.45 20.85 221.3 21.2 221.45 21.4 221.65 24.5 221.85 Q24.65 221.4 24.95 221.1 L25.75 220.2 26.0 220.05 M31.65 220.05 L31.65 220.0 31.7 219.95 Q31.85 219.8 32.1 219.75 L32.1 219.95 32.15 220.05 32.3 221.1 32.6 223.7 32.6 223.8 33.05 223.9 33.4 223.4 34.3 223.45 35.05 230.85 35.1 231.8 35.2 234.2 35.35 235.4 35.9 234.6 35.95 234.5 Q36.55 233.35 36.55 231.8 L36.55 231.35 36.55 230.85 Q36.45 228.5 36.75 226.25 37.35 225.7 38.0 226.1 38.3 228.15 39.1 229.85 40.0 227.2 39.85 224.15 L39.8 223.0 Q40.0 222.5 40.5 222.2 L41.25 222.2 42.2 222.95 Q43.45 222.9 44.05 221.75 L45.2 221.3 46.25 221.35 46.6 221.1 47.3 220.1 47.35 220.05 47.7 220.05 47.8 220.2 47.05 221.1 46.5 221.65 45.2 221.65 Q44.0 222.4 42.8 223.25 41.7 223.4 41.1 222.55 40.7 222.35 40.35 222.75 40.0 225.5 39.8 228.4 L39.7 229.65 39.2 230.2 Q38.9 230.5 38.65 230.2 L38.5 229.4 38.5 229.3 38.3 229.0 37.95 228.2 Q38.1 227.3 37.85 226.45 L37.8 226.35 37.15 226.4 36.9 226.9 37.0 228.25 37.0 230.85 36.9 231.8 36.6 234.05 36.35 235.15 35.5 236.1 Q34.5 234.35 34.5 231.85 L34.5 231.8 34.5 230.85 Q34.45 227.25 34.05 223.75 L32.75 224.35 32.35 224.1 Q32.05 222.6 32.05 221.1 L32.1 220.1 32.05 220.05 32.05 220.0 31.95 220.05 31.65 220.05 M55.5 220.05 L55.5 219.95 55.5 219.85 55.6 219.95 55.65 220.05 55.9 221.1 55.75 221.9 55.75 222.0 56.5 224.15 57.3 223.55 Q57.45 222.75 58.0 222.15 58.3 221.85 58.65 221.85 58.95 221.85 59.25 222.15 59.3 223.5 60.3 224.0 L61.1 222.4 Q61.8 222.1 62.25 222.6 L62.25 223.25 Q62.25 225.6 62.9 227.75 L62.95 228.55 63.2 228.2 63.25 228.1 63.1 223.25 Q63.1 222.85 63.45 222.9 63.65 224.25 64.15 225.45 65.0 224.3 65.0 222.45 L66.0 222.3 Q66.45 222.35 66.8 222.75 67.35 226.75 67.45 230.85 L67.45 231.4 67.45 231.8 67.55 233.8 68.4 236.45 68.45 237.1 68.7 237.3 68.7 237.45 68.8 238.1 68.9 237.3 69.1 237.1 69.1 237.0 69.15 236.7 69.15 237.3 69.15 238.1 68.8 238.1 68.5 238.1 68.5 238.0 68.5 237.8 67.9 237.0 Q67.4 234.5 67.2 231.85 L67.2 231.8 Q67.2 231.45 67.35 231.15 L67.35 230.85 66.95 226.45 66.95 225.8 Q66.5 224.45 66.6 222.9 L66.6 222.8 65.15 222.75 Q65.15 224.2 64.6 225.45 L64.5 225.55 64.0 225.7 Q63.3 224.7 63.4 223.4 L63.4 223.25 Q63.05 225.35 63.45 227.65 L63.5 228.05 63.2 228.5 63.2 228.65 62.75 228.7 Q62.15 226.15 62.05 223.55 L62.05 222.75 Q61.6 222.2 61.15 222.75 60.8 223.2 60.75 223.8 L60.7 223.9 60.35 224.35 60.3 224.4 Q59.8 224.35 59.35 223.9 L59.15 222.7 59.1 222.45 58.25 222.4 Q57.7 222.9 57.55 223.65 L56.8 224.45 56.3 224.35 Q55.35 222.85 55.7 221.1 L55.7 220.8 55.5 220.05 M96.25 221.0 L94.45 223.1 93.3 224.7 92.8 224.75 92.4 224.35 92.0 222.9 92.0 222.8 Q89.75 225.45 90.1 229.75 L90.2 230.85 90.2 231.8 Q90.2 235.05 89.45 238.1 L88.9 238.1 89.35 236.3 89.95 231.8 90.0 230.85 89.95 228.4 Q89.8 225.9 90.6 223.6 L91.6 222.4 92.0 222.3 92.5 222.8 Q92.5 223.55 92.8 224.15 L92.85 224.25 Q94.35 223.35 95.35 221.4 L95.55 221.1 95.6 221.1 96.0 220.55 96.0 220.3 96.15 220.25 96.7 220.35 96.25 221.0 M88.5 238.1 L88.15 238.1 87.85 231.8 87.8 230.85 87.55 226.2 87.45 223.2 87.35 222.8 Q87.75 222.55 87.6 222.25 L86.4 221.65 81.85 222.0 80.65 223.25 Q79.9 223.65 79.85 223.15 L79.35 223.35 78.8 224.25 78.8 224.3 Q77.95 224.75 77.3 224.1 77.25 223.6 77.45 223.25 L77.45 223.2 77.05 222.65 Q76.3 224.4 76.75 226.95 L76.8 227.25 76.35 227.7 75.8 227.35 75.35 227.25 74.95 226.8 Q75.0 225.4 74.7 224.25 L74.65 224.05 74.9 222.5 74.9 222.4 Q74.1 222.0 73.1 222.65 L72.55 223.55 Q71.95 225.85 70.0 227.25 L69.7 228.4 69.6 228.5 69.35 230.5 69.3 230.25 69.35 229.6 Q69.4 228.3 69.75 227.1 71.55 225.6 72.2 223.35 L73.05 222.15 74.15 221.85 75.3 221.95 75.3 222.6 75.05 223.95 75.0 224.05 Q75.4 225.15 75.35 226.45 L75.35 226.7 76.35 227.25 76.45 222.75 76.65 222.35 77.25 222.35 77.65 222.75 77.65 223.65 77.6 223.85 78.0 224.15 Q78.95 223.8 79.6 222.9 L80.6 222.95 81.85 221.95 Q83.15 221.1 84.8 221.1 L86.5 221.3 87.95 222.2 87.6 223.4 87.55 223.5 Q88.2 227.1 88.45 230.85 L88.5 231.8 88.6 236.15 88.6 236.25 88.5 238.1 M90.5 238.1 L91.05 238.1 90.85 238.75 90.3 238.75 90.5 238.1 M90.05 238.75 L89.75 238.75 89.75 238.1 90.1 238.1 90.05 238.75 M70.4 238.1 L70.7 238.1 70.55 238.75 70.35 238.75 70.1 238.75 70.1 238.1 70.35 238.1 70.35 238.7 70.35 238.75 70.4 238.1" fill="#000000" fill-rule="evenodd" stroke="none"/>
    <path d="M86.5 220.05 L95.5 220.05 95.5 221.1 95.55 221.1 95.35 221.4 Q94.35 223.35 92.85 224.25 L92.8 224.15 Q92.5 223.55 92.5 222.8 L92.0 222.3 91.6 222.4 90.6 223.6 Q89.8 225.9 89.95 228.4 L90.0 230.85 89.95 231.8 89.35 236.3 88.9 238.1 88.5 238.1 88.6 236.25 88.6 236.15 88.5 231.8 88.45 230.85 Q88.2 227.1 87.55 223.5 L87.6 223.4 87.95 222.2 86.5 221.3 86.5 220.05" fill="url(#gradient31)" fill-rule="evenodd" stroke="none"/>
    <path d="M55.65 220.05 L84.8 220.05 84.8 221.1 Q83.15 221.1 81.85 221.95 L80.6 222.95 79.6 222.9 Q78.95 223.8 78.0 224.15 L77.6 223.85 77.65 223.65 77.65 222.75 77.25 222.35 76.65 222.35 76.45 222.75 75.3 222.6 75.3 221.95 74.15 221.85 73.05 222.15 72.2 223.35 Q71.55 225.6 69.75 227.1 69.4 228.3 69.35 229.6 L69.3 230.25 69.35 230.5 69.4 230.85 69.45 231.8 69.45 231.85 69.45 233.95 69.15 236.7 69.1 237.0 69.1 237.1 68.9 237.3 68.8 238.1 68.7 237.45 68.7 237.3 68.45 237.1 68.4 236.45 67.55 233.8 67.45 231.8 67.45 231.4 67.45 230.85 Q67.35 226.75 66.8 222.75 66.45 222.35 66.0 222.3 L65.0 222.45 Q65.0 224.3 64.15 225.45 63.65 224.25 63.45 222.9 63.1 222.85 63.1 223.25 L62.25 223.25 62.25 222.6 Q61.8 222.1 61.1 222.4 L60.3 224.0 Q59.3 223.5 59.25 222.15 58.95 221.85 58.65 221.85 58.3 221.85 58.0 222.15 57.45 222.75 57.3 223.55 L56.5 224.15 55.75 222.0 55.75 221.9 55.9 221.1 55.65 220.05" fill="url(#gradient32)" fill-rule="evenodd" stroke="none"/>
    <path d="M90.3 238.75 L90.05 238.75 90.1 238.1 90.5 238.1 90.3 238.75" fill="url(#gradient33)" fill-rule="evenodd" stroke="none"/>
    <path d="M70.35 238.1 L70.4 238.1 70.35 238.75 70.35 238.7 70.35 238.1" fill="url(#gradient34)" fill-rule="evenodd" stroke="none"/>
    <path d="M32.15 220.05 L45.2 220.05 45.2 221.1 45.2 221.3 44.05 221.75 Q43.45 222.9 42.2 222.95 L41.25 222.2 40.5 222.2 Q40.0 222.5 39.8 223.0 L39.85 224.15 Q40.0 227.2 39.1 229.85 38.3 228.15 38.0 226.1 37.35 225.7 36.75 226.25 36.45 228.5 36.55 230.85 L36.55 231.35 36.55 231.8 Q36.55 233.35 35.95 234.5 L35.2 234.2 35.1 231.8 35.05 230.85 34.3 223.45 33.4 223.4 33.05 223.9 32.6 223.8 32.6 223.7 32.3 221.1 32.15 220.05" fill="url(#gradient35)" fill-rule="evenodd" stroke="none"/>
    <path d="M6.75 193.7 Q6.2 193.95 5.75 194.45 4.75 195.45 4.75 196.9 L4.75 216.65 Q4.8 218.0 5.75 219.0 L6.95 219.85 7.35 219.95 8.1 220.05 25.75 220.05 26.0 220.05 M26.7 220.05 L31.65 220.05 31.95 220.05 32.05 220.05 M32.15 220.05 L45.2 220.05 47.3 220.05 47.35 220.05 47.7 220.05 55.5 220.05 M55.65 220.05 L84.8 220.05 86.5 220.05 95.5 220.05 96.1 220.0 96.25 219.95 Q97.15 219.75 97.85 219.0 98.75 218.0 98.8 216.65 L98.8 196.9 Q98.8 195.45 97.85 194.45 L96.8 193.7 95.5 193.45 8.1 193.45 6.75 193.7 M8.3 199.7 L8.3 214.5 Q8.25 215.55 9.15 216.35 L11.35 217.15 92.25 217.15 94.4 216.35 Q95.3 215.55 95.35 214.5 L95.35 199.7 Q95.3 198.6 94.4 197.85 L92.25 197.05 11.35 197.05 9.15 197.85 Q8.25 198.6 8.3 199.7" fill="none" stroke="#000000" stroke-linecap="round" stroke-linejoin="round" stroke-width="1.0"/>
  </g>
  <defs>
    <linearGradient gradientTransform="matrix(0.0049, 0.0098, -0.0081, 0.0046, 92.5, 216.85)" gradientUnits="userSpaceOnUse" id="gradient0" spreadMethod="pad" x1="-819.2" x2="819.2">
      <stop offset="0.0" stop-color="#f5fbfc"/>
      <stop offset="0.3137254901960784" stop-color="#9fdcea"/>
      <stop offset="0.7647058823529411" stop-color="#dcf4f8"/>
    </linearGradient>
    <linearGradient gradientTransform="matrix(0.0, 0.0574, -0.062, 0.0, 51.2, 280.3)" gradientUnits="userSpaceOnUse" id="gradient1" spreadMethod="pad" x1="-819.2" x2="819.2">
      <stop offset="0.0" stop-color="#f5fbfc"/>
      <stop offset="0.7647058823529411" stop-color="#bab8cb"/>
      <stop offset="1.0" stop-color="#869b9d"/>
    </linearGradient>
    <linearGradient gradientTransform="matrix(3.0E-4, 0.0186, -0.0159, 3.0E-4, 51.25, 243.3)" gradientUnits="userSpaceOnUse" id="gradient2" spreadMethod="pad" x1="-819.2" x2="819.2">
      <stop offset="0.0" stop-color="#f5fbfc"/>
      <stop offset="0.3137254901960784" stop-color="#bab8cb"/>
      <stop offset="0.7647058823529411" stop-color="#869b9d"/>
    </linearGradient>
    <linearGradient gradientTransform="matrix(0.0332, 0.0663, -0.0646, 0.0323, 51.3, 280.5)" gradientUnits="userSpaceOnUse" id="gradient3" spreadMethod="pad" x1="-819.2" x2="819.2">
      <stop offset="0.0" stop-color="#f5fbfc"/>
      <stop offset="0.3137254901960784" stop-color="#9fdcea"/>
      <stop offset="0.7647058823529411" stop-color="#dcf4f8"/>
    </linearGradient>
    <linearGradient gradientTransform="matrix(0.004, 0.0079, -0.0081, 0.0046, 37.8, 335.7)" gradientUnits="userSpaceOnUse" id="gradient4" spreadMethod="pad" x1="-819.2" x2="819.2">
      <stop offset="0.0" stop-color="#f5fbfc"/>
      <stop offset="0.3137254901960784" stop-color="#9fdcea"/>
      <stop offset="0.7647058823529411" stop-color="#dcf4f8"/>
    </linearGradient>
    <linearGradient gradientTransform="matrix(0.0123, 0.0246, -0.0419, 0.0237, 50.7, 318.2)" gradientUnits="userSpaceOnUse" id="gradient5" spreadMethod="pad" x1="-819.2" x2="819.2">
      <stop offset="0.0" stop-color="#f5fbfc"/>
      <stop offset="0.3137254901960784" stop-color="#9fdcea"/>
      <stop offset="0.7647058823529411" stop-color="#dcf4f8"/>
    </linearGradient>
    <linearGradient gradientTransform="matrix(3.0E-4, 0.0186, -0.0159, 3.0E-4, 50.7, 318.4)" gradientUnits="userSpaceOnUse" id="gradient6" spreadMethod="pad" x1="-819.2" x2="819.2">
      <stop offset="0.0" stop-color="#f5fbfc"/>
      <stop offset="0.3137254901960784" stop-color="#bab8cb"/>
      <stop offset="0.7647058823529411" stop-color="#869b9d"/>
    </linearGradient>
    <linearGradient gradientTransform="matrix(0.0063, 0.0125, -0.0145, 0.0082, 70.55, 335.25)" gradientUnits="userSpaceOnUse" id="gradient7" spreadMethod="pad" x1="-819.2" x2="819.2">
      <stop offset="0.0" stop-color="#f5fbfc"/>
      <stop offset="0.3137254901960784" stop-color="#9fdcea"/>
      <stop offset="0.7647058823529411" stop-color="#dcf4f8"/>
    </linearGradient>
    <linearGradient gradientTransform="matrix(0.0063, 0.0125, -0.0145, 0.0082, 72.15, 335.25)" gradientUnits="userSpaceOnUse" id="gradient8" spreadMethod="pad" x1="-819.2" x2="819.2">
      <stop offset="0.0" stop-color="#f5fbfc"/>
      <stop offset="0.3137254901960784" stop-color="#9fdcea"/>
      <stop offset="0.7647058823529411" stop-color="#dcf4f8"/>
    </linearGradient>
    <linearGradient gradientTransform="matrix(3.0E-4, 0.0186, -0.0159, 3.0E-4, 51.25, 318.3)" gradientUnits="userSpaceOnUse" id="gradient9" spreadMethod="pad" x1="-819.2" x2="819.2">
      <stop offset="0.0" stop-color="#f5fbfc"/>
      <stop offset="0.3137254901960784" stop-color="#bab8cb"/>
      <stop offset="0.7647058823529411" stop-color="#869b9d"/>
    </linearGradient>
    <linearGradient gradientTransform="matrix(0.0049, 0.0098, -0.0081, 0.0046, 89.85, 339.0)" gradientUnits="userSpaceOnUse" id="gradient10" spreadMethod="pad" x1="-819.2" x2="819.2">
      <stop offset="0.0" stop-color="#f5fbfc"/>
      <stop offset="0.3137254901960784" stop-color="#9fdcea"/>
      <stop offset="0.7647058823529411" stop-color="#dcf4f8"/>
    </linearGradient>
    <linearGradient gradientTransform="matrix(0.0332, 0.0663, -0.0646, 0.0323, 51.8, 115.05)" gradientUnits="userSpaceOnUse" id="gradient11" spreadMethod="pad" x1="-819.2" x2="819.2">
      <stop offset="0.0" stop-color="#f5fbfc"/>
      <stop offset="0.3137254901960784" stop-color="#9fdcea"/>
      <stop offset="0.7647058823529411" stop-color="#dcf4f8"/>
    </linearGradient>
    <linearGradient gradientTransform="matrix(0.0, 0.0574, -0.062, 0.0, 51.7, 114.85)" gradientUnits="userSpaceOnUse" id="gradient12" spreadMethod="pad" x1="-819.2" x2="819.2">
      <stop offset="0.0" stop-color="#f5fbfc"/>
      <stop offset="0.7647058823529411" stop-color="#bab8cb"/>
      <stop offset="1.0" stop-color="#869b9d"/>
    </linearGradient>
    <linearGradient gradientTransform="matrix(3.0E-4, 0.0186, -0.0159, 3.0E-4, 51.75, 77.85)" gradientUnits="userSpaceOnUse" id="gradient13" spreadMethod="pad" x1="-819.2" x2="819.2">
      <stop offset="0.0" stop-color="#f5fbfc"/>
      <stop offset="0.3137254901960784" stop-color="#bab8cb"/>
      <stop offset="0.7647058823529411" stop-color="#869b9d"/>
    </linearGradient>
    <linearGradient gradientTransform="matrix(0.0049, 0.0098, -0.0081, 0.0046, 93.0, 51.4)" gradientUnits="userSpaceOnUse" id="gradient14" spreadMethod="pad" x1="-819.2" x2="819.2">
      <stop offset="0.0" stop-color="#f5fbfc"/>
      <stop offset="0.3137254901960784" stop-color="#9fdcea"/>
      <stop offset="0.7647058823529411" stop-color="#dcf4f8"/>
    </linearGradient>
    <linearGradient gradientTransform="matrix(3.0E-4, 0.0186, -0.0159, 3.0E-4, 51.75, 152.85)" gradientUnits="userSpaceOnUse" id="gradient15" spreadMethod="pad" x1="-819.2" x2="819.2">
      <stop offset="0.0" stop-color="#f5fbfc"/>
      <stop offset="0.3137254901960784" stop-color="#bab8cb"/>
      <stop offset="0.7647058823529411" stop-color="#869b9d"/>
    </linearGradient>
    <linearGradient gradientTransform="matrix(3.0E-4, 0.0186, -0.0159, 3.0E-4, 51.2, 152.95)" gradientUnits="userSpaceOnUse" id="gradient16" spreadMethod="pad" x1="-819.2" x2="819.2">
      <stop offset="0.0" stop-color="#f5fbfc"/>
      <stop offset="0.3137254901960784" stop-color="#bab8cb"/>
      <stop offset="0.7647058823529411" stop-color="#869b9d"/>
    </linearGradient>
    <linearGradient gradientTransform="matrix(0.0049, 0.0098, -0.0081, 0.0046, 90.35, 173.55)" gradientUnits="userSpaceOnUse" id="gradient17" spreadMethod="pad" x1="-819.2" x2="819.2">
      <stop offset="0.0" stop-color="#f5fbfc"/>
      <stop offset="0.3137254901960784" stop-color="#9fdcea"/>
      <stop offset="0.7647058823529411" stop-color="#dcf4f8"/>
    </linearGradient>
    <linearGradient gradientTransform="matrix(0.0123, 0.0246, -0.0419, 0.0237, 51.2, 152.75)" gradientUnits="userSpaceOnUse" id="gradient18" spreadMethod="pad" x1="-819.2" x2="819.2">
      <stop offset="0.0" stop-color="#f5fbfc"/>
      <stop offset="0.3137254901960784" stop-color="#9fdcea"/>
      <stop offset="0.7647058823529411" stop-color="#dcf4f8"/>
    </linearGradient>
    <linearGradient gradientTransform="matrix(0.0063, 0.0125, -0.0145, 0.0082, 71.05, 169.8)" gradientUnits="userSpaceOnUse" id="gradient19" spreadMethod="pad" x1="-819.2" x2="819.2">
      <stop offset="0.0" stop-color="#f5fbfc"/>
      <stop offset="0.3137254901960784" stop-color="#9fdcea"/>
      <stop offset="0.7647058823529411" stop-color="#dcf4f8"/>
    </linearGradient>
    <linearGradient gradientTransform="matrix(0.004, 0.0079, -0.0081, 0.0046, 38.3, 170.25)" gradientUnits="userSpaceOnUse" id="gradient20" spreadMethod="pad" x1="-819.2" x2="819.2">
      <stop offset="0.0" stop-color="#f5fbfc"/>
      <stop offset="0.3137254901960784" stop-color="#9fdcea"/>
      <stop offset="0.7647058823529411" stop-color="#dcf4f8"/>
    </linearGradient>
    <linearGradient gradientTransform="matrix(0.0063, 0.0125, -0.0145, 0.0082, 72.65, 169.8)" gradientUnits="userSpaceOnUse" id="gradient21" spreadMethod="pad" x1="-819.2" x2="819.2">
      <stop offset="0.0" stop-color="#f5fbfc"/>
      <stop offset="0.3137254901960784" stop-color="#9fdcea"/>
      <stop offset="0.7647058823529411" stop-color="#dcf4f8"/>
    </linearGradient>
    <linearGradient gradientTransform="matrix(3.0E-4, 0.0186, -0.0159, 3.0E-4, 51.8, 42.3)" gradientUnits="userSpaceOnUse" id="gradient22" spreadMethod="pad" x1="-819.2" x2="819.2">
      <stop offset="0.0" stop-color="#f5fbfc"/>
      <stop offset="0.3137254901960784" stop-color="#bab8cb"/>
      <stop offset="0.7647058823529411" stop-color="#869b9d"/>
    </linearGradient>
    <linearGradient gradientTransform="matrix(0.0123, 0.0246, -0.0419, 0.0237, 51.8, 42.1)" gradientUnits="userSpaceOnUse" id="gradient23" spreadMethod="pad" x1="-819.2" x2="819.2">
      <stop offset="0.0" stop-color="#f5fbfc"/>
      <stop offset="0.3137254901960784" stop-color="#9fdcea"/>
      <stop offset="0.7647058823529411" stop-color="#dcf4f8"/>
    </linearGradient>
    <linearGradient gradientTransform="matrix(0.0049, 0.0098, -0.0081, 0.0046, 90.95, 62.9)" gradientUnits="userSpaceOnUse" id="gradient24" spreadMethod="pad" x1="-819.2" x2="819.2">
      <stop offset="0.0" stop-color="#f5fbfc"/>
      <stop offset="0.3137254901960784" stop-color="#9fdcea"/>
      <stop offset="0.7647058823529411" stop-color="#dcf4f8"/>
    </linearGradient>
    <linearGradient gradientTransform="matrix(0.0063, 0.0125, -0.0145, 0.0082, 71.65, 59.15)" gradientUnits="userSpaceOnUse" id="gradient25" spreadMethod="pad" x1="-819.2" x2="819.2">
      <stop offset="0.0" stop-color="#f5fbfc"/>
      <stop offset="0.3137254901960784" stop-color="#9fdcea"/>
      <stop offset="0.7647058823529411" stop-color="#dcf4f8"/>
    </linearGradient>
    <linearGradient gradientTransform="matrix(0.0063, 0.0125, -0.0145, 0.0082, 73.25, 59.15)" gradientUnits="userSpaceOnUse" id="gradient26" spreadMethod="pad" x1="-819.2" x2="819.2">
      <stop offset="0.0" stop-color="#f5fbfc"/>
      <stop offset="0.3137254901960784" stop-color="#9fdcea"/>
      <stop offset="0.7647058823529411" stop-color="#dcf4f8"/>
    </linearGradient>
    <linearGradient gradientTransform="matrix(0.0049, 0.0098, -0.0081, 0.0046, 92.5, 62.9)" gradientUnits="userSpaceOnUse" id="gradient27" spreadMethod="pad" x1="-819.2" x2="819.2">
      <stop offset="0.0" stop-color="#f5fbfc"/>
      <stop offset="0.3137254901960784" stop-color="#9fdcea"/>
      <stop offset="0.7647058823529411" stop-color="#dcf4f8"/>
    </linearGradient>
    <linearGradient gradientTransform="matrix(0.004, 0.0079, -0.0081, 0.0046, 38.9, 59.6)" gradientUnits="userSpaceOnUse" id="gradient28" spreadMethod="pad" x1="-819.2" x2="819.2">
      <stop offset="0.0" stop-color="#f5fbfc"/>
      <stop offset="0.3137254901960784" stop-color="#9fdcea"/>
      <stop offset="0.7647058823529411" stop-color="#dcf4f8"/>
    </linearGradient>
    <linearGradient gradientTransform="matrix(3.0E-4, 0.0186, -0.0159, 3.0E-4, 51.8, 207.25)" gradientUnits="userSpaceOnUse" id="gradient29" spreadMethod="pad" x1="-819.2" x2="819.2">
      <stop offset="0.0" stop-color="#f5fbfc"/>
      <stop offset="0.3137254901960784" stop-color="#bab8cb"/>
      <stop offset="0.7647058823529411" stop-color="#869b9d"/>
    </linearGradient>
    <linearGradient gradientTransform="matrix(0.0123, 0.0246, -0.0419, 0.0237, 51.8, 207.05)" gradientUnits="userSpaceOnUse" id="gradient30" spreadMethod="pad" x1="-819.2" x2="819.2">
      <stop offset="0.0" stop-color="#f5fbfc"/>
      <stop offset="0.3137254901960784" stop-color="#9fdcea"/>
      <stop offset="0.7647058823529411" stop-color="#dcf4f8"/>
    </linearGradient>
    <linearGradient gradientTransform="matrix(0.0049, 0.0098, -0.0081, 0.0046, 90.95, 227.85)" gradientUnits="userSpaceOnUse" id="gradient31" spreadMethod="pad" x1="-819.2" x2="819.2">
      <stop offset="0.0" stop-color="#f5fbfc"/>
      <stop offset="0.3137254901960784" stop-color="#9fdcea"/>
      <stop offset="0.7647058823529411" stop-color="#dcf4f8"/>
    </linearGradient>
    <linearGradient gradientTransform="matrix(0.0063, 0.0125, -0.0145, 0.0082, 71.65, 224.1)" gradientUnits="userSpaceOnUse" id="gradient32" spreadMethod="pad" x1="-819.2" x2="819.2">
      <stop offset="0.0" stop-color="#f5fbfc"/>
      <stop offset="0.3137254901960784" stop-color="#9fdcea"/>
      <stop offset="0.7647058823529411" stop-color="#dcf4f8"/>
    </linearGradient>
    <linearGradient gradientTransform="matrix(0.0049, 0.0098, -0.0081, 0.0046, 92.5, 227.85)" gradientUnits="userSpaceOnUse" id="gradient33" spreadMethod="pad" x1="-819.2" x2="819.2">
      <stop offset="0.0" stop-color="#f5fbfc"/>
      <stop offset="0.3137254901960784" stop-color="#9fdcea"/>
      <stop offset="0.7647058823529411" stop-color="#dcf4f8"/>
    </linearGradient>
    <linearGradient gradientTransform="matrix(0.0063, 0.0125, -0.0145, 0.0082, 73.25, 224.1)" gradientUnits="userSpaceOnUse" id="gradient34" spreadMethod="pad" x1="-819.2" x2="819.2">
      <stop offset="0.0" stop-color="#f5fbfc"/>
      <stop offset="0.3137254901960784" stop-color="#9fdcea"/>
      <stop offset="0.7647058823529411" stop-color="#dcf4f8"/>
    </linearGradient>
    <linearGradient gradientTransform="matrix(0.004, 0.0079, -0.0081, 0.0046, 38.9, 224.55)" gradientUnits="userSpaceOnUse" id="gradient35" spreadMethod="pad" x1="-819.2" x2="819.2">
      <stop offset="0.0" stop-color="#f5fbfc"/>
      <stop offset="0.3137254901960784" stop-color="#9fdcea"/>
      <stop offset="0.7647058823529411" stop-color="#dcf4f8"/>
    </linearGradient>
  </defs>
</svg>
