<?xml version="1.0" encoding="UTF-8" standalone="no"?>
<svg xmlns:xlink="http://www.w3.org/1999/xlink" height="660.65px" width="563.2px" xmlns="http://www.w3.org/2000/svg">
  <g transform="matrix(1.0, 0.0, 0.0, 1.0, 475.15, 369.55)">
    <path d="M-136.95 -313.3 L-136.9 -313.3 -136.85 -313.25 Q-118.45 -302.7 -103.5 -285.35 -85.9 -264.95 -81.4 -240.2 L-81.85 -252.3 Q-81.85 -253.3 -80.1 -252.85 -74.4 -199.0 -61.3 -147.0 L-60.7 -147.15 Q-30.0 -112.85 0.4 -76.15 L1.85 -74.45 2.8 -71.15 3.8 -67.85 Q42.8 -12.0 78.3 47.55 94.5 74.75 83.75 105.55 64.8 104.25 45.45 97.3 L23.15 85.2 Q-5.35 70.1 -24.65 45.0 -26.1 62.15 -29.15 79.65 -36.2 119.85 -28.75 159.45 -22.7 191.7 -12.05 222.15 27.05 217.1 52.8 243.05 53.2 243.5 53.2 244.3 34.4 246.4 16.45 261.55 -11.7 285.35 -51.8 274.65 L-68.5 269.9 Q-69.4 269.65 -69.9 268.0 L-69.75 267.15 -69.5 266.65 Q-67.95 264.65 -65.75 263.5 -64.35 262.75 -62.65 262.45 L-57.1 265.2 Q-33.5 275.25 -2.25 263.35 5.8 260.3 10.55 253.65 13.95 252.0 17.15 250.05 27.55 243.6 39.1 239.7 L40.25 239.25 40.35 239.25 41.1 238.8 39.8 238.2 Q26.9 232.1 13.2 230.6 L-9.55 229.05 -4.95 241.0 Q-15.2 236.75 -21.8 221.05 L-22.2 220.15 -22.25 221.0 -22.3 221.2 -22.4 222.85 Q-27.7 238.5 -36.95 241.0 L-36.75 236.05 -36.45 234.4 Q-33.15 230.5 -30.4 226.4 L-28.2 222.85 Q-27.55 215.85 -26.25 209.0 -43.65 156.85 -37.3 99.15 -29.35 26.7 -35.45 -46.2 -38.35 -81.5 -55.85 -112.45 -77.95 -172.9 -81.3 -238.1 -88.4 -241.75 -92.3 -253.05 -103.35 -284.9 -131.0 -303.5 L-132.45 -305.15 -133.4 -306.25 -133.9 -306.8 Q-137.9 -308.6 -142.0 -310.15 L-136.95 -313.3 M-72.8 266.3 Q-75.5 271.4 -78.65 276.25 -100.15 286.45 -119.35 270.2 -118.1 280.8 -125.65 288.35 -139.85 289.3 -152.3 280.1 L-154.75 275.15 Q-161.45 271.8 -165.9 266.85 -169.9 278.6 -178.95 289.45 L-187.2 291.1 Q-205.25 282.25 -205.65 263.0 -240.2 281.25 -287.05 270.2 L-281.5 261.7 Q-313.35 258.7 -342.25 242.5 -351.1 237.55 -356.85 231.1 -356.4 230.25 -355.7 230.05 -351.3 228.6 -346.7 227.7 L-344.85 227.05 -344.75 226.7 Q-321.1 223.5 -300.7 229.35 L-302.5 226.1 Q-314.3 201.45 -327.8 178.25 -329.35 175.5 -331.65 173.3 -341.25 123.15 -345.05 71.0 -391.95 119.3 -459.9 106.25 L-470.4 103.9 Q-474.85 102.8 -475.15 97.3 -474.5 93.15 -473.4 89.0 L-473.2 87.4 -459.9 71.85 -315.0 -97.85 -312.4 -100.95 Q-310.0 -108.7 -308.25 -116.6 -304.7 -132.55 -307.65 -148.55 -317.4 -201.35 -305.7 -249.35 -303.7 -257.5 -297.65 -263.95 L-297.25 -264.4 -296.9 -266.05 Q-296.75 -266.85 -296.75 -267.7 L-296.75 -269.35 Q-293.75 -272.4 -291.4 -275.95 -283.9 -287.4 -274.25 -297.7 -265.5 -307.05 -257.0 -316.7 L-251.65 -318.3 -243.9 -320.5 Q-235.45 -322.8 -227.5 -326.7 -225.55 -327.7 -224.55 -328.25 L-196.0 -329.5 -204.1 -322.05 -209.5 -322.05 -224.55 -321.65 Q-250.05 -315.45 -266.7 -297.4 -286.45 -276.0 -300.9 -250.8 L-301.6 -249.55 -301.6 -247.9 -301.7 -246.25 -302.1 -244.6 Q-314.65 -217.85 -306.45 -187.65 -303.55 -176.85 -302.25 -165.45 -300.0 -145.55 -299.55 -125.05 -293.35 -118.5 -299.5 -108.05 L-299.65 -100.9 Q-347.45 -39.95 -342.75 41.3 L-341.05 65.1 -338.45 63.75 -340.95 66.6 Q-336.55 119.25 -326.75 169.95 L-326.35 171.65 -323.5 175.0 Q-322.2 176.6 -321.6 178.45 -319.85 183.9 -316.1 188.5 -310.7 195.1 -308.4 203.0 L-305.95 206.3 Q-304.75 207.95 -304.05 209.8 -302.15 215.0 -298.55 219.8 -294.25 225.55 -292.45 232.15 -290.3 233.0 -288.2 233.95 L-289.2 229.75 Q-289.35 229.0 -287.55 229.45 -279.2 236.95 -274.25 246.55 -273.05 246.4 -271.8 247.4 -260.45 231.05 -248.3 215.65 -252.9 208.8 -244.9 207.4 -242.45 212.55 -243.35 219.0 L-243.45 220.65 Q-257.65 237.45 -270.95 254.95 L-271.05 255.3 -271.45 255.65 -279.8 266.85 Q-242.5 276.25 -210.95 256.4 -206.2 253.3 -202.25 257.5 -200.3 264.15 -199.0 270.75 -198.85 271.55 -198.85 272.4 -193.65 282.65 -182.85 285.05 -176.45 281.35 -176.05 274.05 L-173.15 270.75 Q-172.9 266.2 -170.9 262.4 L-170.25 260.8 -163.45 260.25 Q-150.95 274.05 -134.85 283.4 L-126.6 281.2 Q-123.1 274.3 -124.1 266.3 L-124.2 264.65 Q-108.65 271.2 -86.85 274.05 -81.0 269.95 -77.65 264.1 -97.8 236.85 -89.15 205.55 -89.05 205.2 -87.85 205.2 -91.55 230.3 -76.5 252.45 L-75.0 254.6 -73.3 256.4 Q-72.45 260.45 -72.75 264.7 L-72.8 266.3 M-187.2 -328.9 Q-163.0 -326.55 -142.7 -316.4 -146.1 -314.55 -149.5 -312.85 -171.6 -320.3 -194.95 -321.75 L-187.2 -328.9 M-65.05 244.85 Q-67.75 237.8 -64.25 230.85 -61.95 226.1 -57.8 224.5 -53.65 225.6 -49.9 227.45 -49.8 227.5 -50.05 228.35 -50.25 228.9 -50.65 229.05 L-57.3 231.1 Q-57.8 235.8 -58.7 239.9 -59.85 244.8 -64.95 244.85 L-65.05 244.85 M-46.35 229.4 Q-44.95 224.35 -41.3 220.1 -39.8 218.3 -38.4 217.9 -30.55 221.45 -33.35 224.4 -34.3 225.4 -36.4 226.3 L-37.45 225.6 -41.55 232.15 Q-45.15 238.6 -47.5 246.05 -48.1 247.9 -50.05 249.25 -53.35 246.3 -50.8 239.8 -50.5 239.05 -50.5 238.25 L-48.45 235.0 -47.1 233.3 -46.5 229.95 -46.35 229.4 M-49.2 -128.35 L-60.75 -144.75 -55.6 -125.6 -55.35 -124.0 Q-19.55 -49.1 -23.95 34.7 L-23.85 35.65 Q-4.55 63.85 24.6 79.7 52.3 97.25 79.4 98.4 87.95 78.5 77.3 60.5 74.0 54.9 72.6 48.85 38.45 -6.0 3.25 -59.8 0.85 -63.45 -2.05 -66.75 -2.05 -68.4 -2.2 -70.05 L-2.5 -71.7 Q-28.45 -100.0 -49.2 -128.35 M-342.55 -57.45 Q-401.95 10.75 -459.9 79.05 L-463.15 82.85 Q-470.75 91.85 -468.35 101.15 L-466.8 101.55 -459.9 102.95 Q-417.55 110.3 -377.65 85.95 -360.15 75.25 -345.3 67.35 L-346.5 46.15 Q-348.8 -5.1 -335.55 -51.35 -325.0 -68.1 -317.9 -85.65 L-342.55 -57.45 M-290.55 241.2 Q-290.95 240.7 -290.95 239.9 -290.95 239.05 -291.35 238.55 -292.65 236.85 -294.35 235.5 L-313.25 234.25 -342.8 233.3 Q-327.1 245.7 -308.65 253.35 -292.55 260.05 -277.85 253.1 -277.35 252.3 -277.25 251.4 L-277.25 249.8 -277.25 249.55 Q-282.8 246.95 -286.05 239.85 L-286.1 239.9 Q-286.35 240.7 -286.85 241.3 L-288.5 242.65 Q-289.75 242.1 -290.55 241.2" fill="#000000" fill-rule="evenodd" stroke="none"/>
    <path d="M-55.35 -124.0 L-49.2 -128.35 Q-28.45 -100.0 -2.5 -71.7 L-2.2 -70.05 Q-2.05 -68.4 -2.05 -66.75 0.85 -63.45 3.25 -59.8 38.45 -6.0 72.6 48.85 74.0 54.9 77.3 60.5 87.95 78.5 79.4 98.4 52.3 97.25 24.6 79.7 -4.55 63.85 -23.85 35.65 L-23.95 34.7 Q-19.55 -49.1 -55.35 -124.0" fill="url(#gradient0)" fill-rule="evenodd" stroke="none"/>
    <path d="M-69.75 267.15 L-72.8 266.3 -72.75 264.7 Q-72.45 260.45 -73.3 256.4 L-75.0 254.6 -76.5 252.45 -65.05 244.85 -64.95 244.85 Q-59.85 244.8 -58.7 239.9 -57.8 235.8 -57.3 231.1 L-50.65 229.05 Q-50.25 228.9 -50.05 228.35 L-46.35 229.4 -46.5 229.95 -47.1 233.3 -48.45 235.0 -50.5 238.25 Q-50.5 239.05 -50.8 239.8 -53.35 246.3 -50.05 249.25 -48.1 247.9 -47.5 246.05 -45.15 238.6 -41.55 232.15 L-37.45 225.6 -36.4 226.3 Q-34.3 225.4 -33.35 224.4 L-30.4 226.4 Q-33.15 230.5 -36.45 234.4 L-36.75 236.05 -36.95 241.0 Q-27.7 238.5 -22.4 222.85 L-22.3 221.2 -22.25 221.0 -22.2 220.15 -21.8 221.05 Q-15.2 236.75 -4.95 241.0 L-9.55 229.05 13.2 230.6 Q26.9 232.1 39.8 238.2 L41.1 238.8 40.35 239.25 40.25 239.25 39.1 239.7 Q27.55 243.6 17.15 250.05 13.95 252.0 10.55 253.65 5.8 260.3 -2.25 263.35 -33.5 275.25 -57.1 265.2 L-62.65 262.45 Q-64.35 262.75 -65.75 263.5 -67.95 264.65 -69.5 266.65 L-69.75 267.15" fill="url(#gradient1)" fill-rule="evenodd" stroke="none"/>
    <path d="M-142.7 -316.4 L-140.2 -317.8 Q-137.65 -323.65 -132.45 -327.7 -132.2 -337.65 -125.45 -342.9 L-124.7 -343.1 Q-123.0 -334.35 -127.9 -324.9 L-128.55 -323.3 Q-134.0 -319.55 -136.8 -313.4 L-136.9 -313.3 -136.95 -313.3 -142.0 -310.15 Q-163.5 -297.55 -186.1 -297.5 -196.7 -297.5 -207.55 -300.2 -176.95 -299.75 -149.5 -312.85 -146.1 -314.55 -142.7 -316.4" fill="url(#gradient2)" fill-rule="evenodd" stroke="none"/>
    <path d="M-142.0 -310.15 Q-137.9 -308.6 -133.9 -306.8 L-133.4 -306.25 -132.45 -305.15 -131.0 -303.5 Q-103.35 -284.9 -92.3 -253.05 -88.4 -241.75 -81.3 -238.1 -77.95 -172.9 -55.85 -112.45 -38.35 -81.5 -35.45 -46.2 -29.35 26.7 -37.3 99.15 -43.65 156.85 -26.25 209.0 -27.55 215.85 -28.2 222.85 L-30.4 226.4 -33.35 224.4 Q-30.55 221.45 -38.4 217.9 -39.8 218.3 -41.3 220.1 -44.95 224.35 -46.35 229.4 L-50.05 228.35 Q-49.8 227.5 -49.9 227.45 -53.65 225.6 -57.8 224.5 -61.95 226.1 -64.25 230.85 -67.75 237.8 -65.05 244.85 L-76.5 252.45 Q-91.55 230.3 -87.85 205.2 -89.05 205.2 -89.15 205.55 -97.8 236.85 -77.65 264.1 -81.0 269.95 -86.85 274.05 -108.65 271.2 -124.2 264.65 L-124.1 266.3 Q-123.1 274.3 -126.6 281.2 L-134.85 283.4 Q-150.95 274.05 -163.45 260.25 L-170.25 260.8 -170.9 262.4 Q-172.9 266.2 -173.15 270.75 L-176.05 274.05 Q-176.45 281.35 -182.85 285.05 -193.65 282.65 -198.85 272.4 -198.85 271.55 -199.0 270.75 -200.3 264.15 -202.25 257.5 -206.2 253.3 -210.95 256.4 -242.5 276.25 -279.8 266.85 L-271.45 255.65 -271.05 255.3 -270.95 254.95 Q-257.65 237.45 -243.45 220.65 L-243.35 219.0 Q-242.45 212.55 -244.9 207.4 -252.9 208.8 -248.3 215.65 -260.45 231.05 -271.8 247.4 -273.05 246.4 -274.25 246.55 -279.2 236.95 -287.55 229.45 -289.35 229.0 -289.2 229.75 L-288.2 233.95 Q-290.3 233.0 -292.45 232.15 -294.25 225.55 -298.55 219.8 -302.15 215.0 -304.05 209.8 -304.75 207.95 -305.95 206.3 L-308.4 203.0 Q-310.7 195.1 -316.1 188.5 -319.85 183.9 -321.6 178.45 -322.2 176.6 -323.5 175.0 L-326.35 171.65 -326.75 169.95 Q-336.55 119.25 -340.95 66.6 L-338.45 63.75 -341.05 65.1 -342.75 41.3 Q-347.45 -39.95 -299.65 -100.9 L-299.5 -108.05 Q-293.35 -118.5 -299.55 -125.05 -300.0 -145.55 -302.25 -165.45 -303.55 -176.85 -306.45 -187.65 -314.65 -217.85 -302.1 -244.6 L-301.7 -246.25 -301.6 -247.9 -300.9 -250.8 Q-286.45 -276.0 -266.7 -297.4 -250.05 -315.45 -224.55 -321.65 L-209.5 -322.05 -204.1 -322.05 -210.95 -316.15 Q-218.65 -315.25 -221.15 -309.55 -216.8 -306.35 -211.6 -308.25 -209.85 -308.9 -208.05 -310.1 -201.45 -315.8 -194.95 -321.75 -171.6 -320.3 -149.5 -312.85 -176.95 -299.75 -207.55 -300.2 -196.7 -297.5 -186.1 -297.5 -163.5 -297.55 -142.0 -310.15 M-158.6 -275.95 L-158.4 -276.8 Q-172.15 -281.6 -184.8 -290.25 L-186.1 -290.35 Q-187.8 -290.15 -187.75 -288.1 -187.55 -280.7 -178.5 -280.35 L-178.0 -279.8 -177.05 -278.7 -175.55 -277.05 Q-166.45 -272.55 -158.6 -275.95" fill="url(#gradient3)" fill-rule="evenodd" stroke="none"/>
    <path d="M-158.6 -275.95 Q-166.45 -272.55 -175.55 -277.05 L-177.05 -278.7 -178.0 -279.8 -178.5 -280.35 Q-187.55 -280.7 -187.75 -288.1 -187.8 -290.15 -186.1 -290.35 L-184.8 -290.25 Q-172.15 -281.6 -158.4 -276.8 L-158.6 -275.95" fill="url(#gradient4)" fill-rule="evenodd" stroke="none"/>
    <path d="M-196.0 -329.5 L-191.1 -334.3 -185.75 -335.95 Q-174.6 -352.1 -171.7 -369.45 L-171.2 -369.55 Q-167.25 -356.0 -173.5 -343.05 L-174.1 -341.45 -187.2 -328.9 -194.95 -321.75 Q-201.45 -315.8 -208.05 -310.1 -209.85 -308.9 -211.6 -308.25 -216.8 -306.35 -221.15 -309.55 -218.65 -315.25 -210.95 -316.15 L-204.1 -322.05 -196.0 -329.5" fill="url(#gradient5)" fill-rule="evenodd" stroke="none"/>
    <path d="M-49.2 -128.35 L-55.35 -124.0 -55.6 -125.6 -60.75 -144.75 -49.2 -128.35 M-342.55 -57.45 L-317.9 -85.65 Q-325.0 -68.1 -335.55 -51.35 -348.8 -5.1 -346.5 46.15 L-345.3 67.35 Q-360.15 75.25 -377.65 85.95 -417.55 110.3 -459.9 102.95 L-466.8 101.55 -468.35 101.15 Q-470.75 91.85 -463.15 82.85 L-459.9 79.05 Q-401.95 10.75 -342.55 -57.45" fill="url(#gradient6)" fill-rule="evenodd" stroke="none"/>
    <path d="M-290.55 241.2 Q-289.75 242.1 -288.5 242.65 L-286.85 241.3 Q-286.35 240.7 -286.1 239.9 L-286.05 239.85 Q-282.8 246.95 -277.25 249.55 L-277.25 249.8 -277.25 251.4 Q-277.35 252.3 -277.85 253.1 -292.55 260.05 -308.65 253.35 -327.1 245.7 -342.8 233.3 L-313.25 234.25 -294.35 235.5 Q-292.65 236.85 -291.35 238.55 -290.95 239.05 -290.95 239.9 -290.95 240.7 -290.55 241.2" fill="url(#gradient7)" fill-rule="evenodd" stroke="none"/>
  </g>
  <defs>
    <radialGradient cx="0" cy="0" gradientTransform="matrix(0.2792, 0.0, 0.0, 0.2792, -30.65, -100.9)" gradientUnits="userSpaceOnUse" id="gradient0" r="819.2" spreadMethod="pad">
      <stop offset="0.0" stop-color="#ffffff"/>
      <stop offset="1.0" stop-color="#000000"/>
    </radialGradient>
    <linearGradient gradientTransform="matrix(0.0531, 0.0, 0.0, 0.0303, -33.0, 244.95)" gradientUnits="userSpaceOnUse" id="gradient1" spreadMethod="pad" x1="-819.2" x2="819.2">
      <stop offset="0.0" stop-color="#fc6514"/>
      <stop offset="0.403921568627451" stop-color="#efa427"/>
      <stop offset="1.0" stop-color="#cfa205"/>
    </linearGradient>
    <radialGradient cx="0" cy="0" gradientTransform="matrix(0.0575, 0.0, 0.0, 0.0575, -165.9, -320.3)" gradientUnits="userSpaceOnUse" id="gradient2" r="819.2" spreadMethod="pad">
      <stop offset="0.0" stop-color="#ffffff"/>
      <stop offset="1.0" stop-color="#000000"/>
    </radialGradient>
    <radialGradient cx="0" cy="0" gradientTransform="matrix(0.4055, 0.0, 0.0, 0.4055, -181.9, -43.65)" gradientUnits="userSpaceOnUse" id="gradient3" r="819.2" spreadMethod="pad">
      <stop offset="0.0" stop-color="#ffffff"/>
      <stop offset="1.0" stop-color="#000000"/>
    </radialGradient>
    <radialGradient cx="0" cy="0" gradientTransform="matrix(0.02, 0.0, 0.0, 0.02, -173.05, -282.4)" gradientUnits="userSpaceOnUse" id="gradient4" r="819.2" spreadMethod="pad">
      <stop offset="0.0" stop-color="#ffffff"/>
      <stop offset="1.0" stop-color="#000000"/>
    </radialGradient>
    <radialGradient cx="0" cy="0" gradientTransform="matrix(0.0483, 0.0, 0.0, 0.0483, -195.4, -338.55)" gradientUnits="userSpaceOnUse" id="gradient5" r="819.2" spreadMethod="pad">
      <stop offset="0.0" stop-color="#ffffff"/>
      <stop offset="1.0" stop-color="#000000"/>
    </radialGradient>
    <radialGradient cx="0" cy="0" gradientTransform="matrix(0.2059, 0.0, 0.0, 0.2059, -356.4, -26.0)" gradientUnits="userSpaceOnUse" id="gradient6" r="819.2" spreadMethod="pad">
      <stop offset="0.0" stop-color="#ffffff"/>
      <stop offset="1.0" stop-color="#000000"/>
    </radialGradient>
    <linearGradient gradientTransform="matrix(0.04, 0.0, 0.0, 0.0143, -310.0, 244.95)" gradientUnits="userSpaceOnUse" id="gradient7" spreadMethod="pad" x1="-819.2" x2="819.2">
      <stop offset="0.0" stop-color="#fc6514"/>
      <stop offset="0.403921568627451" stop-color="#efa427"/>
      <stop offset="1.0" stop-color="#cfa205"/>
    </linearGradient>
  </defs>
</svg>
