<?xml version="1.0" encoding="UTF-8" standalone="no"?>
<svg xmlns:xlink="http://www.w3.org/1999/xlink" height="660.65px" width="563.2px" xmlns="http://www.w3.org/2000/svg">
  <g transform="matrix(1.0, 0.0, 0.0, 1.0, 475.15, 369.55)">
    <path d="M-317.3 267.15 L-317.2 268.0 Q-317.7 269.65 -318.6 269.9 L-335.3 274.65 Q-375.4 285.35 -403.55 261.55 -421.5 246.4 -440.3 244.3 -440.3 243.5 -439.9 243.05 -414.15 217.1 -375.05 222.15 -364.4 191.7 -358.35 159.45 -350.9 119.85 -357.95 79.65 -361.0 62.15 -362.4 45.0 -381.75 70.1 -410.25 85.2 -421.2 91.4 -432.55 97.3 -451.9 104.25 -470.85 105.55 -481.6 74.75 -465.4 47.55 -429.9 -12.0 -390.9 -67.85 L-389.9 -71.15 -388.95 -74.45 -387.5 -76.15 Q-357.1 -112.85 -326.4 -147.15 L-325.75 -147.0 Q-312.7 -199.0 -307.0 -252.85 -305.25 -253.3 -305.25 -252.3 L-305.65 -240.2 Q-301.2 -264.95 -283.6 -285.35 -268.65 -302.7 -250.2 -313.25 L-250.15 -313.3 -245.1 -310.15 -253.2 -306.8 -253.7 -306.25 -254.65 -305.15 -256.1 -303.5 Q-283.75 -284.9 -294.8 -253.05 -298.7 -241.75 -305.75 -238.1 -309.15 -172.9 -331.25 -112.45 -348.75 -81.5 -351.65 -46.2 -357.75 26.7 -349.8 99.15 -343.45 156.85 -360.8 209.0 -359.55 215.85 -358.9 222.85 L-356.7 226.4 Q-353.95 230.5 -350.65 234.4 L-350.35 236.05 -350.15 241.0 Q-359.4 238.5 -364.7 222.85 L-364.8 221.2 -364.8 221.0 -364.9 220.15 -365.25 221.05 Q-371.9 236.75 -382.15 241.0 L-377.5 229.05 -400.3 230.6 Q-414.0 232.1 -426.85 238.2 L-428.2 238.8 -427.4 239.25 -427.35 239.25 Q-426.8 239.5 -426.2 239.7 -414.65 243.6 -404.25 250.05 -401.05 252.0 -397.65 253.65 -392.9 260.3 -384.85 263.35 -353.6 275.25 -330.0 265.2 L-324.45 262.45 Q-322.75 262.75 -321.35 263.5 -319.15 264.65 -317.6 266.65 L-317.3 267.15 M-244.4 -316.4 Q-224.1 -326.55 -199.9 -328.9 L-192.1 -321.75 Q-215.5 -320.3 -237.55 -312.85 L-244.4 -316.4 M-191.05 -329.5 Q-177.4 -330.05 -162.55 -328.25 L-159.6 -326.7 Q-151.65 -322.8 -143.2 -320.5 L-135.45 -318.3 -130.1 -316.7 -112.85 -297.7 Q-103.2 -287.4 -95.7 -275.95 -93.35 -272.4 -90.35 -269.35 L-90.35 -267.7 -90.2 -266.05 -89.85 -264.4 -89.4 -263.95 Q-83.4 -257.5 -81.4 -249.35 -69.7 -201.35 -79.45 -148.55 -82.4 -132.55 -78.85 -116.6 -77.1 -108.7 -74.65 -100.95 L-72.1 -97.85 72.8 71.85 86.1 87.4 86.3 89.0 88.05 97.3 Q87.75 102.8 83.3 103.9 L72.8 106.25 Q4.85 119.3 -42.05 71.0 -45.85 123.15 -55.45 173.3 -57.75 175.5 -59.3 178.25 -72.8 201.45 -84.6 226.1 L-86.4 229.35 Q-66.0 223.5 -42.35 226.7 L-42.25 227.05 -40.4 227.7 Q-35.8 228.6 -31.4 230.05 -30.7 230.25 -30.25 231.1 -36.0 237.55 -44.85 242.5 -73.75 258.7 -105.6 261.7 L-100.05 270.2 Q-146.9 281.25 -181.45 263.0 -181.85 282.25 -199.9 291.1 L-208.15 289.45 Q-217.2 278.6 -221.2 266.85 -225.65 271.8 -232.35 275.15 L-234.8 280.1 Q-247.25 289.3 -261.45 288.35 -269.0 280.8 -267.75 270.2 -286.95 286.45 -308.45 276.25 L-314.3 266.3 -314.35 264.7 Q-314.65 260.45 -313.8 256.4 L-312.1 254.6 -310.55 252.45 Q-295.55 230.3 -299.25 205.2 -298.05 205.2 -297.95 205.55 -289.3 236.85 -309.45 264.1 -306.1 269.95 -300.25 274.05 -278.45 271.2 -262.9 264.65 L-263.0 266.3 Q-264.0 274.3 -260.5 281.2 L-252.25 283.4 Q-236.15 274.05 -223.65 260.25 L-216.85 260.8 -216.2 262.4 Q-214.2 266.2 -213.95 270.75 L-211.05 274.05 Q-210.65 281.35 -204.25 285.05 -193.45 282.65 -188.25 272.4 L-188.1 270.75 Q-186.8 264.15 -184.85 257.5 -180.9 253.3 -176.15 256.4 -144.6 276.25 -107.3 266.85 L-115.6 255.65 -116.05 255.3 -116.15 254.95 Q-129.45 237.45 -143.65 220.65 L-143.75 219.0 Q-144.65 212.55 -142.2 207.4 -134.2 208.8 -138.8 215.65 -126.65 231.05 -115.25 247.4 -114.05 246.4 -112.85 246.55 -107.9 236.95 -99.55 229.45 -97.75 229.0 -97.9 229.75 L-98.9 233.95 -94.65 232.15 Q-92.85 225.55 -88.55 219.8 -84.95 215.0 -83.05 209.8 -82.35 207.95 -81.15 206.3 L-78.7 203.0 Q-76.4 195.1 -71.0 188.5 -67.25 183.9 -65.5 178.45 -64.9 176.6 -63.6 175.0 L-60.75 171.65 -60.35 169.95 Q-50.55 119.25 -46.15 66.6 L-48.65 63.75 -46.0 65.1 Q-45.05 53.25 -44.35 41.3 -39.65 -39.95 -87.45 -100.9 L-87.6 -108.05 Q-93.75 -118.5 -87.55 -125.05 -87.1 -145.55 -84.85 -165.45 -83.55 -176.85 -80.65 -187.65 -72.45 -217.85 -85.0 -244.6 L-85.4 -246.25 -85.5 -247.9 -85.5 -249.55 -86.2 -250.8 Q-100.65 -276.0 -120.4 -297.4 -137.05 -315.45 -162.55 -321.65 L-177.6 -322.05 -182.95 -322.05 -191.05 -329.5 M-331.75 -124.0 L-331.5 -125.6 Q-328.8 -135.15 -326.35 -144.75 -331.9 -136.55 -337.9 -128.35 -358.65 -100.0 -384.6 -71.7 L-384.9 -70.05 -385.05 -66.75 Q-387.95 -63.45 -390.35 -59.8 -425.55 -6.0 -459.7 48.85 -461.1 54.9 -464.4 60.5 -475.05 78.5 -466.5 98.4 -439.4 97.25 -411.7 79.7 -382.55 63.85 -363.25 35.65 L-363.1 34.7 Q-367.55 -49.1 -331.75 -124.0 M-44.55 -57.45 L-69.2 -85.65 Q-62.1 -68.1 -51.55 -51.35 -38.3 -5.1 -40.6 46.15 L-41.8 67.35 Q-26.95 75.25 -9.45 85.95 30.45 110.3 72.8 102.95 L79.7 101.55 81.25 101.15 Q83.65 91.85 76.05 82.85 L72.8 79.05 Q14.85 10.75 -44.55 -57.45 M-322.05 244.85 L-322.1 244.85 Q-327.25 244.8 -328.4 239.9 -329.3 235.8 -329.8 231.1 -333.2 230.25 -336.45 229.05 L-337.05 228.35 -337.2 227.45 Q-333.45 225.6 -329.3 224.5 -325.15 226.1 -322.85 230.85 -319.35 237.8 -322.05 244.85 M-340.75 229.4 L-340.6 229.95 -340.0 233.3 -338.65 235.0 -336.6 238.25 -336.3 239.8 Q-333.75 246.3 -337.05 249.25 -339.0 247.9 -339.6 246.05 -341.95 238.6 -345.55 232.15 -347.45 228.75 -349.65 225.6 -350.4 226.4 -350.7 226.3 -352.8 225.4 -353.75 224.4 -356.55 221.45 -348.7 217.9 -347.3 218.3 -345.8 220.1 -342.15 224.35 -340.75 229.4 M-44.3 233.3 L-73.85 234.25 -92.75 235.5 Q-94.45 236.85 -95.75 238.55 -96.15 239.05 -96.15 239.9 -96.15 240.7 -96.55 241.2 -97.35 242.1 -98.6 242.65 L-100.25 241.3 -101.0 239.9 -101.0 239.85 Q-104.3 246.95 -109.8 249.55 L-109.85 249.8 -109.85 251.4 Q-109.75 252.3 -109.25 253.1 -94.55 260.05 -78.45 253.35 -60.0 245.7 -44.3 233.3" fill="#000000" fill-rule="evenodd" stroke="none"/>
    <path d="M-331.75 -124.0 L-337.9 -128.35 Q-331.9 -136.55 -326.35 -144.75 -328.8 -135.15 -331.5 -125.6 L-331.75 -124.0 M-44.55 -57.45 Q14.85 10.75 72.8 79.05 L76.05 82.85 Q83.65 91.85 81.25 101.15 L79.7 101.55 72.8 102.95 Q30.45 110.3 -9.45 85.95 -26.95 75.25 -41.8 67.35 L-40.6 46.15 Q-38.3 -5.1 -51.55 -51.35 -62.1 -68.1 -69.2 -85.65 L-44.55 -57.45" fill="url(#gradient0)" fill-rule="evenodd" stroke="none"/>
    <path d="M-337.9 -128.35 L-331.75 -124.0 Q-367.55 -49.1 -363.1 34.7 L-363.25 35.65 Q-382.55 63.85 -411.7 79.7 -439.4 97.25 -466.5 98.4 -475.05 78.5 -464.4 60.5 -461.1 54.9 -459.7 48.85 -425.55 -6.0 -390.35 -59.8 -387.95 -63.45 -385.05 -66.75 L-384.9 -70.05 -384.6 -71.7 Q-358.65 -100.0 -337.9 -128.35" fill="url(#gradient1)" fill-rule="evenodd" stroke="none"/>
    <path d="M-356.7 226.4 L-358.9 222.85 Q-359.55 215.85 -360.8 209.0 -343.45 156.85 -349.8 99.15 -357.75 26.7 -351.65 -46.2 -348.75 -81.5 -331.25 -112.45 -309.15 -172.9 -305.75 -238.1 -298.7 -241.75 -294.8 -253.05 -283.75 -284.9 -256.1 -303.5 L-254.65 -305.15 -253.7 -306.25 -253.2 -306.8 -245.1 -310.15 Q-223.6 -297.55 -200.95 -297.5 -190.4 -297.5 -179.55 -300.2 -210.15 -299.75 -237.55 -312.85 -215.5 -320.3 -192.1 -321.75 L-179.05 -310.1 Q-177.25 -308.9 -175.5 -308.25 -170.3 -306.35 -165.95 -309.55 -168.45 -315.25 -176.15 -316.15 L-182.95 -322.05 -177.6 -322.05 -162.55 -321.65 Q-137.05 -315.45 -120.4 -297.4 -100.65 -276.0 -86.2 -250.8 L-85.5 -247.9 -85.4 -246.25 -85.0 -244.6 Q-72.45 -217.85 -80.65 -187.65 -83.55 -176.85 -84.85 -165.45 -87.1 -145.55 -87.55 -125.05 -93.75 -118.5 -87.6 -108.05 L-87.45 -100.9 Q-39.65 -39.95 -44.35 41.3 -45.05 53.25 -46.0 65.1 L-48.65 63.75 -46.15 66.6 Q-50.55 119.25 -60.35 169.95 L-60.75 171.65 -63.6 175.0 Q-64.9 176.6 -65.5 178.45 -67.25 183.9 -71.0 188.5 -76.4 195.1 -78.7 203.0 L-81.15 206.3 Q-82.35 207.95 -83.05 209.8 -84.95 215.0 -88.55 219.8 -92.85 225.55 -94.65 232.15 L-98.9 233.95 -97.9 229.75 Q-97.75 229.0 -99.55 229.45 -107.9 236.95 -112.85 246.55 -114.05 246.4 -115.25 247.4 -126.65 231.05 -138.8 215.65 -134.2 208.8 -142.2 207.4 -144.65 212.55 -143.75 219.0 L-143.65 220.65 Q-129.45 237.45 -116.15 254.95 L-116.05 255.3 -115.6 255.65 -107.3 266.85 Q-144.6 276.25 -176.15 256.4 -180.9 253.3 -184.85 257.5 -186.8 264.15 -188.1 270.75 L-188.25 272.4 Q-193.45 282.65 -204.25 285.05 -210.65 281.35 -211.05 274.05 L-213.95 270.75 Q-214.2 266.2 -216.2 262.4 L-216.85 260.8 -223.65 260.25 Q-236.15 274.05 -252.25 283.4 L-260.5 281.2 Q-264.0 274.3 -263.0 266.3 L-262.9 264.65 Q-278.45 271.2 -300.25 274.05 -306.1 269.95 -309.45 264.1 -289.3 236.85 -297.95 205.55 -298.05 205.2 -299.25 205.2 -295.55 230.3 -310.55 252.45 L-322.05 244.85 Q-319.35 237.8 -322.85 230.85 -325.15 226.1 -329.3 224.5 -333.45 225.6 -337.2 227.45 L-337.05 228.35 -340.75 229.4 Q-342.15 224.35 -345.8 220.1 -347.3 218.3 -348.7 217.9 -356.55 221.45 -353.75 224.4 L-356.7 226.4 M-202.3 -290.25 Q-214.95 -281.6 -228.7 -276.8 L-228.5 -275.95 Q-220.65 -272.55 -211.55 -277.05 L-210.05 -278.7 -209.1 -279.8 -208.6 -280.35 Q-199.55 -280.7 -199.35 -288.1 -199.25 -290.15 -200.95 -290.35 L-202.3 -290.25" fill="url(#gradient2)" fill-rule="evenodd" stroke="none"/>
    <path d="M-199.9 -328.9 L-213.0 -341.45 -213.6 -343.05 Q-219.85 -356.0 -215.9 -369.55 L-215.4 -369.45 Q-212.5 -352.1 -201.35 -335.95 L-196.0 -334.3 -191.05 -329.5 -182.95 -322.05 -176.15 -316.15 Q-168.45 -315.25 -165.95 -309.55 -170.3 -306.35 -175.5 -308.25 -177.25 -308.9 -179.05 -310.1 L-192.1 -321.75 -199.9 -328.9" fill="url(#gradient3)" fill-rule="evenodd" stroke="none"/>
    <path d="M-245.1 -310.15 L-250.15 -313.3 -250.3 -313.4 Q-253.1 -319.55 -258.55 -323.3 -258.8 -324.15 -259.2 -324.9 -264.1 -334.35 -262.4 -343.1 L-261.65 -342.9 Q-254.9 -337.65 -254.65 -327.7 -249.45 -323.65 -246.9 -317.8 L-244.4 -316.4 -237.55 -312.85 Q-210.15 -299.75 -179.55 -300.2 -190.4 -297.5 -200.95 -297.5 -223.6 -297.55 -245.1 -310.15" fill="url(#gradient4)" fill-rule="evenodd" stroke="none"/>
    <path d="M-202.3 -290.25 L-200.95 -290.35 Q-199.25 -290.15 -199.35 -288.1 -199.55 -280.7 -208.6 -280.35 L-209.1 -279.8 -210.05 -278.7 -211.55 -277.05 Q-220.65 -272.55 -228.5 -275.95 L-228.7 -276.8 Q-214.95 -281.6 -202.3 -290.25" fill="url(#gradient5)" fill-rule="evenodd" stroke="none"/>
    <path d="M-317.3 267.15 L-317.6 266.65 Q-319.15 264.65 -321.35 263.5 -322.75 262.75 -324.45 262.45 L-330.0 265.2 Q-353.6 275.25 -384.85 263.35 -392.9 260.3 -397.65 253.65 -401.05 252.0 -404.25 250.05 -414.65 243.6 -426.2 239.7 -426.8 239.5 -427.35 239.25 L-427.4 239.25 -428.2 238.8 -426.85 238.2 Q-414.0 232.1 -400.3 230.6 L-377.5 229.05 -382.15 241.0 Q-371.9 236.75 -365.25 221.05 L-364.9 220.15 -364.8 221.0 -364.8 221.2 -364.7 222.85 Q-359.4 238.5 -350.15 241.0 L-350.35 236.05 -350.65 234.4 Q-353.95 230.5 -356.7 226.4 L-353.75 224.4 Q-352.8 225.4 -350.7 226.3 -350.4 226.4 -349.65 225.6 -347.45 228.75 -345.55 232.15 -341.95 238.6 -339.6 246.05 -339.0 247.9 -337.05 249.25 -333.75 246.3 -336.3 239.8 L-336.6 238.25 -338.65 235.0 -340.0 233.3 -340.6 229.95 -340.75 229.4 -337.05 228.35 -336.45 229.05 Q-333.2 230.25 -329.8 231.1 -329.3 235.8 -328.4 239.9 -327.25 244.8 -322.1 244.85 L-322.05 244.85 -310.55 252.45 -312.1 254.6 -313.8 256.4 Q-314.65 260.45 -314.35 264.7 L-314.3 266.3 -317.3 267.15" fill="url(#gradient6)" fill-rule="evenodd" stroke="none"/>
    <path d="M-44.3 233.3 Q-60.0 245.7 -78.45 253.35 -94.55 260.05 -109.25 253.1 -109.75 252.3 -109.85 251.4 L-109.85 249.8 -109.8 249.55 Q-104.3 246.95 -101.0 239.85 L-101.0 239.9 -100.25 241.3 -98.6 242.65 Q-97.35 242.1 -96.55 241.2 -96.15 240.7 -96.15 239.9 -96.15 239.05 -95.75 238.55 -94.45 236.85 -92.75 235.5 L-73.85 234.25 -44.3 233.3" fill="url(#gradient7)" fill-rule="evenodd" stroke="none"/>
  </g>
  <defs>
    <radialGradient cx="0" cy="0" gradientTransform="matrix(-0.2059, 0.0, 0.0, 0.2059, -30.7, -26.0)" gradientUnits="userSpaceOnUse" id="gradient0" r="819.2" spreadMethod="pad">
      <stop offset="0.0" stop-color="#ffffff"/>
      <stop offset="1.0" stop-color="#000000"/>
    </radialGradient>
    <radialGradient cx="0" cy="0" gradientTransform="matrix(-0.2792, 0.0, 0.0, 0.2792, -356.45, -100.9)" gradientUnits="userSpaceOnUse" id="gradient1" r="819.2" spreadMethod="pad">
      <stop offset="0.0" stop-color="#ffffff"/>
      <stop offset="1.0" stop-color="#000000"/>
    </radialGradient>
    <radialGradient cx="0" cy="0" gradientTransform="matrix(-0.4055, 0.0, 0.0, 0.4055, -205.2, -43.65)" gradientUnits="userSpaceOnUse" id="gradient2" r="819.2" spreadMethod="pad">
      <stop offset="0.0" stop-color="#ffffff"/>
      <stop offset="1.0" stop-color="#000000"/>
    </radialGradient>
    <radialGradient cx="0" cy="0" gradientTransform="matrix(-0.0483, 0.0, 0.0, 0.0483, -191.7, -338.55)" gradientUnits="userSpaceOnUse" id="gradient3" r="819.2" spreadMethod="pad">
      <stop offset="0.0" stop-color="#ffffff"/>
      <stop offset="1.0" stop-color="#000000"/>
    </radialGradient>
    <radialGradient cx="0" cy="0" gradientTransform="matrix(-0.0575, 0.0, 0.0, 0.0575, -221.2, -320.3)" gradientUnits="userSpaceOnUse" id="gradient4" r="819.2" spreadMethod="pad">
      <stop offset="0.0" stop-color="#ffffff"/>
      <stop offset="1.0" stop-color="#000000"/>
    </radialGradient>
    <radialGradient cx="0" cy="0" gradientTransform="matrix(-0.02, 0.0, 0.0, 0.02, -214.05, -282.4)" gradientUnits="userSpaceOnUse" id="gradient5" r="819.2" spreadMethod="pad">
      <stop offset="0.0" stop-color="#ffffff"/>
      <stop offset="1.0" stop-color="#000000"/>
    </radialGradient>
    <linearGradient gradientTransform="matrix(-0.0531, 0.0, 0.0, 0.0303, -354.1, 244.95)" gradientUnits="userSpaceOnUse" id="gradient6" spreadMethod="pad" x1="-819.2" x2="819.2">
      <stop offset="0.0" stop-color="#fc6514"/>
      <stop offset="0.403921568627451" stop-color="#efa427"/>
      <stop offset="1.0" stop-color="#cfa205"/>
    </linearGradient>
    <linearGradient gradientTransform="matrix(-0.04, 0.0, 0.0, 0.0143, -77.1, 244.95)" gradientUnits="userSpaceOnUse" id="gradient7" spreadMethod="pad" x1="-819.2" x2="819.2">
      <stop offset="0.0" stop-color="#fc6514"/>
      <stop offset="0.403921568627451" stop-color="#efa427"/>
      <stop offset="1.0" stop-color="#cfa205"/>
    </linearGradient>
  </defs>
</svg>
