<?xml version="1.0" encoding="UTF-8" standalone="no"?>
<svg xmlns:xlink="http://www.w3.org/1999/xlink" height="668.8px" width="563.2px" xmlns="http://www.w3.org/2000/svg">
  <g transform="matrix(1.0, 0.0, 0.0, 1.0, 461.65, 406.05)">
    <path d="M-324.4 -144.35 Q-345.15 -116.0 -371.1 -87.7 L-371.4 -86.05 -371.55 -82.75 Q-374.45 -79.45 -376.85 -75.8 -412.05 -22.0 -446.2 32.85 -447.6 38.9 -450.9 44.5 -461.55 62.5 -453.0 82.4 -425.9 81.25 -398.2 63.7 -369.05 47.85 -349.75 19.65 L-349.6 18.7 -349.85 13.4 Q-344.5 9.65 -340.8 4.6 L-340.8 5.55 -340.0 3.45 Q-334.6 -4.55 -333.0 -15.65 -324.6 -44.1 -312.9 -71.95 -311.8 -74.65 -309.65 -76.7 -305.4 -97.2 -297.55 -116.2 -296.7 -118.3 -294.85 -119.8 -294.35 -123.65 -292.3 -126.95 -291.05 -129.05 -289.4 -130.85 -283.7 -148.25 -294.35 -163.95 L-297.35 -167.8 Q-301.65 -167.1 -306.15 -165.3 L-307.35 -160.75 -309.25 -160.3 -311.45 -159.55 Q-312.6 -158.8 -313.6 -157.85 L-312.85 -160.75 -324.4 -144.35 M-331.1 196.3 Q-334.65 194.3 -337.55 190.9 -340.2 187.75 -342.3 183.4 -342.85 175.3 -350.1 167.8 L-348.8 162.25 Q-350.8 153.15 -352.05 144.1 -361.4 118.15 -354.7 87.65 -353.6 82.6 -351.95 77.8 L-351.35 73.65 -352.1 72.25 -353.05 70.95 Q-354.5 62.4 -352.65 53.65 -351.4 47.75 -348.0 42.65 L-347.55 42.4 -348.9 29.0 Q-368.25 54.1 -396.75 69.2 -407.7 75.4 -419.05 81.3 -438.4 88.25 -457.35 89.55 -468.1 58.75 -451.9 31.55 -416.4 -28.0 -377.4 -83.85 L-376.4 -87.15 -375.45 -90.45 -374.0 -92.15 Q-343.6 -128.85 -312.9 -163.15 L-312.25 -163.0 Q-299.2 -215.0 -293.5 -268.85 -291.75 -269.3 -291.75 -268.3 L-292.15 -256.2 Q-287.7 -280.95 -270.1 -301.35 -257.05 -316.5 -241.35 -326.45 L-241.4 -326.55 Q-237.45 -333.8 -228.4 -336.1 L-226.2 -336.8 Q-223.7 -337.15 -222.15 -336.3 -205.5 -343.05 -186.4 -344.9 L-183.65 -342.35 -176.55 -344.55 -177.55 -345.5 -173.05 -345.6 -169.85 -346.65 Q-165.05 -348.2 -162.05 -345.4 L-149.05 -344.25 -146.1 -342.7 Q-138.15 -338.8 -129.7 -336.5 L-121.95 -334.3 -116.6 -332.7 -99.35 -313.7 Q-89.7 -303.4 -82.2 -291.95 -79.85 -288.4 -76.85 -285.35 L-76.85 -283.7 -76.7 -282.05 -76.35 -280.4 -75.9 -279.95 Q-69.9 -273.5 -67.9 -265.35 -60.7 -235.85 -61.6 -204.55 L-61.25 -204.1 Q-59.45 -201.9 -58.6 -198.95 -58.45 -198.35 -58.6 -198.25 -60.15 -197.25 -61.95 -196.65 -62.95 -180.85 -65.95 -164.55 -68.9 -148.55 -65.35 -132.6 -63.6 -124.7 -61.15 -116.95 L-58.6 -113.85 86.3 55.85 99.6 71.4 99.8 73.0 101.55 81.3 Q101.25 86.8 96.8 87.9 L86.3 90.25 Q21.75 102.65 -23.8 59.7 L-25.75 58.65 -25.75 57.8 -28.55 55.0 -28.55 55.2 -28.85 59.3 Q-32.75 109.2 -41.95 157.3 -44.25 159.5 -45.8 162.25 -52.7 174.1 -59.15 186.35 L-59.45 186.95 -59.5 186.95 -65.8 199.25 Q-65.9 204.9 -70.2 210.05 L-71.25 211.25 -71.25 216.2 -71.25 217.45 Q-74.0 220.75 -76.3 217.45 -75.55 216.0 -75.2 214.45 -77.1 215.75 -79.0 216.35 -66.15 224.25 -55.8 237.0 -54.35 237.5 -52.95 238.15 L-52.65 238.3 -51.2 240.75 -51.2 240.9 -51.05 241.0 Q-47.1 246.95 -42.35 249.4 -44.85 249.6 -48.15 248.2 -51.3 245.45 -55.35 244.9 L-55.55 244.65 -66.9 244.05 Q-66.8 249.8 -68.85 254.95 L-70.55 259.65 Q-76.75 259.25 -82.8 256.35 L-83.9 255.15 -85.0 253.9 Q-94.75 250.3 -104.15 245.3 -107.15 253.9 -114.9 258.95 L-116.4 260.05 Q-124.4 265.5 -131.2 260.05 -133.6 253.55 -135.3 246.65 -136.05 243.65 -135.55 240.35 -151.3 244.25 -167.5 245.45 L-165.55 241.2 -163.95 239.45 -160.9 239.1 Q-157.55 232.5 -151.35 227.95 -147.85 225.35 -144.95 221.95 -153.55 224.5 -162.45 221.05 -153.85 222.85 -143.95 216.1 L-143.9 215.75 -140.65 212.1 -139.55 210.85 Q-132.05 207.45 -132.0 214.15 -125.05 206.7 -117.55 208.4 L-117.45 210.85 -117.15 212.9 Q-114.05 212.6 -111.75 210.45 -108.2 208.75 -105.95 211.65 -105.75 214.2 -106.45 216.55 L-107.4 219.05 -94.15 207.45 Q-94.05 207.35 -93.35 208.0 -93.4 213.3 -90.15 208.6 L-88.65 207.15 Q-85.1 207.65 -84.7 212.05 L-84.3 212.9 Q-79.55 210.1 -76.45 204.2 -76.2 203.65 -75.25 203.45 -72.75 203.7 -71.7 205.15 L-70.35 202.55 -73.9 202.2 -72.1 199.3 -71.95 199.1 -71.3 197.9 -69.55 193.8 Q-68.85 191.95 -67.65 190.3 L-65.2 187.0 -63.45 182.2 -63.4 182.1 Q-61.15 177.0 -57.5 172.5 L-54.5 168.15 Q-58.6 174.1 -63.7 180.0 L-64.55 180.95 -64.65 181.0 Q-68.0 184.25 -72.0 183.4 -70.15 178.5 -66.15 174.45 -62.35 170.6 -59.7 166.15 L-59.15 164.85 -59.0 163.7 -59.0 162.45 Q-54.75 158.25 -51.45 153.0 -48.9 148.9 -48.85 144.0 L-47.8 142.75 -46.7 141.55 Q-42.45 130.5 -41.7 119.7 -39.35 115.3 -38.0 110.45 -33.95 96.3 -36.05 84.5 -34.1 68.0 -32.7 51.35 L-32.7 51.3 -32.65 50.6 -36.3 47.95 Q-33.4 50.0 -29.55 51.65 -25.05 53.55 -21.35 54.55 L-20.95 55.35 Q-9.2 61.85 4.05 69.95 43.95 94.3 86.3 86.95 L93.2 85.55 94.75 85.15 Q97.15 75.85 89.55 66.85 L86.3 63.05 Q35.7 3.4 -16.0 -56.15 -16.9 -67.6 -28.25 -77.15 L-49.9 -95.05 -55.7 -101.65 -54.5 -98.75 -64.4 -106.65 -64.45 -106.4 -65.9 -106.0 Q-69.75 -111.55 -73.95 -116.9 L-74.1 -124.05 Q-75.55 -126.5 -76.3 -128.75 L-77.4 -129.65 Q-80.05 -132.1 -83.2 -131.3 -87.9 -115.0 -87.6 -97.45 L-87.4 -97.1 -87.15 -96.0 -86.1 -95.15 -84.8 -93.8 Q-84.45 -93.35 -84.35 -92.7 L-84.25 -91.5 Q-84.45 -90.85 -84.85 -90.65 -85.9 -90.05 -87.05 -90.3 -88.05 -90.45 -88.95 -91.1 L-90.75 -92.3 -90.75 -93.55 -90.85 -94.75 -91.1 -96.0 Q-96.8 -106.0 -108.05 -109.05 -115.65 -111.1 -117.85 -105.45 -112.2 -92.7 -102.5 -82.2 -96.3 -75.5 -88.95 -69.75 L-84.65 -57.3 -84.3 -56.35 Q-86.1 -72.45 -87.1 -88.55 -86.3 -79.6 -84.25 -70.35 L-70.85 -10.85 Q-64.7 16.2 -45.15 33.9 -44.0 41.65 -37.65 46.9 -61.05 28.65 -72.1 2.8 -77.85 -10.6 -80.25 -26.1 L-80.65 -28.7 -81.55 -26.2 -88.6 -7.0 Q-82.6 -1.0 -79.4 5.95 -74.05 17.45 -76.45 31.5 -78.75 44.75 -73.05 57.0 L-72.85 57.45 Q-69.55 57.55 -66.6 58.4 -69.3 71.6 -68.15 84.5 -69.55 89.65 -71.7 94.65 -75.05 102.5 -79.0 109.75 -77.75 109.05 -75.25 108.7 -72.9 115.25 -75.7 122.2 L-76.3 123.45 -82.3 133.45 Q-80.55 145.25 -88.35 160.45 L-89.35 162.3 Q-91.95 172.5 -99.0 181.5 L-104.15 181.3 -101.05 177.1 -100.9 176.85 Q-98.6 173.35 -96.95 169.6 -95.0 160.25 -91.35 151.0 -97.45 162.55 -105.75 173.7 L-105.85 173.85 Q-111.65 181.6 -118.5 189.2 L-119.35 190.35 -122.95 191.15 Q-127.65 200.4 -137.05 205.5 -140.0 206.9 -141.75 204.3 -151.55 214.7 -163.3 218.85 -167.25 220.25 -171.35 220.95 -181.8 229.4 -201.75 228.6 -223.05 227.7 -240.15 219.7 -242.25 228.25 -259.15 227.1 L-259.45 227.7 Q-260.05 228.7 -260.0 230.0 -259.95 231.1 -259.4 232.45 L-259.1 231.75 -259.1 231.65 -255.15 232.15 -255.45 232.8 Q-256.55 235.05 -257.35 237.65 -259.1 243.75 -263.45 248.95 L-264.15 249.8 Q-285.45 258.2 -306.65 251.2 L-307.5 250.6 -311.35 252.45 Q-312.2 252.85 -312.9 253.5 L-315.8 255.95 Q-316.5 256.35 -317.25 256.4 L-322.5 255.9 -323.35 255.15 -324.4 252.65 -324.85 251.45 -327.6 245.25 -328.05 244.05 Q-331.15 242.8 -334.3 241.85 -337.8 240.75 -341.4 239.75 -342.15 239.55 -342.9 239.15 L-343.3 239.45 -343.35 239.45 -346.95 241.4 Q-348.65 242.2 -350.25 243.15 -351.75 244.05 -353.0 245.3 L-354.2 246.05 Q-356.4 246.5 -358.65 246.0 L-359.5 245.3 -359.7 244.15 -360.45 242.75 -360.8 241.6 -360.8 237.9 -360.6 236.65 Q-379.55 236.6 -395.6 232.55 -387.65 209.3 -360.65 209.8 L-352.7 210.4 Q-346.8 211.2 -341.95 207.35 L-341.15 206.65 -340.45 206.05 -334.0 201.0 Q-334.05 204.0 -333.05 206.95 L-333.0 207.1 Q-338.25 210.6 -343.2 214.55 L-344.7 215.75 Q-363.75 216.65 -383.35 221.1 -385.8 224.15 -389.05 226.1 -390.95 227.25 -390.9 229.7 -373.65 229.5 -356.25 234.2 -356.05 235.45 -356.3 236.6 L-356.4 237.15 -356.45 237.4 -356.75 239.2 Q-356.8 239.75 -356.25 240.35 -353.5 239.65 -350.6 238.3 L-350.4 238.2 Q-348.95 237.5 -347.4 236.6 -345.4 235.45 -343.25 234.6 -332.95 236.3 -324.1 241.2 L-322.0 245.8 Q-320.9 248.15 -320.85 251.05 -318.45 252.65 -315.85 250.1 L-313.6 247.75 Q-290.15 251.85 -265.6 245.3 L-261.95 237.75 -261.15 236.15 -261.5 236.05 Q-264.45 235.1 -265.85 231.0 -266.95 227.85 -267.05 224.35 L-267.05 221.95 Q-260.3 216.65 -249.75 217.15 -245.2 217.35 -239.95 218.65 L-239.95 218.7 Q-214.2 223.65 -187.8 219.85 -175.15 215.85 -158.7 212.5 -157.05 211.05 -156.25 208.9 L-155.45 207.55 Q-141.35 201.75 -135.25 188.7 -130.25 191.25 -134.95 197.7 L-135.95 198.95 Q-131.6 197.3 -127.65 192.4 L-119.3 168.75 Q-118.55 166.55 -116.45 165.75 -112.75 166.1 -111.75 169.85 -111.35 172.55 -112.55 174.9 L-113.2 176.8 -109.55 171.35 -109.5 171.3 Q-102.15 160.4 -93.85 150.35 L-95.1 150.55 Q-92.05 145.1 -89.35 139.6 -90.2 139.15 -90.75 137.4 L-85.8 132.0 Q-81.8 122.8 -78.85 113.6 -79.9 112.6 -80.15 111.8 L-83.2 116.9 Q-83.15 102.55 -74.7 86.25 -69.2 75.55 -69.8 64.4 L-70.15 64.05 -71.25 64.4 -72.35 63.25 -74.15 62.75 Q-81.75 51.05 -81.35 36.9 L-80.65 12.3 Q-94.25 0.7 -90.15 -14.6 -87.35 -25.25 -82.8 -35.7 -85.75 -61.0 -104.2 -79.4 -116.7 -91.9 -124.0 -107.1 L-123.8 -108.25 Q-123.65 -108.9 -123.1 -109.3 L-120.75 -110.8 -119.3 -111.6 Q-97.5 -114.35 -87.65 -97.55 -88.45 -113.0 -88.5 -128.4 L-88.25 -130.85 Q-87.55 -134.3 -84.6 -136.2 -80.5 -136.15 -77.1 -134.45 -76.8 -138.15 -74.05 -141.05 -73.6 -161.55 -71.35 -181.45 -70.1 -192.4 -67.35 -202.8 -73.5 -210.8 -80.05 -218.25 -83.3 -221.95 -87.5 -221.55 L-89.1 -217.55 -91.85 -219.9 -91.9 -219.65 -96.2 -218.65 Q-97.45 -217.45 -97.9 -215.95 L-97.95 -215.7 Q-100.5 -213.85 -102.3 -211.25 -106.0 -209.6 -109.2 -209.5 L-113.4 -206.55 -114.6 -205.55 Q-115.75 -199.5 -116.25 -193.25 L-116.25 -193.15 Q-114.15 -192.2 -113.25 -189.65 -112.95 -188.9 -112.45 -188.3 L-110.0 -181.0 -108.8 -178.45 Q-109.25 -175.85 -110.05 -173.45 L-110.65 -171.05 -111.3 -170.2 -110.65 -168.6 -110.25 -167.4 Q-107.95 -153.0 -102.0 -137.7 -101.6 -136.6 -101.6 -135.4 -102.75 -133.15 -104.7 -131.55 L-105.2 -130.85 Q-113.2 -131.35 -121.0 -132.9 L-121.1 -132.9 Q-126.65 -132.85 -127.6 -130.05 -127.6 -125.75 -127.9 -121.45 -128.2 -115.85 -129.4 -110.35 L-130.25 -109.2 Q-133.25 -105.85 -135.55 -109.15 -135.15 -111.2 -136.15 -112.9 -138.05 -116.15 -139.15 -119.8 -139.15 -116.7 -138.8 -113.7 -138.2 -108.7 -140.95 -105.05 -145.4 -104.7 -145.8 -110.7 L-146.05 -118.1 -146.0 -120.6 -146.9 -118.1 -150.0 -108.85 Q-151.85 -103.05 -156.5 -101.35 L-157.0 -102.6 Q-157.45 -105.1 -156.8 -107.45 L-156.15 -109.55 Q-157.05 -108.3 -157.15 -107.0 -157.35 -104.15 -159.1 -101.9 L-159.4 -100.9 Q-159.95 -100.3 -160.45 -100.3 L-164.45 -100.9 -164.25 -103.35 Q-163.7 -106.45 -163.7 -109.15 L-164.45 -108.7 Q-167.25 -106.4 -166.6 -102.55 -165.85 -98.3 -168.4 -95.2 -172.9 -94.35 -171.95 -99.75 -171.5 -102.4 -173.1 -104.6 L-172.9 -105.8 Q-172.1 -108.15 -171.65 -110.75 L-171.8 -111.95 -173.1 -116.9 Q-172.55 -118.9 -171.25 -120.55 -169.0 -123.4 -166.25 -124.3 -164.6 -122.9 -164.85 -120.6 L-165.15 -114.45 -165.15 -113.65 -161.5 -119.15 Q-158.3 -124.35 -153.25 -124.3 -152.7 -123.7 -152.6 -123.0 -152.15 -120.6 -152.15 -118.15 L-152.15 -118.1 -152.15 -116.1 Q-151.0 -117.0 -150.3 -118.1 -149.4 -119.55 -149.25 -121.35 -148.8 -126.55 -144.6 -127.6 L-143.75 -126.25 Q-142.8 -123.7 -142.6 -127.6 L-142.4 -128.8 Q-137.95 -129.25 -136.55 -124.25 -135.3 -119.6 -133.0 -115.3 -130.5 -120.3 -131.4 -125.9 -131.95 -129.5 -131.35 -132.2 -135.75 -129.65 -140.6 -129.25 -139.8 -134.7 -131.6 -137.85 L-120.0 -139.05 -118.9 -137.9 -117.5 -136.6 Q-111.45 -133.5 -105.55 -136.6 -104.95 -141.45 -108.45 -145.25 L-109.5 -146.35 -109.15 -144.9 -113.8 -144.75 Q-116.25 -154.65 -117.3 -165.05 -118.6 -164.3 -120.0 -163.7 L-120.15 -163.7 Q-118.65 -164.35 -117.35 -165.35 L-117.85 -171.9 Q-117.95 -173.95 -115.7 -173.55 L-114.75 -173.65 -113.9 -174.35 -114.6 -178.05 Q-115.1 -176.9 -116.4 -176.4 -117.65 -176.6 -118.1 -177.3 -119.5 -179.75 -119.2 -183.0 -119.1 -184.2 -119.65 -185.45 L-119.85 -185.85 Q-120.15 -183.15 -123.2 -182.3 L-124.0 -181.75 Q-125.95 -182.4 -127.75 -183.2 L-127.8 -183.2 -127.85 -183.2 -128.45 -182.45 -128.55 -182.3 -128.75 -182.1 -129.05 -181.75 Q-128.05 -170.1 -146.75 -161.2 -188.0 -141.6 -215.0 -179.3 L-215.0 -179.45 Q-222.45 -181.25 -229.45 -184.6 L-229.45 -185.95 -232.35 -187.5 -232.05 -193.5 Q-236.2 -187.8 -233.9 -179.05 -233.6 -178.05 -234.15 -176.8 -236.8 -176.55 -237.9 -179.35 L-238.15 -180.5 -238.15 -186.65 -238.15 -191.6 -237.25 -192.8 -237.2 -192.85 -237.15 -192.9 -237.1 -193.0 Q-234.1 -197.25 -231.6 -201.8 -230.65 -203.5 -228.4 -203.05 -226.55 -201.85 -225.0 -200.35 L-224.4 -199.4 Q-228.6 -197.4 -231.1 -194.65 L-229.8 -194.85 -227.15 -193.05 Q-225.15 -194.75 -222.6 -195.7 L-221.05 -199.0 Q-220.8 -199.6 -219.7 -199.8 L-219.65 -199.75 Q-215.5 -205.65 -209.35 -210.35 -199.2 -218.05 -187.2 -221.55 L-176.35 -221.3 -175.65 -221.55 -173.4 -221.25 -173.15 -221.25 -173.2 -221.25 Q-144.8 -217.15 -130.95 -189.2 -130.0 -187.3 -128.4 -186.6 L-127.35 -186.3 -127.2 -186.25 Q-126.25 -186.1 -125.1 -186.25 L-125.05 -186.25 -124.0 -187.5 -123.05 -188.8 -122.55 -189.95 -124.0 -192.4 Q-126.8 -197.25 -130.9 -201.35 L-131.2 -202.25 Q-129.8 -207.25 -125.05 -202.3 L-123.25 -200.45 -122.95 -203.75 Q-122.55 -206.2 -121.25 -208.55 -97.05 -213.1 -89.2 -229.85 -87.55 -232.2 -86.05 -235.5 -86.25 -240.55 -81.15 -243.7 L-79.55 -244.1 Q-80.1 -234.7 -86.3 -226.3 L-82.45 -226.05 Q-73.5 -218.4 -65.75 -209.5 -60.15 -236.45 -71.5 -260.6 L-71.9 -262.25 -72.0 -263.9 -72.0 -265.55 -72.7 -266.8 Q-79.3 -278.35 -87.0 -289.05 -96.15 -301.8 -106.9 -313.4 -123.55 -331.45 -149.05 -337.65 L-164.1 -338.05 -164.45 -338.05 Q-177.85 -332.4 -190.45 -335.55 L-190.75 -336.6 Q-206.8 -334.5 -222.25 -329.45 -228.7 -325.05 -236.4 -322.25 L-237.75 -322.05 -239.15 -323.05 -239.7 -322.8 -240.2 -322.25 -241.15 -321.15 -242.6 -319.5 Q-270.25 -300.9 -281.3 -269.05 -285.2 -257.75 -292.25 -254.1 -293.1 -238.55 -294.95 -223.25 -298.2 -196.8 -304.6 -171.15 -303.05 -172.4 -300.95 -173.45 L-299.9 -173.95 -296.3 -173.55 Q-290.5 -166.5 -287.0 -158.55 -286.55 -157.55 -286.55 -156.3 L-285.5 -155.05 -283.65 -152.6 Q-283.65 -144.6 -284.7 -136.75 -285.1 -133.8 -285.1 -130.45 -294.95 -106.95 -304.2 -83.05 -296.3 -96.1 -284.85 -107.65 -281.4 -111.15 -278.2 -113.25 L-266.0 -112.35 Q-264.85 -112.2 -263.8 -111.6 -263.05 -111.0 -262.85 -110.2 L-260.75 -104.1 -260.5 -103.0 Q-278.0 -75.5 -301.3 -51.25 -305.05 -47.4 -306.75 -42.65 -299.0 -17.3 -312.65 6.05 L-316.95 12.6 -317.15 11.9 Q-317.95 6.8 -321.8 4.65 -319.05 -1.05 -315.55 -6.55 -308.9 -16.95 -306.05 -29.15 L-306.15 -30.35 Q-307.15 -35.6 -310.35 -40.2 -301.65 -59.25 -288.0 -76.3 -280.2 -86.05 -270.75 -95.2 -265.7 -100.05 -265.6 -105.45 -265.6 -106.05 -265.9 -106.35 -270.25 -110.8 -276.8 -108.3 -288.8 -97.8 -298.3 -84.55 -300.9 -80.9 -304.45 -82.4 L-319.1 -43.4 -319.1 -43.35 Q-328.05 -18.7 -336.35 6.4 L-337.45 9.85 -338.8 11.15 -340.7 13.55 -340.1 33.0 Q-341.25 36.05 -342.0 39.25 L-340.0 38.2 -338.95 37.75 Q-333.3 40.1 -328.55 44.35 L-327.4 45.55 Q-326.65 49.25 -331.35 48.0 -333.25 45.55 -336.15 44.65 L-338.6 44.3 Q-339.65 46.7 -341.3 48.2 -344.0 50.7 -341.85 52.5 L-343.6 62.65 -342.8 67.5 -343.45 69.6 -343.5 69.3 Q-344.35 71.4 -344.9 73.8 -346.75 94.15 -344.6 116.4 -343.95 122.95 -344.35 130.05 L-346.2 132.45 -346.7 133.1 Q-344.6 146.05 -337.9 155.05 L-340.1 166.5 -340.6 167.15 Q-337.15 182.65 -329.9 196.9 L-331.1 196.3 M-249.7 -273.5 Q-249.75 -276.45 -250.6 -279.1 -251.4 -281.55 -249.35 -282.25 L-245.7 -281.85 -244.8 -279.3 -244.25 -276.9 Q-222.8 -276.45 -208.2 -265.4 L-206.7 -265.4 Q-200.9 -260.65 -198.2 -254.45 -193.55 -243.85 -191.15 -232.2 L-192.3 -231.05 Q-187.5 -233.25 -182.85 -236.3 L-156.15 -235.9 Q-155.05 -235.25 -153.95 -234.7 L-150.65 -232.8 Q-154.1 -243.05 -145.45 -253.8 -138.3 -262.7 -128.05 -265.85 L-128.05 -267.85 -127.6 -268.7 Q-111.45 -270.55 -99.8 -280.2 -96.9 -273.2 -103.4 -267.85 L-104.85 -266.65 -107.5 -266.2 Q-97.3 -256.85 -100.5 -244.05 -106.1 -234.5 -114.3 -226.85 -124.35 -225.15 -127.3 -220.15 L-127.9 -220.05 -127.45 -219.9 -127.9 -218.9 Q-130.25 -218.85 -132.25 -219.7 L-137.75 -220.0 -137.7 -219.9 -136.25 -218.65 -133.7 -215.95 Q-133.4 -215.6 -133.4 -214.95 -134.15 -211.75 -136.55 -214.15 -146.35 -224.05 -158.65 -231.8 -173.9 -231.25 -188.3 -228.2 L-188.65 -228.15 -188.75 -228.1 -188.85 -228.1 Q-200.75 -225.55 -212.1 -221.3 -212.55 -221.1 -212.1 -223.15 L-211.95 -223.55 Q-215.1 -224.35 -218.25 -225.45 L-218.3 -225.6 -219.4 -228.1 Q-238.1 -237.45 -243.5 -257.75 L-242.8 -261.8 -242.3 -263.8 -241.7 -265.85 -242.2 -265.95 Q-242.45 -268.95 -244.65 -271.55 L-246.55 -272.6 -249.35 -273.6 -249.7 -273.5 M-118.2 -259.7 Q-117.7 -261.95 -119.35 -262.1 L-125.5 -260.15 -127.85 -259.0 -129.05 -258.05 Q-131.9 -253.55 -131.9 -248.2 L-131.95 -244.5 Q-117.0 -237.6 -113.15 -252.3 -114.45 -256.25 -117.9 -258.85 -118.2 -259.05 -118.2 -259.7 M-128.35 -223.5 Q-114.25 -227.9 -105.55 -240.0 -105.75 -244.65 -104.45 -248.8 -103.75 -251.05 -103.75 -253.5 L-110.7 -264.1 -112.5 -263.75 -110.35 -259.85 Q-108.25 -255.0 -108.8 -249.4 L-109.3 -248.3 -114.95 -239.6 Q-118.4 -237.65 -122.1 -237.0 L-122.55 -234.25 Q-122.65 -231.35 -124.35 -229.3 -126.25 -226.55 -129.2 -226.15 -132.2 -225.75 -136.25 -227.7 L-137.4 -228.85 Q-139.2 -230.45 -139.9 -232.6 L-139.5 -236.2 Q-138.7 -239.85 -136.65 -241.2 L-134.95 -240.95 -135.2 -241.2 Q-136.8 -249.7 -133.4 -257.0 L-139.5 -254.35 -144.6 -245.55 Q-148.75 -238.6 -147.9 -230.95 -142.9 -227.2 -139.25 -222.2 -138.4 -224.35 -136.05 -223.85 -134.75 -223.55 -134.75 -222.4 L-134.0 -222.1 Q-131.1 -222.65 -128.35 -223.5 M-135.2 -236.3 Q-136.45 -230.25 -128.1 -232.6 L-126.9 -233.4 Q-130.35 -236.55 -134.85 -236.5 L-135.2 -236.3 M-154.65 -208.9 Q-157.45 -214.05 -163.0 -217.0 L-190.45 -213.3 -190.45 -213.7 -193.9 -212.6 Q-206.9 -208.0 -217.5 -198.15 L-216.3 -197.1 -215.75 -196.1 Q-218.4 -192.5 -222.0 -190.05 -212.4 -184.9 -201.6 -182.8 L-193.7 -183.4 Q-182.2 -178.3 -176.05 -167.55 -175.3 -166.15 -174.2 -164.9 -164.45 -171.95 -154.05 -174.75 L-154.35 -176.0 Q-143.05 -179.8 -133.05 -185.8 -142.7 -191.35 -149.75 -201.1 -152.4 -204.7 -154.65 -208.9 M-150.25 -200.75 Q-149.8 -198.2 -147.75 -196.1 L-147.9 -195.3 -148.2 -194.05 Q-154.65 -186.55 -158.65 -192.4 -153.4 -195.45 -150.35 -200.6 L-150.25 -200.75 M-235.35 -217.05 Q-233.65 -206.75 -240.15 -196.4 L-240.65 -195.25 Q-252.1 -181.1 -260.5 -164.9 -263.3 -154.9 -263.4 -144.0 L-263.4 -141.55 -261.1 -139.1 Q-247.2 -139.85 -233.45 -144.4 -221.65 -145.45 -215.0 -137.45 L-213.95 -137.45 Q-210.55 -129.85 -214.1 -120.15 L-214.3 -118.95 -212.45 -120.35 Q-208.15 -123.95 -204.2 -129.25 -200.7 -129.0 -198.75 -125.55 -197.95 -123.3 -197.45 -121.1 L-197.25 -120.05 -195.5 -121.0 -194.45 -121.45 Q-188.5 -113.95 -188.25 -101.9 L-183.7 -112.05 Q-183.4 -112.6 -183.25 -113.25 -181.65 -115.65 -183.25 -118.15 L-179.0 -123.9 Q-178.7 -124.3 -177.8 -124.3 -176.05 -121.2 -176.6 -117.2 L-176.65 -116.9 -176.75 -115.7 Q-179.45 -111.25 -182.5 -107.1 -183.25 -101.95 -185.2 -97.15 L-185.4 -96.0 Q-187.65 -93.25 -189.65 -95.05 -191.4 -90.3 -193.45 -85.55 -193.7 -84.95 -194.45 -84.5 -198.0 -84.1 -197.75 -87.4 L-197.7 -88.6 Q-195.6 -93.1 -192.8 -97.35 -192.45 -97.85 -192.25 -98.45 -193.95 -105.6 -193.6 -113.25 -193.5 -114.45 -193.7 -115.7 L-196.8 -115.85 Q-196.5 -107.45 -201.55 -100.1 -201.85 -99.7 -202.75 -99.7 -199.35 -109.95 -201.8 -121.4 L-201.9 -121.85 -202.0 -123.1 -204.1 -121.55 Q-208.65 -118.05 -213.95 -112.8 L-219.35 -114.05 Q-216.4 -124.65 -215.45 -135.85 L-216.15 -135.7 -218.5 -136.1 Q-219.15 -136.4 -219.7 -137.0 L-220.8 -138.25 Q-240.45 -138.3 -260.45 -134.9 L-260.8 -134.55 -261.1 -134.8 -264.85 -134.15 -265.7 -135.3 -267.7 -138.1 Q-268.3 -139.05 -268.45 -140.3 -267.55 -141.55 -266.65 -141.55 L-266.1 -141.5 Q-270.25 -150.8 -264.55 -165.5 -264.15 -166.55 -264.15 -167.8 -257.45 -178.0 -251.5 -188.7 -250.5 -190.35 -251.0 -192.45 L-251.15 -193.65 Q-248.2 -198.3 -245.95 -203.2 L-248.6 -206.3 -247.15 -208.4 -246.9 -209.65 Q-246.6 -212.8 -245.05 -215.8 L-243.9 -218.25 -244.1 -219.45 -245.35 -223.15 Q-249.6 -226.65 -252.2 -231.15 -270.15 -234.5 -283.3 -221.1 -284.9 -221.1 -286.4 -221.6 L-287.25 -222.35 Q-285.05 -226.1 -280.85 -229.15 -274.1 -233.95 -266.65 -236.3 L-254.4 -236.0 Q-256.5 -242.0 -256.25 -249.4 L-256.2 -249.85 Q-253.2 -230.65 -235.35 -217.05 M-120.35 -200.2 L-120.4 -198.95 Q-118.4 -202.05 -118.95 -205.3 L-118.95 -205.1 Q-120.2 -202.8 -120.35 -200.2 M-221.55 -233.45 Q-223.5 -234.85 -225.15 -236.7 L-225.15 -237.95 -225.15 -240.4 -225.15 -242.85 -224.3 -244.05 -222.7 -245.85 -226.8 -248.8 Q-230.9 -251.55 -233.45 -256.0 L-233.7 -257.25 -233.8 -259.7 -233.8 -262.15 -233.25 -263.25 -230.3 -266.4 -229.25 -267.3 -232.0 -267.9 -233.4 -267.4 Q-234.95 -266.7 -235.35 -264.95 L-235.45 -264.4 -238.35 -265.45 Q-239.05 -253.85 -235.8 -242.1 L-235.25 -240.8 Q-228.15 -236.95 -222.05 -232.7 -216.35 -228.7 -211.55 -224.3 -210.45 -226.15 -208.2 -226.45 -200.7 -227.5 -193.5 -230.55 -194.95 -230.35 -196.25 -232.2 -196.4 -236.7 -197.9 -240.7 L-198.8 -243.35 -200.05 -247.65 Q-200.5 -245.4 -201.75 -243.35 L-202.75 -242.05 -204.9 -240.2 -204.65 -239.05 Q-203.9 -235.4 -204.55 -231.8 -208.15 -226.1 -215.75 -229.3 L-221.55 -233.45 M-224.45 -267.3 L-224.75 -267.45 -229.35 -267.95 -226.45 -267.35 -224.45 -267.3 M-226.95 -253.95 Q-222.4 -249.5 -217.8 -247.6 L-213.95 -247.35 -212.3 -246.3 Q-208.1 -246.0 -203.8 -247.8 -209.15 -255.6 -218.55 -262.25 L-219.35 -262.95 -227.65 -262.55 Q-231.85 -259.3 -227.75 -255.05 L-226.95 -253.95 M-218.65 -242.45 L-219.0 -242.8 Q-224.1 -233.65 -208.9 -234.4 -208.35 -234.45 -207.8 -235.05 -209.15 -237.45 -211.05 -239.45 -212.5 -239.85 -214.05 -240.8 -216.1 -242.05 -218.65 -242.45 M-186.85 -201.0 Q-194.0 -199.95 -193.4 -209.15 -193.4 -209.6 -193.0 -210.05 -188.25 -207.95 -186.95 -202.2 L-186.85 -201.0 M-191.9 -177.65 L-197.75 -177.45 -200.9 -179.6 -209.25 -179.85 Q-208.05 -178.4 -207.3 -176.7 L-207.05 -175.6 Q-169.65 -144.55 -140.2 -171.65 -147.85 -171.3 -154.75 -168.05 L-164.1 -167.4 Q-167.05 -164.8 -169.7 -162.65 L-170.6 -161.65 -172.05 -161.35 -179.95 -166.05 Q-183.8 -171.65 -189.5 -175.5 -190.8 -176.4 -191.9 -177.65 M-77.45 196.1 L-77.2 194.55 Q-77.05 194.8 -77.05 195.25 L-77.45 196.1 M-57.55 187.95 Q-57.55 187.7 -56.45 187.5 L-56.25 188.15 -57.55 189.6 -57.55 187.95 M-310.95 7.1 L-310.05 6.55 Q-304.35 9.55 -308.1 16.9 L-308.25 17.65 Q-305.65 10.85 -299.2 8.6 -298.7 17.9 -301.55 28.25 L-302.45 30.75 -302.45 30.85 Q-302.45 33.2 -299.05 32.3 -298.65 32.2 -298.15 32.8 -298.85 43.5 -295.4 52.95 L-295.05 53.2 Q-292.35 55.2 -290.85 57.85 -291.15 59.3 -291.9 60.35 L-290.2 63.1 Q-288.85 65.05 -289.8 67.25 -293.25 69.3 -294.5 66.4 -292.2 77.75 -287.95 88.6 -284.9 96.45 -284.0 104.6 -288.6 103.95 -293.45 100.1 -296.4 97.8 -298.1 98.85 -296.45 101.75 -296.6 105.05 L-296.65 106.25 Q-293.7 108.7 -293.15 112.35 L-292.7 113.65 Q-287.85 118.75 -283.8 124.85 -280.75 129.45 -279.65 134.55 -283.85 136.3 -287.25 132.5 -290.15 133.75 -288.0 139.1 L-278.7 150.55 Q-274.4 155.65 -270.65 161.25 -274.4 164.9 -279.3 165.35 -276.9 172.15 -270.95 176.35 -266.05 179.8 -261.95 183.8 -264.9 186.4 -263.4 188.7 -261.9 193.0 -258.15 196.25 L-256.2 198.15 Q-249.9 200.15 -244.95 203.85 -244.65 204.1 -244.65 204.7 -246.95 205.65 -249.3 205.7 -256.3 205.75 -263.4 197.5 -266.3 194.05 -268.5 189.55 L-268.45 185.85 -268.5 184.6 Q-275.15 179.1 -280.15 172.4 -284.15 167.05 -282.2 161.25 -277.5 158.85 -280.05 157.15 -283.45 153.05 -286.15 148.5 -288.4 144.65 -291.25 141.15 L-292.8 133.7 Q-293.05 132.5 -292.95 131.3 L-292.7 128.8 Q-288.0 128.1 -287.6 125.95 L-294.8 115.35 -300.25 107.5 Q-300.0 103.45 -301.3 99.95 -301.7 98.85 -301.7 97.65 L-301.7 95.2 -296.3 93.95 Q-293.35 96.3 -289.8 96.8 -292.85 87.6 -296.3 78.55 -295.6 73.5 -296.05 68.3 -296.35 64.9 -296.8 61.65 -299.9 55.2 -300.95 48.05 -301.0 47.4 -301.4 46.75 -303.2 44.7 -306.1 43.5 -306.65 36.3 -305.8 29.45 L-304.95 23.75 Q-304.6 21.95 -304.65 20.1 L-308.05 28.5 -309.35 31.4 -310.05 32.0 Q-314.2 22.35 -311.45 8.3 L-310.95 7.1 M-324.65 194.75 L-324.7 194.65 -325.0 193.85 -324.45 193.65 Q-319.15 196.3 -315.4 201.4 L-314.35 202.65 -313.65 202.85 -310.75 202.25 Q-307.4 205.85 -303.65 208.9 L-303.15 208.8 Q-302.4 204.55 -299.2 204.5 -298.45 204.5 -297.75 205.1 -296.8 208.4 -295.3 211.1 L-294.1 212.5 -291.85 207.95 Q-291.6 207.4 -290.5 207.15 -289.25 209.8 -287.35 212.15 L-286.55 213.3 -283.65 213.65 -281.85 213.75 Q-279.65 218.6 -275.95 222.85 -275.35 223.6 -275.35 224.8 -284.3 223.4 -290.85 214.55 -291.15 218.95 -296.65 217.0 L-297.75 215.8 -298.8 214.55 Q-304.9 212.75 -311.1 212.1 -320.2 204.9 -323.9 196.6 L-324.65 194.75 M-250.8 233.15 L-252.85 232.25 -251.15 232.2 -250.8 233.15 M-72.0 239.15 L-67.45 237.8 -67.65 237.55 -64.9 237.3 -62.85 237.0 Q-73.8 223.35 -87.05 216.6 L-86.5 215.6 -88.3 214.55 Q-91.9 218.45 -98.75 220.3 -99.45 216.45 -100.85 219.1 L-102.0 221.5 -104.45 222.9 -105.25 223.55 Q-106.65 224.25 -107.75 224.3 -109.85 224.4 -111.05 222.35 -111.05 219.85 -110.7 217.45 L-109.95 214.95 Q-114.35 215.8 -116.45 219.85 -121.9 222.85 -122.6 217.8 -123.15 214.9 -122.25 212.9 L-123.3 212.9 Q-127.7 217.2 -133.05 220.3 -135.65 220.85 -136.6 219.8 -143.65 227.2 -152.4 234.0 -154.7 235.8 -153.75 238.4 L-130.5 237.5 Q-132.0 243.7 -129.95 251.0 -129.2 253.7 -127.6 255.95 -128.15 261.3 -119.3 256.75 -113.3 252.7 -109.25 246.9 L-108.45 245.7 Q-107.85 243.3 -108.15 240.8 -108.35 238.85 -107.75 237.1 -102.6 238.5 -97.65 243.65 L-97.25 244.05 Q-85.0 250.55 -72.35 253.9 -72.0 252.05 -71.2 250.4 -70.35 248.55 -70.55 246.5 -70.35 243.8 -71.5 241.35 -72.0 240.35 -72.0 239.15 M-137.15 217.3 L-137.05 216.6 Q-137.4 215.55 -137.6 215.6 -138.7 215.75 -139.65 216.7 L-137.15 217.3 M-355.95 202.05 L-360.0 201.75 -359.25 199.45 -355.95 202.05 M-346.4 198.55 L-347.65 199.55 -346.5 197.8 -346.4 198.55" fill="#000000" fill-rule="evenodd" stroke="none"/>
    <path d="M-37.65 46.9 Q-44.0 41.65 -45.15 33.9 -64.7 16.2 -70.85 -10.85 L-84.25 -70.35 Q-86.3 -79.6 -87.1 -88.55 L-87.05 -90.3 Q-85.9 -90.05 -84.85 -90.65 -84.45 -90.85 -84.25 -91.5 L-84.35 -92.7 Q-84.45 -93.35 -84.8 -93.8 L-86.1 -95.15 -87.6 -97.45 Q-87.9 -115.0 -83.2 -131.3 -80.05 -132.1 -77.4 -129.65 L-76.3 -128.75 Q-75.55 -126.5 -74.1 -124.05 L-73.95 -116.9 Q-69.75 -111.55 -65.9 -106.0 L-64.45 -106.4 -64.4 -106.65 -54.5 -98.75 -55.7 -101.65 -49.9 -95.05 -28.25 -77.15 Q-16.9 -67.6 -16.0 -56.15 35.7 3.4 86.3 63.05 L89.55 66.85 Q97.15 75.85 94.75 85.15 L93.2 85.55 86.3 86.95 Q43.95 94.3 4.05 69.95 -9.2 61.85 -20.95 55.35 L-21.35 54.55 Q-25.05 53.55 -29.55 51.65 -33.4 50.0 -36.3 47.95 L-37.65 46.9" fill="url(#gradient0)" fill-rule="evenodd" stroke="none"/>
    <path d="M-172.4 -406.05 Q-165.65 -405.3 -169.95 -400.55 L-171.45 -398.9 Q-176.3 -379.95 -172.45 -360.85 -172.15 -359.3 -172.4 -357.65 -185.5 -377.15 -173.7 -404.7 L-172.4 -406.05" fill="url(#gradient1)" fill-rule="evenodd" stroke="none"/>
    <path d="M-313.6 -157.85 Q-312.6 -158.8 -311.45 -159.55 L-309.25 -160.3 -307.35 -160.75 -306.15 -165.3 Q-301.65 -167.1 -297.35 -167.8 L-294.35 -163.95 Q-283.7 -148.25 -289.4 -130.85 -291.05 -129.05 -292.3 -126.95 -294.35 -123.65 -294.85 -119.8 -296.7 -118.3 -297.55 -116.2 -305.4 -97.2 -309.65 -76.7 -311.8 -74.65 -312.9 -71.95 -324.6 -44.1 -333.0 -15.65 -334.6 -4.55 -340.0 3.45 L-340.8 5.55 -340.8 4.6 Q-344.5 9.65 -349.85 13.4 L-349.6 18.7 -349.75 19.65 Q-369.05 47.85 -398.2 63.7 -425.9 81.25 -453.0 82.4 -461.55 62.5 -450.9 44.5 -447.6 38.9 -446.2 32.85 -412.05 -22.0 -376.85 -75.8 -374.45 -79.45 -371.55 -82.75 L-371.4 -86.05 -371.1 -87.7 Q-345.15 -116.0 -324.4 -144.35 L-323.25 -143.55 -316.6 -154.35 Q-315.35 -156.3 -313.6 -157.85" fill="url(#gradient2)" fill-rule="evenodd" stroke="none"/>
    <path d="M-156.15 -382.75 Q-155.9 -383.5 -154.95 -384.05 -145.15 -370.15 -162.8 -355.6 -163.65 -354.9 -164.65 -354.35 -169.9 -363.45 -155.4 -376.35 -157.2 -379.5 -156.15 -382.75" fill="url(#gradient3)" fill-rule="evenodd" stroke="none"/>
    <path d="M-294.95 -223.25 Q-293.1 -238.55 -292.25 -254.1 -285.2 -257.75 -281.3 -269.05 -270.25 -300.9 -242.6 -319.5 L-241.15 -321.15 -240.2 -322.25 -239.7 -322.8 -239.15 -323.05 -237.75 -322.05 -236.4 -322.25 Q-228.7 -325.05 -222.25 -329.45 -206.8 -334.5 -190.75 -336.6 L-190.45 -335.55 Q-177.85 -332.4 -164.45 -338.05 L-164.1 -338.05 -149.05 -337.65 Q-123.55 -331.45 -106.9 -313.4 -96.15 -301.8 -87.0 -289.05 -79.3 -278.35 -72.7 -266.8 L-72.0 -265.55 -72.0 -263.9 -71.9 -262.25 -71.5 -260.6 Q-60.15 -236.45 -65.75 -209.5 -73.5 -218.4 -82.45 -226.05 L-86.3 -226.3 Q-80.1 -234.7 -79.55 -244.1 L-81.15 -243.7 Q-86.25 -240.55 -86.05 -235.5 -87.55 -232.2 -89.2 -229.85 -84.35 -240.2 -85.75 -255.15 -86.65 -255.75 -87.65 -256.2 L-90.45 -257.2 -90.5 -256.95 Q-92.8 -256.0 -95.15 -255.15 -97.45 -249.3 -100.5 -244.05 -97.3 -256.85 -107.5 -266.2 L-104.85 -266.65 -103.4 -267.85 Q-96.9 -273.2 -99.8 -280.2 -111.45 -270.55 -127.6 -268.7 L-128.05 -267.85 -128.05 -265.85 Q-138.3 -262.7 -145.45 -253.8 -154.1 -243.05 -150.65 -232.8 L-153.95 -234.7 Q-155.05 -235.25 -156.15 -235.9 L-182.85 -236.3 Q-187.5 -233.25 -192.3 -231.05 L-191.15 -232.2 Q-193.55 -243.85 -198.2 -254.45 -200.9 -260.65 -206.7 -265.4 L-208.2 -265.4 Q-222.8 -276.45 -244.25 -276.9 L-244.8 -279.3 -245.7 -281.85 -249.35 -282.25 Q-251.4 -281.55 -250.6 -279.1 -249.75 -276.45 -249.7 -273.5 L-251.5 -273.1 -253.35 -272.4 Q-255.6 -270.1 -256.05 -267.25 -257.5 -258.05 -256.2 -249.85 L-256.25 -249.4 Q-256.5 -242.0 -254.4 -236.0 L-266.65 -236.3 Q-274.1 -233.95 -280.85 -229.15 -285.05 -226.1 -287.25 -222.35 L-294.95 -223.25 M-242.2 -265.95 L-241.7 -265.85 -242.3 -263.8 -242.2 -265.95 M-242.8 -261.8 L-243.5 -257.75 -243.6 -258.05 Q-243.45 -259.95 -242.8 -261.8" fill="url(#gradient4)" fill-rule="evenodd" stroke="none"/>
    <path d="M-118.2 -259.7 Q-118.2 -259.05 -117.9 -258.85 -114.45 -256.25 -113.15 -252.3 -117.0 -237.6 -131.95 -244.5 L-131.9 -248.2 Q-131.9 -253.55 -129.05 -258.05 L-127.85 -259.0 -125.5 -260.15 -119.35 -262.1 Q-117.7 -261.95 -118.2 -259.7 M-135.2 -236.3 L-134.85 -236.5 Q-130.35 -236.55 -126.9 -233.4 L-128.1 -232.6 Q-136.45 -230.25 -135.2 -236.3 M-218.65 -242.45 Q-216.1 -242.05 -214.05 -240.8 -212.5 -239.85 -211.05 -239.45 -209.15 -237.45 -207.8 -235.05 -208.35 -234.45 -208.9 -234.4 -224.1 -233.65 -219.0 -242.8 L-218.65 -242.45 M-226.95 -253.95 L-227.75 -255.05 Q-231.85 -259.3 -227.65 -262.55 L-219.35 -262.95 -218.55 -262.25 Q-209.15 -255.6 -203.8 -247.8 -208.1 -246.0 -212.3 -246.3 L-213.95 -247.35 -217.8 -247.6 Q-222.4 -249.5 -226.95 -253.95" fill="#ffffff" fill-rule="evenodd" stroke="none"/>
    <path d="M-129.2 -226.15 Q-126.25 -226.55 -124.35 -229.3 -122.65 -231.35 -122.55 -234.25 L-122.1 -237.0 Q-118.4 -237.65 -114.95 -239.6 L-109.3 -248.3 -108.8 -249.4 Q-108.25 -255.0 -110.35 -259.85 L-112.5 -263.75 -110.7 -264.1 -103.75 -253.5 Q-103.75 -251.05 -104.45 -248.8 -105.75 -244.65 -105.55 -240.0 -114.25 -227.9 -128.35 -223.5 L-129.2 -226.15" fill="url(#gradient5)" fill-rule="evenodd" stroke="none"/>
    <path d="M-89.2 -229.85 Q-97.05 -213.1 -121.25 -208.55 L-125.55 -207.85 Q-126.2 -207.8 -126.9 -208.4 -129.55 -214.65 -127.9 -218.9 L-127.45 -219.9 -127.3 -220.15 Q-124.35 -225.15 -114.3 -226.85 -106.1 -234.5 -100.5 -244.05 -97.45 -249.3 -95.15 -255.15 -92.8 -256.0 -90.5 -256.95 L-90.45 -257.2 -87.65 -256.2 Q-86.65 -255.75 -85.75 -255.15 -84.35 -240.2 -89.2 -229.85" fill="url(#gradient6)" fill-rule="evenodd" stroke="none"/>
    <path d="M-129.2 -226.15 L-128.35 -223.5 Q-131.1 -222.65 -134.0 -222.1 L-134.75 -222.4 Q-134.75 -223.55 -136.05 -223.85 -138.4 -224.35 -139.25 -222.2 -142.9 -227.2 -147.9 -230.95 -148.75 -238.6 -144.6 -245.55 L-139.5 -254.35 -133.4 -257.0 Q-136.8 -249.7 -135.2 -241.2 L-134.95 -240.95 -136.65 -241.2 Q-138.7 -239.85 -139.5 -236.2 L-139.9 -232.6 Q-139.2 -230.45 -137.4 -228.85 L-136.25 -227.7 Q-132.2 -225.75 -129.2 -226.15" fill="url(#gradient7)" fill-rule="evenodd" stroke="none"/>
    <path d="M-150.25 -200.75 L-150.35 -200.6 Q-153.4 -195.45 -158.65 -192.4 -154.65 -186.55 -148.2 -194.05 L-147.9 -195.3 -147.75 -196.1 Q-149.8 -198.2 -150.25 -200.75 M-154.65 -208.9 Q-152.4 -204.7 -149.75 -201.1 -142.7 -191.35 -133.05 -185.8 -143.05 -179.8 -154.35 -176.0 L-154.05 -174.75 Q-164.45 -171.95 -174.2 -164.9 -175.3 -166.15 -176.05 -167.55 -182.2 -178.3 -193.7 -183.4 L-201.6 -182.8 Q-212.4 -184.9 -222.0 -190.05 -218.4 -192.5 -215.75 -196.1 L-216.3 -197.1 -217.5 -198.15 Q-206.9 -208.0 -193.9 -212.6 L-190.45 -213.7 -190.45 -213.3 -163.0 -217.0 Q-157.45 -214.05 -154.65 -208.9 M-186.85 -201.0 L-186.95 -202.2 Q-188.25 -207.95 -193.0 -210.05 -193.4 -209.6 -193.4 -209.15 -194.0 -199.95 -186.85 -201.0" fill="url(#gradient8)" fill-rule="evenodd" stroke="none"/>
    <path d="M-121.25 -208.55 Q-122.55 -206.2 -122.95 -203.75 L-123.25 -200.45 -125.05 -202.3 Q-129.8 -207.25 -131.2 -202.25 L-130.9 -201.35 Q-126.8 -197.25 -124.0 -192.4 L-122.55 -189.95 -123.05 -188.8 -124.0 -187.5 -125.1 -186.25 Q-126.25 -186.1 -127.2 -186.25 L-127.35 -186.3 -128.4 -186.6 Q-130.0 -187.3 -130.95 -189.2 -144.8 -217.15 -173.2 -221.25 L-173.15 -221.25 -173.4 -221.25 -175.65 -221.55 -176.35 -221.3 -187.2 -221.55 Q-199.2 -218.05 -209.35 -210.35 -215.5 -205.65 -219.65 -199.75 L-219.7 -199.8 Q-220.8 -199.6 -221.05 -199.0 L-222.6 -195.7 Q-225.15 -194.75 -227.15 -193.05 L-229.8 -194.85 -231.1 -194.65 Q-228.6 -197.4 -224.4 -199.4 L-225.0 -200.35 Q-226.55 -201.85 -228.4 -203.05 -230.65 -203.5 -231.6 -201.8 -234.1 -197.25 -237.1 -193.0 L-237.15 -192.9 -237.2 -192.85 -240.65 -195.25 -240.15 -196.4 Q-233.65 -206.75 -235.35 -217.05 L-235.3 -217.0 Q-229.2 -214.0 -222.65 -214.95 -221.2 -216.0 -220.0 -217.25 -218.15 -219.25 -217.6 -221.95 -217.55 -223.8 -218.25 -225.45 -215.1 -224.35 -211.95 -223.55 L-212.1 -223.15 Q-212.55 -221.1 -212.1 -221.3 -200.75 -225.55 -188.85 -228.1 L-188.75 -228.1 -188.65 -228.15 -188.3 -228.2 Q-173.9 -231.25 -158.65 -231.8 -146.35 -224.05 -136.55 -214.15 -134.15 -211.75 -133.4 -214.95 -133.4 -215.6 -133.7 -215.95 L-136.25 -218.65 -137.7 -219.9 -137.75 -220.0 -132.25 -219.7 Q-130.25 -218.85 -127.9 -218.9 -129.55 -214.65 -126.9 -208.4 -126.2 -207.8 -125.55 -207.85 L-121.25 -208.55 M-128.45 -182.45 L-127.85 -183.2 -127.8 -183.2 -128.45 -182.45 M-127.45 -219.9 L-127.9 -220.05 -127.3 -220.15 -127.45 -219.9" fill="url(#gradient9)" fill-rule="evenodd" stroke="none"/>
    <path d="M-312.65 6.05 Q-299.0 -17.3 -306.75 -42.65 -305.05 -47.4 -301.3 -51.25 -278.0 -75.5 -260.5 -103.0 L-260.75 -104.1 -262.85 -110.2 Q-263.05 -111.0 -263.8 -111.6 -264.85 -112.2 -266.0 -112.35 L-278.2 -113.25 Q-281.4 -111.15 -284.85 -107.65 -296.3 -96.1 -304.2 -83.05 -294.95 -106.95 -285.1 -130.45 -285.1 -133.8 -284.7 -136.75 -283.65 -144.6 -283.65 -152.6 L-285.5 -155.05 -286.55 -156.3 Q-286.55 -157.55 -287.0 -158.55 -290.5 -166.5 -296.3 -173.55 L-299.9 -173.95 -300.95 -173.45 Q-303.05 -172.4 -304.6 -171.15 -298.2 -196.8 -294.95 -223.25 L-287.25 -222.35 -286.4 -221.6 Q-284.9 -221.1 -283.3 -221.1 -270.15 -234.5 -252.2 -231.15 -249.6 -226.65 -245.35 -223.15 L-244.1 -219.45 -243.9 -218.25 -245.05 -215.8 Q-246.6 -212.8 -246.9 -209.65 L-247.15 -208.4 -248.6 -206.3 -245.95 -203.2 Q-248.2 -198.3 -251.15 -193.65 L-251.0 -192.45 Q-250.5 -190.35 -251.5 -188.7 -257.45 -178.0 -264.15 -167.8 -264.15 -166.55 -264.55 -165.5 -270.25 -150.8 -266.1 -141.5 L-266.65 -141.55 Q-267.55 -141.55 -268.45 -140.3 -268.3 -139.05 -267.7 -138.1 L-265.7 -135.3 -264.85 -134.15 -261.1 -134.8 -260.8 -134.55 -260.45 -134.9 Q-240.45 -138.3 -220.8 -138.25 L-219.7 -137.0 Q-219.15 -136.4 -218.5 -136.1 L-216.15 -135.7 -215.45 -135.85 Q-216.4 -124.65 -219.35 -114.05 L-213.95 -112.8 Q-208.65 -118.05 -204.1 -121.55 L-202.0 -123.1 -201.9 -121.85 -201.8 -121.4 Q-199.35 -109.95 -202.75 -99.7 -201.85 -99.7 -201.55 -100.1 -196.5 -107.45 -196.8 -115.85 L-193.7 -115.7 Q-193.5 -114.45 -193.6 -113.25 -193.95 -105.6 -192.25 -98.45 -192.45 -97.85 -192.8 -97.35 -195.6 -93.1 -197.7 -88.6 L-197.75 -87.4 Q-198.0 -84.1 -194.45 -84.5 -193.7 -84.95 -193.45 -85.55 -191.4 -90.3 -189.65 -95.05 -187.65 -93.25 -185.4 -96.0 L-185.2 -97.15 Q-183.25 -101.95 -182.5 -107.1 -179.45 -111.25 -176.75 -115.7 L-176.65 -116.9 -176.6 -117.2 -173.1 -116.9 -171.8 -111.95 -171.65 -110.75 Q-172.1 -108.15 -172.9 -105.8 L-173.1 -104.6 Q-171.5 -102.4 -171.95 -99.75 -172.9 -94.35 -168.4 -95.2 -165.85 -98.3 -166.6 -102.55 -167.25 -106.4 -164.45 -108.7 L-163.7 -109.15 Q-163.7 -106.45 -164.25 -103.35 L-164.45 -100.9 -160.45 -100.3 Q-159.95 -100.3 -159.4 -100.9 L-159.1 -101.9 Q-157.35 -104.15 -157.15 -107.0 -157.05 -108.3 -156.15 -109.55 L-156.8 -107.45 Q-157.45 -105.1 -157.0 -102.6 L-156.5 -101.35 Q-151.85 -103.05 -150.0 -108.85 L-146.9 -118.1 -146.0 -120.6 -146.05 -118.1 -145.8 -110.7 Q-145.4 -104.7 -140.95 -105.05 -138.2 -108.7 -138.8 -113.7 -139.15 -116.7 -139.15 -119.8 -138.05 -116.15 -136.15 -112.9 -135.15 -111.2 -135.55 -109.15 -133.25 -105.85 -130.25 -109.2 L-129.4 -110.35 Q-128.2 -115.85 -127.9 -121.45 -127.6 -125.75 -127.6 -130.05 -126.65 -132.85 -121.1 -132.9 L-121.0 -132.9 Q-113.2 -131.35 -105.2 -130.85 L-104.7 -131.55 Q-102.75 -133.15 -101.6 -135.4 -101.6 -136.6 -102.0 -137.7 -107.95 -153.0 -110.25 -167.4 L-110.65 -168.6 -111.3 -170.2 -110.65 -171.05 -110.05 -173.45 Q-109.25 -175.85 -108.8 -178.45 L-110.0 -181.0 -112.45 -188.3 Q-112.95 -188.9 -113.25 -189.65 -114.15 -192.2 -116.25 -193.15 L-116.25 -193.25 Q-115.75 -199.5 -114.6 -205.55 L-113.4 -206.55 -109.2 -209.5 Q-106.0 -209.6 -102.3 -211.25 -100.5 -213.85 -97.95 -215.7 L-97.9 -215.95 Q-97.45 -217.45 -96.2 -218.65 L-91.9 -219.65 -91.85 -219.9 -89.1 -217.55 -87.5 -221.55 Q-83.3 -221.95 -80.05 -218.25 -73.5 -210.8 -67.35 -202.8 -70.1 -192.4 -71.35 -181.45 -73.6 -161.55 -74.05 -141.05 -76.8 -138.15 -77.1 -134.45 -80.5 -136.15 -84.6 -136.2 -87.55 -134.3 -88.25 -130.85 L-88.5 -128.4 Q-88.45 -113.0 -87.65 -97.55 -97.5 -114.35 -119.3 -111.6 L-120.75 -110.8 -123.1 -109.3 Q-123.65 -108.9 -123.8 -108.25 L-124.0 -107.1 Q-116.7 -91.9 -104.2 -79.4 -85.75 -61.0 -82.8 -35.7 -87.35 -25.25 -90.15 -14.6 -94.25 0.7 -80.65 12.3 L-81.35 36.9 Q-81.75 51.05 -74.15 62.75 L-72.35 63.25 -71.25 64.4 -70.15 64.05 -69.8 64.4 Q-69.2 75.55 -74.7 86.25 -83.15 102.55 -83.2 116.9 L-80.15 111.8 Q-79.9 112.6 -78.85 113.6 -81.8 122.8 -85.8 132.0 L-90.75 137.4 Q-90.2 139.15 -89.35 139.6 -92.05 145.1 -95.1 150.55 L-93.85 150.35 Q-102.15 160.4 -109.5 171.3 L-109.55 171.35 -113.2 176.8 -112.55 174.9 Q-111.35 172.55 -111.75 169.85 -112.75 166.1 -116.45 165.75 -118.55 166.55 -119.3 168.75 L-127.65 192.4 Q-131.6 197.3 -135.95 198.95 L-134.95 197.7 Q-130.25 191.25 -135.25 188.7 -141.35 201.75 -155.45 207.55 L-156.25 208.9 Q-157.05 211.05 -158.7 212.5 -175.15 215.85 -187.8 219.85 -214.2 223.65 -239.95 218.7 L-239.95 218.65 Q-245.2 217.35 -249.75 217.15 L-249.3 205.7 Q-246.95 205.65 -244.65 204.7 -244.65 204.1 -244.95 203.85 -249.9 200.15 -256.2 198.15 L-258.15 196.25 Q-261.9 193.0 -263.4 188.7 -264.9 186.4 -261.95 183.8 -266.05 179.8 -270.95 176.35 -276.9 172.15 -279.3 165.35 -274.4 164.9 -270.65 161.25 -274.4 155.65 -278.7 150.55 L-288.0 139.1 Q-290.15 133.75 -287.25 132.5 -283.85 136.3 -279.65 134.55 -280.75 129.45 -283.8 124.85 -287.85 118.75 -292.7 113.65 L-293.15 112.35 Q-293.7 108.7 -296.65 106.25 L-296.6 105.05 Q-296.45 101.75 -298.1 98.85 -296.4 97.8 -293.45 100.1 -288.6 103.95 -284.0 104.6 -284.9 96.45 -287.95 88.6 -292.2 77.75 -294.5 66.4 -293.25 69.3 -289.8 67.25 -288.85 65.05 -290.2 63.1 L-291.9 60.35 Q-291.15 59.3 -290.85 57.85 -292.35 55.2 -295.05 53.2 L-295.4 52.95 Q-298.85 43.5 -298.15 32.8 -298.65 32.2 -299.05 32.3 -302.45 33.2 -302.45 30.85 L-302.45 30.75 -301.55 28.25 Q-298.7 17.9 -299.2 8.6 -305.65 10.85 -308.25 17.65 L-308.1 16.9 Q-304.35 9.55 -310.05 6.55 L-310.95 7.1 -312.65 6.05" fill="url(#gradient10)" fill-rule="evenodd" stroke="none"/>
    <path d="M-197.6 -375.25 Q-198.45 -381.8 -197.45 -388.4 -197.15 -390.4 -195.7 -390.65 -189.55 -389.05 -192.95 -381.7 L-193.25 -380.2 Q-184.2 -367.7 -176.45 -353.7 -176.05 -353.0 -175.8 -352.15 L-181.6 -350.5 Q-188.15 -362.4 -196.25 -373.55 L-197.6 -375.25" fill="url(#gradient11)" fill-rule="evenodd" stroke="none"/>
    <path d="M-218.25 -225.45 Q-217.55 -223.8 -217.6 -221.95 -218.15 -219.25 -220.0 -217.25 -221.2 -216.0 -222.65 -214.95 -229.2 -214.0 -235.3 -217.0 L-235.35 -217.05 Q-253.2 -230.65 -256.2 -249.85 -257.5 -258.05 -256.05 -267.25 -255.6 -270.1 -253.35 -272.4 L-251.5 -273.1 -249.7 -273.5 -249.35 -273.6 -246.55 -272.6 -244.65 -271.55 Q-242.45 -268.95 -242.2 -265.95 L-242.3 -263.8 -242.8 -261.8 Q-243.45 -259.95 -243.6 -258.05 L-243.5 -257.75 Q-238.1 -237.45 -219.4 -228.1 L-218.3 -225.6 -218.25 -225.45" fill="url(#gradient12)" fill-rule="evenodd" stroke="none"/>
    <path d="M-222.05 -232.7 Q-228.15 -236.95 -235.25 -240.8 L-235.8 -242.1 Q-239.05 -253.85 -238.35 -265.45 L-235.45 -264.4 -235.35 -264.95 Q-234.95 -266.7 -233.4 -267.4 L-232.0 -267.9 -229.25 -267.3 -230.3 -266.4 -233.25 -263.25 -233.8 -262.15 -233.8 -259.7 -233.7 -257.25 -233.45 -256.0 Q-230.9 -251.55 -226.8 -248.8 L-222.7 -245.85 -224.3 -244.05 -225.15 -242.85 -225.15 -240.4 -225.15 -237.95 -225.15 -236.7 Q-223.5 -234.85 -221.55 -233.45 L-222.05 -232.7" fill="url(#gradient13)" fill-rule="evenodd" stroke="none"/>
    <path d="M-221.55 -233.45 L-215.75 -229.3 Q-208.15 -226.1 -204.55 -231.8 -203.9 -235.4 -204.65 -239.05 L-204.9 -240.2 -202.75 -242.05 -201.75 -243.35 Q-200.5 -245.4 -200.05 -247.65 L-198.8 -243.35 -197.9 -240.7 Q-196.4 -236.7 -196.25 -232.2 -194.95 -230.35 -193.5 -230.55 -200.7 -227.5 -208.2 -226.45 -210.45 -226.15 -211.55 -224.3 -216.35 -228.7 -222.05 -232.7 L-221.55 -233.45" fill="url(#gradient14)" fill-rule="evenodd" stroke="none"/>
    <path d="M-191.9 -177.65 Q-190.8 -176.4 -189.5 -175.5 -183.8 -171.65 -179.95 -166.05 L-172.05 -161.35 -170.6 -161.65 -169.7 -162.65 Q-167.05 -164.8 -164.1 -167.4 L-154.75 -168.05 Q-147.85 -171.3 -140.2 -171.65 -169.65 -144.55 -207.05 -175.6 L-207.3 -176.7 Q-208.05 -178.4 -209.25 -179.85 L-200.9 -179.6 -197.75 -177.45 -191.9 -177.65" fill="url(#gradient15)" fill-rule="evenodd" stroke="none"/>
    <path d="M-237.2 -192.85 L-237.25 -192.8 -238.15 -191.6 -238.15 -186.65 -238.15 -180.5 -237.9 -179.35 Q-236.8 -176.55 -234.15 -176.8 -233.6 -178.05 -233.9 -179.05 -236.2 -187.8 -232.05 -193.5 L-232.35 -187.5 -229.45 -185.95 -229.45 -184.6 Q-222.45 -181.25 -215.0 -179.45 L-215.0 -179.3 Q-188.0 -141.6 -146.75 -161.2 -128.05 -170.1 -129.05 -181.75 L-128.75 -182.1 -128.55 -182.3 -128.45 -182.45 -127.8 -183.2 -127.75 -183.2 Q-125.95 -182.4 -124.0 -181.75 L-123.2 -182.3 Q-120.15 -183.15 -119.85 -185.85 L-119.65 -185.45 Q-119.1 -184.2 -119.2 -183.0 -119.5 -179.75 -118.1 -177.3 -117.65 -176.6 -116.4 -176.4 -115.1 -176.9 -114.6 -178.05 L-113.9 -174.35 -114.75 -173.65 -115.7 -173.55 Q-117.95 -173.95 -117.85 -171.9 L-117.35 -165.35 Q-118.65 -164.35 -120.15 -163.7 L-120.0 -163.7 Q-118.6 -164.3 -117.3 -165.05 -116.25 -154.65 -113.8 -144.75 L-109.15 -144.9 -109.5 -146.35 -108.45 -145.25 Q-104.95 -141.45 -105.55 -136.6 -111.45 -133.5 -117.5 -136.6 L-118.9 -137.9 -120.0 -139.05 -131.6 -137.85 Q-139.8 -134.7 -140.6 -129.25 -135.75 -129.65 -131.35 -132.2 -131.95 -129.5 -131.4 -125.9 -130.5 -120.3 -133.0 -115.3 -135.3 -119.6 -136.55 -124.25 -137.95 -129.25 -142.4 -128.8 L-142.6 -127.6 Q-142.8 -123.7 -143.75 -126.25 L-144.6 -127.6 Q-148.8 -126.55 -149.25 -121.35 -149.4 -119.55 -150.3 -118.1 L-152.15 -118.1 -152.15 -118.15 Q-152.15 -120.6 -152.6 -123.0 -152.7 -123.7 -153.25 -124.3 -158.3 -124.35 -161.5 -119.15 L-165.15 -113.65 -165.15 -114.45 -164.85 -120.6 Q-164.6 -122.9 -166.25 -124.3 -169.0 -123.4 -171.25 -120.55 -172.55 -118.9 -173.1 -116.9 L-176.6 -117.2 Q-176.05 -121.2 -177.8 -124.3 -178.7 -124.3 -179.0 -123.9 L-183.25 -118.15 Q-181.65 -115.65 -183.25 -113.25 -183.4 -112.6 -183.7 -112.05 L-188.25 -101.9 Q-188.5 -113.95 -194.45 -121.45 L-195.5 -121.0 -197.45 -121.1 Q-197.95 -123.3 -198.75 -125.55 -200.7 -129.0 -204.2 -129.25 -208.15 -123.95 -212.45 -120.35 L-214.3 -118.95 -214.1 -120.15 Q-210.55 -129.85 -213.95 -137.45 L-215.0 -137.45 Q-221.65 -145.45 -233.45 -144.4 -247.2 -139.85 -261.1 -139.1 L-263.4 -141.55 -263.4 -144.0 Q-263.3 -154.9 -260.5 -164.9 -252.1 -181.1 -240.65 -195.25 L-237.2 -192.85" fill="url(#gradient16)" fill-rule="evenodd" stroke="none"/>
    <path d="M-324.4 -144.35 L-312.85 -160.75 -313.6 -157.85 Q-315.35 -156.3 -316.6 -154.35 L-323.25 -143.55 -324.4 -144.35" fill="url(#gradient17)" fill-rule="evenodd" stroke="none"/>
    <path d="M-319.1 -43.4 L-304.45 -82.4 Q-300.9 -80.9 -298.3 -84.55 -288.8 -97.8 -276.8 -108.3 -270.25 -110.8 -265.9 -106.35 -265.6 -106.05 -265.6 -105.45 -265.7 -100.05 -270.75 -95.2 -280.2 -86.05 -288.0 -76.3 -301.65 -59.25 -310.35 -40.2 L-319.1 -43.4" fill="url(#gradient18)" fill-rule="evenodd" stroke="none"/>
    <path d="M-329.9 196.9 Q-337.15 182.65 -340.6 167.15 L-340.1 166.5 -337.9 155.05 Q-344.6 146.05 -346.7 133.1 L-346.2 132.45 -344.35 130.05 Q-343.95 122.95 -344.6 116.4 -346.75 94.15 -344.9 73.8 -344.35 71.4 -343.5 69.3 L-343.45 69.6 -342.8 67.5 -343.6 62.65 -341.85 52.5 Q-344.0 50.7 -341.3 48.2 -339.65 46.7 -338.6 44.3 L-336.15 44.65 Q-333.25 45.55 -331.35 48.0 -326.65 49.25 -327.4 45.55 L-328.55 44.35 Q-333.3 40.1 -338.95 37.75 L-340.0 38.2 -342.0 39.25 Q-341.25 36.05 -340.1 33.0 L-340.7 13.55 -338.8 11.15 -337.45 9.85 -336.35 6.4 Q-328.05 -18.7 -319.1 -43.35 L-319.1 -43.4 -310.35 -40.2 Q-307.15 -35.6 -306.15 -30.35 L-306.05 -29.15 Q-308.9 -16.95 -315.55 -6.55 -319.05 -1.05 -321.8 4.65 -317.95 6.8 -317.15 11.9 L-316.95 12.6 -312.65 6.05 -310.95 7.1 -311.45 8.3 Q-314.2 22.35 -310.05 32.0 L-309.35 31.4 -308.05 28.5 -305.8 29.45 Q-306.65 36.3 -306.1 43.5 -303.2 44.7 -301.4 46.75 -301.0 47.4 -300.95 48.05 -299.9 55.2 -296.8 61.65 -296.35 64.9 -296.05 68.3 -295.6 73.5 -296.3 78.55 -292.85 87.6 -289.8 96.8 -293.35 96.3 -296.3 93.95 L-301.7 95.2 -301.7 97.65 Q-301.7 98.85 -301.3 99.95 -300.0 103.45 -300.25 107.5 L-294.8 115.35 -287.6 125.95 Q-288.0 128.1 -292.7 128.8 L-292.95 131.3 Q-293.05 132.5 -292.8 133.7 L-291.25 141.15 Q-288.4 144.65 -286.15 148.5 -283.45 153.05 -280.05 157.15 -277.5 158.85 -282.2 161.25 -284.15 167.05 -280.15 172.4 -275.15 179.1 -268.5 184.6 L-268.45 185.85 -268.5 189.55 Q-266.3 194.05 -263.4 197.5 -256.3 205.75 -249.3 205.7 L-249.75 217.15 Q-260.3 216.65 -267.05 221.95 L-267.05 224.35 -275.35 224.8 Q-275.35 223.6 -275.95 222.85 -279.65 218.6 -281.85 213.75 L-283.65 213.65 -286.55 213.3 -287.35 212.15 Q-289.25 209.8 -290.5 207.15 -291.6 207.4 -291.85 207.95 L-294.1 212.5 -295.3 211.1 Q-296.8 208.4 -297.75 205.1 -298.45 204.5 -299.2 204.5 -302.4 204.55 -303.15 208.8 L-303.65 208.9 Q-307.4 205.85 -310.75 202.25 L-313.65 202.85 -314.35 202.65 -315.4 201.4 Q-319.15 196.3 -324.45 193.65 L-325.0 193.85 -324.7 194.65 -324.65 194.75 -329.9 196.9" fill="url(#gradient19)" fill-rule="evenodd" stroke="none"/>
    <path d="M-87.1 -88.55 Q-86.1 -72.45 -84.3 -56.35 L-84.65 -57.3 -88.95 -69.75 Q-96.3 -75.5 -102.5 -82.2 -112.2 -92.7 -117.85 -105.45 -115.65 -111.1 -108.05 -109.05 -96.8 -106.0 -91.1 -96.0 L-90.85 -94.75 -90.75 -93.55 -90.75 -92.3 -88.95 -91.1 Q-88.05 -90.45 -87.05 -90.3 L-87.1 -88.55" fill="url(#gradient20)" fill-rule="evenodd" stroke="none"/>
    <path d="M-163.3 218.85 Q-151.55 214.7 -141.75 204.3 -140.0 206.9 -137.05 205.5 -127.65 200.4 -122.95 191.15 L-119.35 190.35 -118.5 189.2 Q-111.65 181.6 -105.85 173.85 L-105.75 173.7 Q-97.45 162.55 -91.35 151.0 -95.0 160.25 -96.95 169.6 -98.6 173.35 -100.9 176.85 L-101.05 177.1 -104.15 181.3 -99.0 181.5 Q-91.95 172.5 -89.35 162.3 L-88.35 160.45 Q-80.55 145.25 -82.3 133.45 L-76.3 123.45 -75.7 122.2 Q-72.9 115.25 -75.25 108.7 -77.75 109.05 -79.0 109.75 -75.05 102.5 -71.7 94.65 -69.55 89.65 -68.15 84.5 -69.3 71.6 -66.6 58.4 -69.55 57.55 -72.85 57.45 L-73.05 57.0 Q-78.75 44.75 -76.45 31.5 -74.05 17.45 -79.4 5.95 -82.6 -1.0 -88.6 -7.0 L-81.55 -26.2 -80.65 -28.7 -80.25 -26.1 Q-77.85 -10.6 -72.1 2.8 -61.05 28.65 -37.65 46.9 L-36.3 47.95 -32.7 51.35 Q-34.1 68.0 -36.05 84.5 -33.95 96.3 -38.0 110.45 -39.35 115.3 -41.7 119.7 -42.45 130.5 -46.7 141.55 L-47.8 142.75 -48.85 144.0 Q-48.9 148.9 -51.45 153.0 -54.75 158.25 -59.0 162.45 L-59.0 163.7 -59.15 164.85 -59.7 166.15 Q-62.35 170.6 -66.15 174.45 -70.15 178.5 -72.0 183.4 -68.0 184.25 -64.65 181.0 L-64.55 180.95 -63.4 182.1 -63.45 182.2 -65.2 187.0 -67.65 190.3 Q-68.85 191.95 -69.55 193.8 L-71.3 197.9 -71.95 199.1 -72.1 199.3 -73.9 202.2 -70.35 202.55 -71.7 205.15 Q-72.75 203.7 -75.25 203.45 -76.2 203.65 -76.45 204.2 -79.55 210.1 -84.3 212.9 L-84.7 212.05 Q-85.1 207.65 -88.65 207.15 L-90.15 208.6 Q-93.4 213.3 -93.35 208.0 -94.05 207.35 -94.15 207.45 L-107.4 219.05 -106.45 216.55 Q-105.75 214.2 -105.95 211.65 -108.2 208.75 -111.75 210.45 -114.05 212.6 -117.15 212.9 L-117.45 210.85 -117.55 208.4 Q-125.05 206.7 -132.0 214.15 -132.05 207.45 -139.55 210.85 L-140.65 212.1 -143.9 215.75 -143.95 216.1 Q-153.85 222.85 -162.45 221.05 L-163.3 218.85 M-77.45 196.1 L-77.05 195.25 Q-77.05 194.8 -77.2 194.55 L-77.45 196.1" fill="url(#gradient21)" fill-rule="evenodd" stroke="none"/>
    <path d="M-331.1 196.3 L-329.9 196.9 -324.65 194.75 -323.9 196.6 Q-320.2 204.9 -311.1 212.1 -304.9 212.75 -298.8 214.55 L-297.75 215.8 -296.65 217.0 Q-291.15 218.95 -290.85 214.55 -284.3 223.4 -275.35 224.8 L-267.05 224.35 Q-266.95 227.85 -265.85 231.0 -264.45 235.1 -261.5 236.05 L-261.95 237.75 -265.6 245.3 Q-290.15 251.85 -313.6 247.75 L-315.85 250.1 Q-318.45 252.65 -320.85 251.05 -320.9 248.15 -322.0 245.8 L-324.1 241.2 Q-332.95 236.3 -343.25 234.6 -345.4 235.45 -347.4 236.6 -348.95 237.5 -350.4 238.2 L-356.4 237.15 -356.3 236.6 Q-356.05 235.45 -356.25 234.2 -373.65 229.5 -390.9 229.7 -390.95 227.25 -389.05 226.1 -385.8 224.15 -383.35 221.1 -363.75 216.65 -344.7 215.75 L-343.2 214.55 Q-338.25 210.6 -333.0 207.1 L-333.05 206.95 Q-334.05 204.0 -334.0 201.0 L-331.1 196.3" fill="url(#gradient22)" fill-rule="evenodd" stroke="none"/>
    <path d="M-72.0 239.15 Q-72.0 240.35 -71.5 241.35 -70.35 243.8 -70.55 246.5 -70.35 248.55 -71.2 250.4 -72.0 252.05 -72.35 253.9 -85.0 250.55 -97.25 244.05 L-97.65 243.65 Q-102.6 238.5 -107.75 237.1 -108.35 238.85 -108.15 240.8 -107.85 243.3 -108.45 245.7 L-109.25 246.9 Q-113.3 252.7 -119.3 256.75 -128.15 261.3 -127.6 255.95 -129.2 253.7 -129.95 251.0 -132.0 243.7 -130.5 237.5 L-153.75 238.4 Q-154.7 235.8 -152.4 234.0 -143.65 227.2 -136.6 219.8 -135.65 220.85 -133.05 220.3 -127.7 217.2 -123.3 212.9 L-122.25 212.9 Q-123.15 214.9 -122.6 217.8 -121.9 222.85 -116.45 219.85 -114.35 215.8 -109.95 214.95 L-110.7 217.45 Q-111.05 219.85 -111.05 222.35 -109.85 224.4 -107.75 224.3 -106.65 224.25 -105.25 223.55 L-104.45 222.9 -102.0 221.5 -100.85 219.1 Q-99.45 216.45 -98.75 220.3 -91.9 218.45 -88.3 214.55 L-86.5 215.6 -87.05 216.6 Q-73.8 223.35 -62.85 237.0 L-64.9 237.3 -67.65 237.55 -67.45 237.8 -72.0 239.15" fill="url(#gradient23)" fill-rule="evenodd" stroke="none"/>
  </g>
  <defs>
    <radialGradient cx="0" cy="0" gradientTransform="matrix(0.2701, 0.0, 0.0, 0.2701, -55.75, -76.7)" gradientUnits="userSpaceOnUse" id="gradient0" r="819.2" spreadMethod="pad">
      <stop offset="0.0" stop-color="#b9b9b9"/>
      <stop offset="1.0" stop-color="#000000"/>
    </radialGradient>
    <radialGradient cx="0" cy="0" gradientTransform="matrix(0.0298, 0.0, 0.0, 0.0298, -173.8, -381.85)" gradientUnits="userSpaceOnUse" id="gradient1" r="819.2" spreadMethod="pad">
      <stop offset="0.0" stop-color="#ffffff"/>
      <stop offset="1.0" stop-color="#000000"/>
    </radialGradient>
    <radialGradient cx="0" cy="0" gradientTransform="matrix(0.2965, 0.0, 0.0, 0.2965, -317.3, -117.75)" gradientUnits="userSpaceOnUse" id="gradient2" r="819.2" spreadMethod="pad">
      <stop offset="0.0" stop-color="#b9b9b9"/>
      <stop offset="1.0" stop-color="#000000"/>
    </radialGradient>
    <radialGradient cx="0" cy="0" gradientTransform="matrix(0.0196, 0.0, 0.0, 0.0196, -158.75, -369.2)" gradientUnits="userSpaceOnUse" id="gradient3" r="819.2" spreadMethod="pad">
      <stop offset="0.0" stop-color="#ffffff"/>
      <stop offset="1.0" stop-color="#000000"/>
    </radialGradient>
    <radialGradient cx="0" cy="0" gradientTransform="matrix(0.1711, 0.0, 0.0, 0.1711, -161.25, -265.4)" gradientUnits="userSpaceOnUse" id="gradient4" r="819.2" spreadMethod="pad">
      <stop offset="0.0" stop-color="#ffffff"/>
      <stop offset="1.0" stop-color="#000000"/>
    </radialGradient>
    <radialGradient cx="0" cy="0" gradientTransform="matrix(0.0349, 0.0, 0.0, 0.0349, -115.95, -236.0)" gradientUnits="userSpaceOnUse" id="gradient5" r="819.2" spreadMethod="pad">
      <stop offset="0.0" stop-color="#f2feff"/>
      <stop offset="1.0" stop-color="#58cffc"/>
    </radialGradient>
    <radialGradient cx="0" cy="0" gradientTransform="matrix(0.0388, 0.0, 0.0, 0.0388, -107.0, -232.5)" gradientUnits="userSpaceOnUse" id="gradient6" r="819.2" spreadMethod="pad">
      <stop offset="0.0" stop-color="#ffffff"/>
      <stop offset="1.0" stop-color="#000000"/>
    </radialGradient>
    <radialGradient cx="0" cy="0" gradientTransform="matrix(0.0308, 0.0, 0.0, 0.0308, -141.2, -244.8)" gradientUnits="userSpaceOnUse" id="gradient7" r="819.2" spreadMethod="pad">
      <stop offset="0.0" stop-color="#f2feff"/>
      <stop offset="1.0" stop-color="#58cffc"/>
    </radialGradient>
    <linearGradient gradientTransform="matrix(-0.0543, 0.0, 0.0, -0.0318, -177.5, -190.95)" gradientUnits="userSpaceOnUse" id="gradient8" spreadMethod="pad" x1="-819.2" x2="819.2">
      <stop offset="0.0" stop-color="#fc6514"/>
      <stop offset="0.403921568627451" stop-color="#efa427"/>
      <stop offset="1.0" stop-color="#cfa205"/>
    </linearGradient>
    <radialGradient cx="0" cy="0" gradientTransform="matrix(0.1779, 0.0, 0.0, 0.1779, -180.0, -299.85)" gradientUnits="userSpaceOnUse" id="gradient9" r="819.2" spreadMethod="pad">
      <stop offset="0.0" stop-color="#ffffff"/>
      <stop offset="1.0" stop-color="#000000"/>
    </radialGradient>
    <radialGradient cx="0" cy="0" gradientTransform="matrix(0.5187, 0.0, 0.0, 0.5187, -268.15, -196.5)" gradientUnits="userSpaceOnUse" id="gradient10" r="819.2" spreadMethod="pad">
      <stop offset="0.0" stop-color="#fcc91b"/>
      <stop offset="0.34509803921568627" stop-color="#eff931"/>
      <stop offset="0.6666666666666666" stop-color="#fefded"/>
      <stop offset="0.8274509803921568" stop-color="#f0efe1"/>
      <stop offset="1.0" stop-color="#888888"/>
    </radialGradient>
    <radialGradient cx="0" cy="0" gradientTransform="matrix(0.0269, 0.0, 0.0, 0.0269, -186.9, -370.55)" gradientUnits="userSpaceOnUse" id="gradient11" r="819.2" spreadMethod="pad">
      <stop offset="0.0" stop-color="#ffffff"/>
      <stop offset="1.0" stop-color="#000000"/>
    </radialGradient>
    <radialGradient cx="0" cy="0" gradientTransform="matrix(0.0405, 0.0, 0.0, 0.0405, -237.2, -244.15)" gradientUnits="userSpaceOnUse" id="gradient12" r="819.2" spreadMethod="pad">
      <stop offset="0.0" stop-color="#ffffff"/>
      <stop offset="1.0" stop-color="#000000"/>
    </radialGradient>
    <radialGradient cx="0" cy="0" gradientTransform="matrix(0.0285, 0.0, 0.0, 0.0285, -225.6, -245.9)" gradientUnits="userSpaceOnUse" id="gradient13" r="819.2" spreadMethod="pad">
      <stop offset="0.0" stop-color="#f2feff"/>
      <stop offset="1.0" stop-color="#58cffc"/>
    </radialGradient>
    <radialGradient cx="0" cy="0" gradientTransform="matrix(0.0277, 0.0, 0.0, 0.0277, -200.35, -239.3)" gradientUnits="userSpaceOnUse" id="gradient14" r="819.2" spreadMethod="pad">
      <stop offset="0.0" stop-color="#f2feff"/>
      <stop offset="1.0" stop-color="#58cffc"/>
    </radialGradient>
    <linearGradient gradientTransform="matrix(-0.0421, 0.0, 0.0, -0.0127, -174.7, -169.4)" gradientUnits="userSpaceOnUse" id="gradient15" spreadMethod="pad" x1="-819.2" x2="819.2">
      <stop offset="0.0" stop-color="#fc6514"/>
      <stop offset="0.403921568627451" stop-color="#efa427"/>
      <stop offset="1.0" stop-color="#cfa205"/>
    </linearGradient>
    <radialGradient cx="0" cy="0" gradientTransform="matrix(0.1565, 0.0, 0.0, 0.1565, -135.25, -145.65)" gradientUnits="userSpaceOnUse" id="gradient16" r="819.2" spreadMethod="pad">
      <stop offset="0.0" stop-color="#a0a0a0"/>
      <stop offset="1.0" stop-color="#000000"/>
    </radialGradient>
    <radialGradient cx="0" cy="0" gradientTransform="matrix(-0.2059, 0.0, 0.0, 0.2059, -17.2, -42.0)" gradientUnits="userSpaceOnUse" id="gradient17" r="819.2" spreadMethod="pad">
      <stop offset="0.0" stop-color="#ffffff"/>
      <stop offset="1.0" stop-color="#000000"/>
    </radialGradient>
    <radialGradient cx="0" cy="0" gradientTransform="matrix(0.0721, 0.0, 0.0, 0.0721, -282.6, -89.85)" gradientUnits="userSpaceOnUse" id="gradient18" r="819.2" spreadMethod="pad">
      <stop offset="0.0" stop-color="#b9b9b9"/>
      <stop offset="1.0" stop-color="#000000"/>
    </radialGradient>
    <radialGradient cx="0" cy="0" gradientTransform="matrix(0.1872, 0.0, 0.0, 0.1872, -323.05, 82.45)" gradientUnits="userSpaceOnUse" id="gradient19" r="819.2" spreadMethod="pad">
      <stop offset="0.0" stop-color="#b9b9b9"/>
      <stop offset="1.0" stop-color="#000000"/>
    </radialGradient>
    <radialGradient cx="0" cy="0" gradientTransform="matrix(0.0524, 0.0, 0.0, 0.0524, -103.45, -94.75)" gradientUnits="userSpaceOnUse" id="gradient20" r="819.2" spreadMethod="pad">
      <stop offset="0.0" stop-color="#b9b9b9"/>
      <stop offset="1.0" stop-color="#000000"/>
    </radialGradient>
    <radialGradient cx="0" cy="0" gradientTransform="matrix(0.2184, 0.0, 0.0, 0.2184, -58.65, 75.9)" gradientUnits="userSpaceOnUse" id="gradient21" r="819.2" spreadMethod="pad">
      <stop offset="0.0" stop-color="#b9b9b9"/>
      <stop offset="1.0" stop-color="#000000"/>
    </radialGradient>
    <linearGradient gradientTransform="matrix(-0.079, 0.0, 0.0, -0.0347, -326.2, 223.2)" gradientUnits="userSpaceOnUse" id="gradient22" spreadMethod="pad" x1="-819.2" x2="819.2">
      <stop offset="0.0" stop-color="#fc6514"/>
      <stop offset="0.403921568627451" stop-color="#efa427"/>
      <stop offset="1.0" stop-color="#cfa205"/>
    </linearGradient>
    <linearGradient gradientTransform="matrix(-0.0274, 0.0, 0.0, -0.024, -85.3, 234.25)" gradientUnits="userSpaceOnUse" id="gradient23" spreadMethod="pad" x1="-819.2" x2="819.2">
      <stop offset="0.0" stop-color="#fc6514"/>
      <stop offset="0.403921568627451" stop-color="#efa427"/>
      <stop offset="1.0" stop-color="#cfa205"/>
    </linearGradient>
  </defs>
</svg>
