<?xml version="1.0" encoding="UTF-8" standalone="no"?>
<svg xmlns:xlink="http://www.w3.org/1999/xlink" height="657.8px" width="504.8px" xmlns="http://www.w3.org/2000/svg">
  <g transform="matrix(1.0, 0.0, 0.0, 1.0, 419.25, 395.05)">
    <path d="M-199.4 -344.65 L-199.55 -344.55 -192.45 -342.35 -189.7 -344.9 Q-170.6 -343.05 -153.9 -336.3 -152.4 -337.15 -149.9 -336.8 L-147.7 -336.1 Q-138.65 -333.8 -134.7 -326.55 L-134.7 -326.45 Q-119.05 -316.5 -106.0 -301.35 -88.4 -280.95 -83.9 -256.2 L-84.35 -268.3 Q-84.35 -269.3 -82.6 -268.85 -76.9 -215.0 -63.8 -163.0 L-63.2 -163.15 Q-32.5 -128.85 -2.1 -92.15 L-0.65 -90.45 0.3 -87.15 1.3 -83.85 Q40.3 -28.0 75.8 31.55 92.0 58.75 81.25 89.55 62.3 88.25 42.95 81.3 31.6 75.4 20.65 69.2 -7.85 54.1 -27.15 29.0 L-28.5 42.4 -28.1 42.65 Q-24.7 47.75 -23.45 53.65 -21.6 62.4 -23.05 70.95 L-24.0 72.25 -24.75 73.65 -24.1 77.8 Q-22.5 82.6 -21.4 87.65 -14.7 118.15 -24.0 144.1 -25.3 153.15 -27.3 162.25 L-25.95 167.8 Q-33.25 175.3 -33.75 183.4 -35.9 187.75 -38.5 190.9 -41.45 194.3 -44.95 196.3 L-46.2 196.9 Q-38.95 182.65 -35.45 167.15 L-36.0 166.5 -38.15 155.05 Q-31.5 146.05 -29.4 133.1 L-29.9 132.45 -31.75 130.05 Q-32.15 122.95 -31.5 116.4 -29.35 94.15 -31.15 73.8 L-32.55 69.3 -32.6 69.6 -33.3 67.5 Q-32.75 65.2 -32.45 62.65 L-34.25 52.5 Q-32.1 50.7 -34.8 48.2 -36.45 46.7 -37.5 44.3 L-39.95 44.65 Q-42.85 45.55 -44.75 48.0 -49.45 49.25 -48.7 45.55 L-47.55 44.35 Q-42.8 40.1 -37.15 37.75 L-36.1 38.2 Q-35.05 38.75 -34.05 39.25 -34.85 36.05 -35.95 33.0 L-35.4 13.55 -37.3 11.15 -38.65 9.85 -39.75 6.4 Q-48.05 -18.7 -57.0 -43.35 L-57.0 -43.4 Q-64.1 -63.05 -71.6 -82.4 -75.2 -80.9 -77.8 -84.55 -87.3 -97.8 -99.3 -108.3 -105.85 -110.8 -110.2 -106.35 L-110.5 -105.45 Q-110.4 -100.05 -105.35 -95.2 -95.9 -86.05 -88.1 -76.3 -74.45 -59.25 -65.75 -40.2 -68.95 -35.6 -69.95 -30.35 L-70.05 -29.15 Q-67.2 -16.95 -60.55 -6.55 -57.05 -1.05 -54.25 4.65 -58.15 6.8 -58.95 11.9 L-59.15 12.6 -63.4 6.05 Q-77.1 -17.3 -69.35 -42.65 -71.05 -47.4 -74.8 -51.25 -98.1 -75.5 -115.6 -103.0 L-115.35 -104.1 -113.25 -110.2 Q-113.05 -111.0 -112.3 -111.6 L-110.1 -112.35 -97.9 -113.25 Q-94.7 -111.15 -91.25 -107.65 -79.8 -96.1 -71.85 -83.05 -81.15 -106.95 -91.0 -130.45 -91.0 -133.8 -91.4 -136.75 -92.45 -144.6 -92.45 -152.6 L-90.6 -155.05 -89.55 -156.3 -89.1 -158.55 Q-85.6 -166.5 -79.8 -173.55 L-76.2 -173.95 -75.15 -173.45 -71.45 -171.15 Q-77.9 -196.8 -81.15 -223.25 -83.0 -238.55 -83.8 -254.1 -90.9 -257.75 -94.8 -269.05 -105.85 -300.9 -133.5 -319.5 L-134.95 -321.15 -135.9 -322.25 -136.4 -322.8 -136.95 -323.05 -138.35 -322.05 -139.7 -322.25 Q-147.4 -325.05 -153.85 -329.45 -169.3 -334.5 -185.35 -336.6 L-185.65 -335.55 Q-198.25 -332.4 -211.65 -338.05 L-212.0 -338.05 -227.05 -337.65 Q-252.55 -331.45 -269.2 -313.4 -279.95 -301.8 -289.1 -289.05 -296.8 -278.35 -303.4 -266.8 L-304.1 -265.55 -304.1 -263.9 -304.2 -262.25 -304.6 -260.6 Q-315.95 -236.45 -310.35 -209.5 -302.6 -218.4 -293.65 -226.05 L-289.75 -226.3 Q-296.0 -234.7 -296.55 -244.1 -295.65 -244.1 -294.95 -243.7 -289.85 -240.55 -290.05 -235.5 -288.55 -232.2 -286.9 -229.85 -279.05 -213.1 -254.85 -208.55 -253.55 -206.2 -253.15 -203.75 L-252.8 -200.45 -251.05 -202.3 Q-246.3 -207.25 -244.9 -202.25 -244.9 -201.65 -245.2 -201.35 L-248.5 -197.65 -249.35 -197.8 -249.4 -197.6 -252.0 -196.4 Q-252.4 -193.85 -254.45 -192.3 L-254.45 -190.65 -254.45 -187.35 Q-250.65 -184.15 -245.7 -185.95 L-245.0 -185.15 -244.25 -184.3 -240.4 -184.3 Q-231.6 -179.3 -221.75 -176.0 L-222.0 -174.75 Q-211.65 -171.95 -201.9 -164.9 -200.8 -166.15 -200.05 -167.55 -193.9 -178.3 -182.4 -183.4 L-174.5 -182.8 Q-164.7 -184.7 -155.8 -189.15 -150.4 -187.6 -144.55 -191.45 -144.8 -192.3 -145.05 -192.25 L-147.95 -192.3 Q-146.7 -192.75 -145.55 -193.65 L-145.35 -194.5 -145.3 -194.75 -144.95 -194.65 -145.3 -195.0 -145.3 -195.3 -145.3 -196.95 -145.3 -197.8 -148.5 -198.65 -149.15 -198.6 -149.6 -198.3 -151.7 -199.4 -151.1 -200.35 -147.7 -203.05 Q-145.45 -203.5 -144.5 -201.8 -142.0 -197.25 -138.95 -193.0 L-138.9 -192.9 -138.85 -192.85 -138.8 -192.8 -137.95 -191.6 -137.95 -186.65 -137.95 -180.5 -138.2 -179.35 Q-139.3 -176.55 -141.95 -176.8 -142.5 -178.05 -142.2 -179.05 -139.9 -187.8 -144.05 -193.5 -143.75 -190.5 -143.75 -187.5 L-146.65 -185.95 -146.65 -184.6 Q-153.65 -181.25 -161.1 -179.45 L-161.1 -179.3 -164.8 -174.45 Q-164.75 -173.1 -165.5 -171.6 L-165.65 -170.85 Q-167.3 -169.8 -167.6 -168.35 -168.2 -164.6 -170.75 -161.75 L-171.5 -160.95 -171.55 -159.3 -171.75 -158.45 Q-174.0 -155.95 -174.65 -152.7 -179.6 -149.2 -183.6 -144.7 -188.3 -143.5 -192.35 -141.4 -208.05 -138.95 -221.95 -144.7 -224.75 -148.05 -228.75 -149.1 -230.25 -152.15 -233.1 -154.05 L-233.95 -155.75 -234.05 -156.25 -236.5 -156.8 Q-240.75 -163.05 -243.55 -169.2 -243.55 -170.35 -243.2 -170.9 -247.55 -176.0 -247.0 -181.75 L-247.35 -182.1 -247.5 -182.3 -247.6 -182.45 -248.25 -183.2 -248.3 -183.2 Q-250.15 -182.4 -252.1 -181.75 L-252.9 -182.3 Q-255.95 -183.15 -256.25 -185.85 L-256.45 -185.45 Q-257.0 -184.2 -256.9 -183.0 -256.6 -179.75 -258.0 -177.3 -258.45 -176.6 -259.7 -176.4 -261.0 -176.9 -261.45 -178.05 L-262.2 -174.35 -261.35 -173.65 -260.4 -173.55 Q-258.15 -173.95 -258.25 -171.9 L-258.75 -165.35 Q-257.45 -164.35 -255.95 -163.7 L-256.1 -163.7 Q-257.5 -164.3 -258.75 -165.05 -259.85 -154.65 -262.3 -144.75 L-266.95 -144.9 -266.6 -146.35 -267.65 -145.25 Q-271.15 -141.45 -270.55 -136.6 -264.65 -133.5 -258.6 -136.6 L-257.2 -137.9 -256.1 -139.05 -244.5 -137.85 Q-236.3 -134.7 -235.5 -129.25 -240.35 -129.65 -244.75 -132.2 -244.15 -129.5 -244.7 -125.9 -245.6 -120.3 -243.1 -115.3 -240.8 -119.6 -239.55 -124.25 -238.15 -129.25 -233.7 -128.8 L-233.5 -127.6 Q-233.3 -123.7 -232.35 -126.25 L-231.5 -127.6 Q-227.3 -126.55 -226.85 -121.35 -226.7 -119.55 -225.8 -118.1 L-225.75 -118.1 -223.95 -116.1 -223.95 -118.1 -223.95 -118.15 -223.5 -123.0 -222.85 -124.3 Q-217.8 -124.35 -214.6 -119.15 L-210.95 -113.65 -210.95 -114.45 Q-210.95 -117.55 -211.25 -120.6 -211.5 -122.9 -209.85 -124.3 -207.1 -123.4 -204.85 -120.55 -203.55 -118.9 -203.0 -116.9 L-204.3 -111.95 -204.45 -110.75 Q-204.0 -108.15 -203.2 -105.8 L-203.0 -104.6 Q-204.6 -102.4 -204.15 -99.75 -203.2 -94.35 -207.7 -95.2 -210.25 -98.3 -209.5 -102.55 -208.85 -106.4 -211.65 -108.7 L-212.4 -109.15 Q-212.4 -106.45 -211.85 -103.35 L-211.65 -100.9 -215.65 -100.3 -216.7 -100.9 Q-216.7 -101.55 -217.0 -101.9 -218.75 -104.15 -218.95 -107.0 -219.05 -108.3 -219.95 -109.55 L-219.3 -107.45 Q-218.65 -105.1 -219.1 -102.6 L-219.6 -101.35 Q-224.25 -103.05 -226.1 -108.85 L-229.2 -118.1 -230.1 -120.6 -230.05 -118.1 Q-230.05 -114.15 -230.3 -110.7 -230.7 -104.7 -235.15 -105.05 -237.9 -108.7 -237.3 -113.7 -236.95 -116.7 -236.95 -119.8 -238.05 -116.15 -239.95 -112.9 -240.95 -111.2 -240.55 -109.15 -242.85 -105.85 -245.85 -109.2 L-246.7 -110.35 Q-247.9 -115.85 -248.2 -121.45 L-248.5 -130.05 Q-249.45 -132.85 -255.0 -132.9 L-255.1 -132.9 Q-262.9 -131.35 -270.9 -130.85 L-271.4 -131.55 Q-273.35 -133.15 -274.5 -135.4 -274.5 -136.6 -274.1 -137.7 -268.15 -153.0 -265.85 -167.4 L-265.45 -168.6 -264.75 -170.2 -265.45 -171.05 -266.05 -173.45 Q-266.85 -175.85 -267.3 -178.45 -266.55 -179.7 -266.1 -181.0 L-263.65 -188.3 -262.85 -189.65 Q-261.95 -192.2 -259.85 -193.15 L-259.85 -193.25 Q-260.35 -199.5 -261.5 -205.55 L-262.7 -206.55 Q-265.15 -208.1 -266.85 -209.5 -270.1 -209.6 -273.8 -211.25 -275.6 -213.85 -278.1 -215.7 L-278.2 -215.95 Q-278.65 -217.45 -279.9 -218.65 L-284.2 -219.65 -284.25 -219.9 -287.0 -217.55 -288.6 -221.55 Q-292.8 -221.95 -296.05 -218.25 -302.6 -210.8 -308.7 -202.8 -306.0 -192.4 -304.75 -181.45 -302.5 -161.55 -302.05 -141.05 -299.3 -138.15 -298.95 -134.45 -295.6 -136.15 -291.5 -136.2 -288.55 -134.3 -287.8 -130.85 L-287.6 -128.4 -287.7 -117.85 -289.2 -118.25 -290.25 -119.8 -290.75 -122.6 -289.95 -122.6 -290.9 -123.15 Q-291.75 -127.25 -292.9 -131.3 -296.05 -132.1 -298.7 -129.65 L-299.8 -128.75 -300.25 -127.5 -300.9 -128.2 -311.6 -128.9 -310.75 -132.6 Q-307.2 -148.55 -310.15 -164.55 -313.15 -180.85 -314.1 -196.65 -315.95 -197.25 -317.5 -198.25 L-317.5 -198.95 Q-316.65 -201.9 -314.85 -204.1 L-314.45 -204.55 Q-315.4 -235.85 -308.2 -265.35 -306.2 -273.5 -300.15 -279.95 L-299.75 -280.4 Q-299.5 -281.2 -299.4 -282.05 -299.25 -282.85 -299.25 -283.7 L-299.25 -285.35 Q-296.25 -288.4 -293.9 -291.95 -286.4 -303.4 -276.75 -313.7 -268.0 -323.05 -259.5 -332.7 L-254.15 -334.3 -246.4 -336.5 Q-237.95 -338.8 -230.0 -342.7 L-227.05 -344.25 -214.0 -345.4 Q-211.05 -348.2 -206.25 -346.65 L-203.0 -345.6 -200.15 -345.55 -200.5 -345.0 -199.4 -344.65 M-42.1 201.0 Q-38.8 203.3 -35.65 206.05 L-34.95 206.65 -34.15 207.35 Q-29.3 211.2 -23.4 210.4 L-15.45 209.8 Q11.55 209.3 19.5 232.55 3.45 236.6 -15.5 236.65 L-15.3 237.9 Q-15.15 239.75 -15.3 241.6 L-15.65 242.75 -16.4 244.15 -16.6 245.3 Q-16.95 245.9 -17.45 246.0 -19.7 246.5 -21.9 246.05 -22.55 245.9 -23.1 245.3 -24.35 244.05 -25.85 243.15 -27.45 242.2 -29.15 241.4 L-32.75 239.45 -33.2 239.15 Q-33.95 239.55 -34.7 239.75 L-41.8 241.85 Q-44.95 242.8 -48.05 244.05 -48.2 244.65 -48.5 245.25 L-51.25 251.45 -51.7 252.65 -52.75 255.15 Q-53.1 255.75 -53.6 255.9 L-58.85 256.4 -60.3 255.95 -63.2 253.5 -64.75 252.45 Q-66.65 251.45 -68.6 250.6 L-69.45 251.2 Q-90.65 258.2 -111.95 249.8 L-112.65 248.95 Q-117.0 243.75 -118.75 237.65 -119.55 235.05 -120.65 232.8 L-120.9 232.15 -117.0 231.65 -117.0 231.75 -116.65 232.45 -116.05 230.0 Q-116.05 228.7 -116.65 227.7 -116.85 227.05 -116.95 227.1 -133.85 228.25 -135.95 219.7 -153.05 227.7 -174.35 228.6 -194.3 229.4 -204.7 220.95 -208.85 220.25 -212.75 218.85 -224.55 214.7 -234.35 204.3 -236.1 206.9 -239.05 205.5 -248.45 200.4 -253.15 191.15 L-256.75 190.35 Q-257.1 189.7 -257.6 189.2 -264.45 181.6 -270.25 173.85 L-270.35 173.7 Q-278.65 162.55 -284.7 151.0 -281.1 160.25 -279.15 169.6 -277.5 173.35 -275.2 176.85 L-275.05 177.1 -271.9 181.3 -277.1 181.5 Q-284.15 172.5 -286.75 162.3 L-287.75 160.45 Q-295.55 145.25 -293.75 133.45 -296.65 128.35 -299.8 123.45 L-300.4 122.2 Q-303.2 115.25 -300.85 108.7 -298.35 109.05 -297.05 109.75 -301.05 102.5 -304.4 94.65 -306.55 89.65 -307.9 84.5 L-307.7 81.75 Q-316.95 94.35 -328.55 103.7 L-337.95 108.6 -338.35 109.45 -338.1 110.45 Q-336.75 115.3 -334.4 119.7 -333.65 130.5 -329.4 141.55 L-328.3 142.75 -327.25 144.0 Q-327.2 148.9 -324.65 153.0 -321.35 158.25 -317.1 162.45 L-317.1 163.7 -316.95 164.85 -316.4 166.15 Q-313.75 170.6 -309.95 174.45 -305.95 178.5 -304.1 183.4 -308.1 184.25 -311.45 181.0 L-311.5 180.95 -312.4 180.0 Q-317.5 174.1 -321.6 168.15 -320.3 170.4 -318.6 172.5 -314.95 177.0 -312.7 182.1 L-312.65 182.2 Q-311.6 184.5 -310.9 187.0 L-308.45 190.3 Q-307.25 191.95 -306.55 193.8 L-304.75 197.9 -304.1 199.1 -304.0 199.3 -302.15 202.2 -305.7 202.55 -304.4 205.15 Q-303.35 203.7 -300.85 203.45 -299.9 203.65 -299.65 204.2 -296.55 210.1 -291.8 212.9 L-291.4 212.05 Q-291.0 207.65 -287.45 207.15 -286.55 207.75 -285.95 208.6 -282.7 213.3 -282.75 208.0 L-281.95 207.45 -268.7 219.05 -269.65 216.55 Q-270.35 214.2 -270.15 211.65 -267.9 208.75 -264.35 210.45 -262.05 212.6 -258.95 212.9 L-258.65 210.85 -258.55 208.4 Q-251.05 206.7 -244.1 214.15 -244.05 207.45 -236.55 210.85 L-235.45 212.1 -232.2 215.75 -232.15 216.1 Q-222.25 222.85 -213.6 221.05 -222.55 224.5 -231.15 221.95 -228.25 225.35 -224.75 227.95 -218.55 232.5 -215.2 239.1 L-212.1 239.45 -210.55 241.2 -208.6 245.45 Q-224.8 244.25 -240.55 240.35 -240.05 243.65 -240.8 246.65 -242.5 253.55 -244.9 260.05 -251.7 265.5 -259.7 260.05 L-261.2 258.95 Q-268.95 253.9 -271.95 245.3 -281.35 250.3 -291.1 253.9 L-292.2 255.15 -293.3 256.35 Q-299.35 259.25 -305.55 259.65 L-307.25 254.95 Q-309.3 249.8 -309.2 244.05 L-320.5 244.65 -320.75 244.9 Q-324.8 245.45 -327.95 248.2 -331.25 249.6 -333.75 249.4 -329.0 246.95 -325.05 241.0 L-324.9 240.9 -324.85 240.75 -323.4 238.3 -323.15 238.15 -320.25 237.0 Q-309.95 224.25 -297.05 216.35 -299.0 215.75 -300.9 214.45 -300.55 216.0 -299.8 217.45 -302.1 220.75 -304.85 217.45 L-304.85 216.2 -304.85 211.25 -305.9 210.05 Q-310.2 204.9 -310.3 199.25 L-316.6 186.95 -316.9 186.35 Q-323.4 174.1 -330.3 162.25 -331.85 159.5 -334.15 157.3 -338.4 135.2 -341.5 112.7 L-350.25 117.4 -351.3 117.65 -351.2 117.9 Q-369.8 126.65 -392.7 129.65 L-403.4 130.75 Q-408.0 131.1 -410.0 125.95 L-410.95 117.55 -411.25 115.95 -403.55 97.0 -399.85 88.0 -406.95 89.9 -405.9 89.3 -403.75 87.45 -399.35 86.75 -319.35 -109.35 -317.85 -113.15 Q-318.0 -119.35 -318.5 -125.5 L-308.1 -128.2 -307.25 -127.7 Q-307.4 -125.95 -307.85 -123.95 L-305.75 -117.1 -309.9 -104.25 -311.45 -104.15 -311.55 -104.35 -318.5 -93.75 -318.25 -96.9 -321.65 -88.8 -336.6 -65.05 Q-344.4 -52.45 -341.6 -41.3 -368.25 22.4 -394.0 85.9 L-394.05 86.05 -401.25 103.85 -403.15 108.5 Q-407.55 119.4 -402.35 127.5 L-400.75 127.35 -393.75 126.5 Q-365.4 122.3 -342.5 105.05 L-339.8 102.95 Q-329.95 95.0 -321.1 84.6 L-307.9 69.4 -306.35 67.7 -301.95 62.9 -301.95 62.75 -301.8 62.0 -301.2 61.6 Q-298.3 59.6 -294.95 56.7 -291.8 53.95 -289.7 51.05 L-292.35 54.75 -292.1 55.4 -292.05 55.4 -287.5 65.95 -291.15 68.95 -293.2 64.2 -294.75 60.35 -294.85 60.2 -296.65 63.75 -296.35 64.55 -297.9 66.15 Q-301.15 72.15 -304.8 77.65 -303.6 81.95 -301.4 86.25 -292.95 102.55 -292.9 116.9 L-295.9 111.8 Q-296.2 112.6 -297.25 113.6 -294.3 122.8 -290.25 132.0 L-285.35 137.4 Q-285.9 139.15 -286.75 139.6 L-281.0 150.55 -282.2 150.35 Q-273.95 160.4 -266.55 171.3 L-266.55 171.35 -262.9 176.8 Q-263.1 175.8 -263.55 174.9 -264.75 172.55 -264.35 169.85 -263.35 166.1 -259.65 165.75 -257.55 166.55 -256.8 168.75 L-248.45 192.4 Q-244.5 197.3 -240.15 198.95 L-241.15 197.7 Q-245.85 191.25 -240.85 188.7 -234.75 201.75 -220.65 207.55 -220.1 208.2 -219.85 208.9 -219.05 211.05 -217.4 212.5 -200.95 215.85 -188.3 219.85 -161.9 223.65 -136.15 218.7 L-136.15 218.65 Q-130.9 217.35 -126.3 217.15 -115.8 216.65 -109.05 221.95 L-109.0 224.35 Q-109.15 227.85 -110.25 231.0 -111.65 235.1 -114.55 236.05 L-114.9 236.15 -114.15 237.75 -110.5 245.3 Q-85.95 251.85 -62.5 247.75 L-60.25 250.1 Q-57.65 252.65 -55.25 251.05 -55.2 248.15 -54.1 245.8 L-52.0 241.2 Q-43.15 236.3 -32.85 234.6 -30.7 235.45 -28.7 236.6 L-25.65 238.2 -25.45 238.3 Q-22.6 239.65 -19.85 240.35 -19.3 239.75 -19.35 239.2 L-19.6 237.4 -19.65 237.15 -19.8 236.6 Q-20.05 235.45 -19.85 234.2 -2.45 229.5 14.8 229.7 14.85 227.25 12.95 226.1 9.7 224.15 7.25 221.1 -12.35 216.65 -31.4 215.75 L-32.9 214.55 Q-37.85 210.6 -43.1 207.1 L-43.05 206.95 Q-42.05 204.0 -42.1 201.0 M-288.75 49.65 Q-284.35 42.7 -285.75 35.0 -272.75 12.05 -275.4 -15.5 L-280.65 -69.05 -281.2 -74.7 -281.35 -76.15 Q-281.85 -81.1 -282.65 -85.8 L-284.35 -94.35 -282.6 -87.6 -279.8 -76.0 -278.8 -71.6 -276.9 -62.95 -276.9 -63.9 -276.75 -74.15 -276.7 -77.05 -274.6 -80.3 -274.7 -81.0 -273.6 -82.2 Q-263.9 -92.7 -258.25 -105.45 -260.45 -111.1 -268.05 -109.05 -275.45 -107.05 -280.45 -102.0 L-282.0 -105.45 Q-272.5 -113.6 -256.8 -111.6 L-255.35 -110.8 -253.0 -109.3 -252.3 -108.25 -252.1 -107.1 Q-259.4 -91.9 -271.9 -79.4 L-274.25 -76.95 Q-273.5 -67.75 -274.75 -58.2 -273.75 -55.05 -273.6 -51.9 -272.55 -26.75 -270.15 -0.5 -273.05 26.1 -288.75 49.65 M-284.95 -95.95 Q-286.0 -95.4 -287.15 -95.6 L-288.0 -96.2 -288.25 -97.4 Q-288.4 -98.05 -288.2 -98.6 L-287.4 -100.25 -286.65 -101.4 -286.75 -102.5 -286.7 -102.95 Q-289.4 -111.65 -293.3 -119.55 L-294.75 -122.4 -292.35 -122.5 -291.2 -118.85 -286.65 -103.05 Q-286.05 -106.0 -285.0 -108.55 L-284.3 -110.1 -282.1 -105.75 -282.3 -105.2 -282.9 -102.65 -282.75 -101.4 -282.45 -100.2 -282.35 -99.9 -282.05 -99.0 -283.15 -97.65 -283.4 -97.3 Q-284.05 -96.45 -284.95 -95.95 M-275.55 -244.05 Q-278.8 -256.85 -268.6 -266.2 L-271.25 -266.65 -272.7 -267.85 Q-279.2 -273.2 -276.3 -280.2 -264.65 -270.55 -248.5 -268.7 L-248.05 -267.85 Q-247.9 -266.85 -248.0 -265.85 -237.8 -262.7 -230.65 -253.8 -222.0 -243.05 -225.4 -232.8 L-222.15 -234.7 -219.95 -235.9 -193.25 -236.3 Q-188.6 -233.25 -183.8 -231.05 L-184.95 -232.2 Q-182.55 -243.85 -177.9 -254.45 -175.2 -260.65 -169.4 -265.4 L-167.85 -265.4 Q-153.3 -276.45 -131.85 -276.9 L-131.3 -279.3 -130.4 -281.85 -126.75 -282.25 Q-124.7 -281.55 -125.5 -279.1 -126.35 -276.45 -126.4 -273.5 L-126.75 -273.6 Q-128.15 -273.2 -129.55 -272.6 L-131.45 -271.55 Q-133.65 -268.95 -133.85 -265.95 L-134.35 -265.85 -133.8 -263.8 -133.3 -261.8 -132.55 -257.75 Q-138.0 -237.45 -156.7 -228.1 L-157.8 -225.6 -157.85 -225.45 Q-161.0 -224.35 -164.15 -223.55 L-164.0 -223.15 Q-163.55 -221.1 -164.0 -221.3 -175.35 -225.55 -187.25 -228.1 L-187.3 -228.1 -187.4 -228.15 -187.75 -228.2 Q-202.2 -231.25 -217.45 -231.8 -229.75 -224.05 -239.55 -214.15 -241.95 -211.75 -242.7 -214.95 L-242.4 -215.95 -239.85 -218.65 -238.4 -219.9 -238.3 -220.0 -243.8 -219.7 Q-245.85 -218.85 -248.15 -218.9 L-248.65 -219.9 -248.15 -220.05 -248.75 -220.15 Q-251.75 -225.15 -261.8 -226.85 -270.0 -234.5 -275.55 -244.05 M-119.9 -249.85 L-119.85 -249.4 Q-119.6 -242.0 -121.7 -236.0 L-109.45 -236.3 Q-102.0 -233.95 -95.25 -229.15 -91.05 -226.1 -88.85 -222.35 -89.2 -221.75 -89.7 -221.6 L-92.8 -221.1 Q-105.95 -234.5 -123.9 -231.15 -126.5 -226.65 -130.75 -223.15 L-132.0 -219.45 -132.2 -218.25 -131.05 -215.8 Q-129.5 -212.8 -129.2 -209.65 L-128.95 -208.4 -127.5 -206.3 -130.1 -203.2 Q-127.9 -198.3 -124.95 -193.65 -124.95 -193.0 -125.1 -192.45 -125.6 -190.35 -124.6 -188.7 -118.65 -178.0 -111.95 -167.8 -111.95 -166.55 -111.55 -165.5 -105.85 -150.8 -109.95 -141.5 L-109.45 -141.55 Q-108.55 -141.55 -107.65 -140.3 -107.8 -139.05 -108.4 -138.1 -109.25 -136.6 -110.4 -135.3 L-111.25 -134.15 -115.0 -134.8 -115.25 -134.55 -115.6 -134.9 Q-135.65 -138.3 -155.3 -138.25 L-156.4 -137.0 Q-156.95 -136.4 -157.6 -136.1 -158.75 -135.6 -159.95 -135.7 L-160.65 -135.85 Q-159.7 -124.65 -156.75 -114.05 L-162.15 -112.8 Q-167.45 -118.05 -171.95 -121.55 L-174.1 -123.1 -174.2 -121.85 -174.3 -121.4 Q-176.75 -109.95 -173.35 -99.7 -174.25 -99.7 -174.55 -100.1 -179.6 -107.45 -179.3 -115.85 L-182.4 -115.7 -182.5 -113.25 Q-182.15 -105.6 -183.85 -98.45 L-183.3 -97.35 Q-180.5 -93.1 -178.4 -88.6 L-178.35 -87.4 Q-178.1 -84.1 -181.65 -84.5 -182.4 -84.95 -182.65 -85.55 L-186.45 -95.05 Q-188.45 -93.25 -190.7 -96.0 L-190.9 -97.15 Q-192.85 -101.95 -193.6 -107.1 -196.65 -111.25 -199.35 -115.7 L-199.45 -116.9 -199.5 -117.2 Q-200.05 -121.2 -198.3 -124.3 -197.4 -124.3 -197.1 -123.9 L-192.85 -118.15 Q-194.45 -115.65 -192.85 -113.25 L-192.4 -112.05 Q-189.9 -107.05 -187.85 -101.9 -187.6 -113.95 -181.65 -121.45 L-180.6 -121.0 -178.85 -120.05 -178.6 -121.1 -177.35 -125.55 Q-175.4 -129.0 -171.9 -129.25 -167.95 -123.95 -163.65 -120.35 L-161.8 -118.95 -162.0 -120.15 Q-165.55 -129.85 -162.15 -137.45 L-161.1 -137.45 Q-154.45 -145.45 -142.65 -144.4 -128.9 -139.85 -114.95 -139.1 L-112.7 -141.55 -112.7 -144.0 Q-112.8 -154.9 -115.6 -164.9 -124.0 -181.1 -135.45 -195.25 L-135.95 -196.4 Q-142.45 -206.75 -140.7 -217.05 -122.9 -230.65 -119.9 -249.85 M-154.0 -232.7 Q-147.95 -236.95 -140.85 -240.8 -140.5 -241.4 -140.3 -242.1 -137.05 -253.85 -137.75 -265.45 L-140.65 -264.4 -140.75 -264.95 Q-141.15 -266.7 -142.7 -267.4 L-144.1 -267.9 -146.85 -267.3 -145.8 -266.4 Q-144.1 -265.0 -142.85 -263.25 L-142.3 -262.15 -142.3 -259.7 -142.4 -257.25 -142.65 -256.0 Q-145.2 -251.55 -149.3 -248.8 L-153.35 -245.85 -151.8 -244.05 -150.95 -242.85 -150.95 -240.4 -150.95 -237.95 -150.95 -236.7 Q-152.6 -234.85 -154.55 -233.45 L-160.35 -229.3 Q-167.95 -226.1 -171.55 -231.8 -172.2 -235.4 -171.45 -239.05 L-171.15 -240.2 -173.35 -242.05 -174.35 -243.35 Q-175.6 -245.4 -176.05 -247.65 L-177.3 -243.35 -178.2 -240.7 Q-179.7 -236.7 -179.85 -232.2 -181.15 -230.35 -182.55 -230.55 -175.4 -227.5 -167.9 -226.45 -165.65 -226.15 -164.55 -224.3 -159.75 -228.7 -154.0 -232.7 M-151.6 -267.3 L-149.65 -267.35 -146.75 -267.95 -151.35 -267.45 -151.6 -267.3 M-156.75 -262.95 L-157.55 -262.25 Q-166.95 -255.6 -172.3 -247.8 -168.0 -246.0 -163.75 -246.3 L-162.15 -247.35 -158.3 -247.6 Q-153.7 -249.5 -149.15 -253.95 L-148.35 -255.05 Q-144.25 -259.3 -148.45 -262.55 L-156.75 -262.95 M-157.05 -242.8 L-157.45 -242.45 Q-160.0 -242.05 -162.05 -240.8 -163.6 -239.85 -165.0 -239.45 -166.95 -237.45 -168.3 -235.05 -167.75 -234.45 -167.2 -234.4 -152.0 -233.65 -157.05 -242.8 M-154.3 -197.5 L-155.95 -198.05 -156.9 -198.9 -157.65 -199.7 -160.45 -199.85 Q-170.35 -208.4 -182.15 -212.6 L-185.65 -213.7 -185.65 -213.3 -213.1 -217.0 Q-218.25 -214.25 -221.0 -209.65 -226.1 -205.35 -230.4 -200.5 -236.6 -195.85 -243.55 -192.25 -229.7 -217.4 -202.9 -221.25 L-202.65 -221.25 -200.45 -221.55 -199.75 -221.3 -188.9 -221.55 Q-176.9 -218.05 -166.75 -210.35 -160.6 -205.65 -156.4 -199.75 L-156.4 -199.8 Q-155.3 -199.6 -155.05 -199.0 L-154.3 -197.5 M-246.85 -226.15 Q-249.85 -226.55 -251.75 -229.3 -253.45 -231.35 -253.55 -234.25 -253.55 -235.65 -253.95 -237.0 -257.7 -237.65 -261.15 -239.6 L-266.8 -248.3 -267.3 -249.4 Q-267.85 -255.0 -265.75 -259.85 L-263.6 -263.75 -265.4 -264.1 Q-268.35 -259.25 -272.35 -253.5 -272.35 -251.05 -271.65 -248.8 -270.35 -244.65 -270.55 -240.0 -261.85 -227.9 -247.75 -223.5 -245.0 -222.65 -242.05 -222.1 L-241.3 -222.4 Q-241.35 -223.55 -240.05 -223.85 -237.7 -224.35 -236.8 -222.2 -233.2 -227.2 -228.15 -230.95 -227.35 -238.6 -231.5 -245.55 L-236.6 -254.35 -242.7 -257.0 Q-239.3 -249.7 -240.9 -241.2 L-241.1 -240.95 -239.45 -241.2 Q-237.4 -239.85 -236.6 -236.2 -236.25 -234.45 -236.2 -232.6 -236.9 -230.45 -238.7 -228.85 L-239.85 -227.7 Q-243.9 -225.75 -246.85 -226.15 M-257.9 -259.7 Q-257.9 -259.05 -258.2 -258.85 -261.65 -256.25 -262.95 -252.3 -259.1 -237.6 -244.15 -244.5 L-244.2 -248.2 Q-244.2 -253.55 -247.05 -258.05 L-248.25 -259.0 -250.6 -260.15 -256.7 -262.1 Q-258.4 -261.95 -257.9 -259.7 M-126.8 205.7 Q-129.15 205.65 -131.45 204.7 -131.45 204.1 -131.15 203.85 -126.2 200.15 -119.9 198.15 L-117.95 196.25 Q-114.2 193.0 -112.7 188.7 -111.2 186.4 -114.15 183.8 -110.05 179.8 -105.15 176.35 -99.2 172.15 -96.8 165.35 -101.7 164.9 -105.45 161.25 -101.7 155.65 -97.4 150.55 L-88.1 139.1 Q-85.95 133.75 -88.85 132.5 -92.25 136.3 -96.45 134.55 -95.35 129.45 -92.3 124.85 -88.25 118.75 -83.4 113.65 L-82.95 112.35 Q-82.4 108.7 -79.45 106.25 L-79.5 105.05 Q-79.65 101.75 -78.0 98.85 -79.7 97.8 -82.65 100.1 -87.5 103.95 -92.1 104.6 -91.2 96.45 -88.15 88.6 -83.9 77.75 -81.55 66.4 -82.85 69.3 -86.3 67.25 -87.25 65.05 -85.9 63.1 L-84.15 60.35 Q-84.95 59.3 -85.25 57.85 -83.75 55.2 -81.05 53.2 L-80.7 52.95 Q-77.25 43.5 -77.95 32.8 -77.45 32.2 -77.05 32.3 -73.65 33.2 -73.65 30.85 L-73.65 30.75 -74.55 28.25 Q-77.4 17.9 -76.9 8.6 -70.45 10.85 -67.85 17.65 L-68.0 16.9 Q-71.75 9.55 -66.05 6.55 -65.5 6.65 -65.15 7.1 L-64.65 8.3 Q-61.9 22.35 -66.05 32.0 L-66.75 31.4 -68.0 28.5 -71.45 20.1 Q-71.5 21.95 -71.15 23.75 L-70.25 29.45 Q-69.45 36.3 -70.0 43.5 -72.9 44.7 -74.7 46.75 L-75.15 48.05 Q-76.2 55.2 -79.3 61.65 L-80.05 68.3 Q-80.5 73.5 -79.75 78.55 -83.25 87.6 -86.3 96.8 -82.75 96.3 -79.8 93.95 L-74.4 95.2 -74.4 97.65 Q-74.4 98.85 -74.8 99.95 -76.1 103.45 -75.85 107.5 L-81.3 115.35 -88.5 125.95 Q-88.1 128.1 -83.4 128.8 L-83.15 131.3 Q-83.05 132.5 -83.3 133.7 -83.95 137.4 -84.85 141.15 -87.7 144.65 -89.95 148.5 -92.65 153.05 -96.05 157.15 -98.6 158.85 -93.9 161.25 -91.95 167.05 -95.95 172.4 -100.95 179.1 -107.6 184.6 L-107.65 185.85 -107.6 189.55 Q-109.8 194.05 -112.7 197.5 -119.8 205.75 -126.8 205.7 M-249.2 -233.4 L-248.0 -232.6 Q-239.65 -230.25 -240.9 -236.3 -241.1 -236.5 -241.25 -236.5 -245.75 -236.55 -249.2 -233.4 M-257.15 -205.1 L-257.15 -205.3 Q-257.7 -202.05 -255.7 -198.95 L-255.75 -200.2 Q-255.9 -202.8 -257.15 -205.1 M-227.65 -193.75 L-223.65 -197.6 Q-221.05 -194.5 -217.45 -192.4 -221.35 -186.65 -227.65 -193.75 M-182.7 -209.15 Q-182.1 -199.95 -189.25 -201.0 L-189.15 -202.2 Q-187.85 -207.95 -183.1 -210.05 -182.7 -209.6 -182.7 -209.15 M-166.85 -179.85 L-175.15 -179.6 -178.35 -177.45 -184.2 -177.65 Q-185.3 -176.4 -186.6 -175.5 -192.3 -171.65 -196.1 -166.05 L-204.05 -161.35 -205.5 -161.65 -206.4 -162.65 -212.0 -167.4 -221.3 -168.05 Q-228.25 -171.3 -235.85 -171.65 -220.9 -157.85 -203.8 -159.1 -187.4 -160.4 -169.05 -175.6 L-168.8 -176.7 -166.85 -179.85 M-173.9 -162.6 Q-171.8 -165.4 -170.4 -168.4 -173.4 -165.5 -176.55 -163.2 -199.1 -146.85 -229.35 -161.2 -235.25 -164.0 -239.2 -167.1 -238.0 -163.85 -235.75 -161.05 L-235.55 -160.4 -232.0 -157.65 -229.0 -155.45 Q-227.9 -154.3 -227.75 -152.95 -224.8 -150.5 -221.7 -149.1 L-220.25 -147.7 -220.0 -147.45 Q-207.8 -142.05 -194.05 -144.45 -180.65 -148.55 -173.9 -160.1 L-173.9 -161.75 -173.9 -162.6 M-51.7 -144.35 L-63.25 -160.75 -62.5 -157.85 -64.65 -159.55 -66.85 -160.3 -68.7 -160.75 -69.95 -165.3 Q-74.45 -167.1 -78.75 -167.8 L-81.75 -163.95 Q-92.4 -148.25 -86.7 -130.85 -85.05 -129.05 -83.8 -126.95 -81.75 -123.65 -81.25 -119.8 -79.4 -118.3 -78.55 -116.2 -70.7 -97.2 -66.45 -76.7 -64.3 -74.65 -63.2 -71.95 -51.5 -44.1 -43.05 -15.65 -41.5 -4.55 -36.1 3.45 L-35.3 5.55 -35.3 4.6 Q-31.6 9.65 -26.2 13.4 L-26.45 18.7 -26.35 19.65 Q-7.05 47.85 22.1 63.7 49.8 81.25 76.9 82.4 85.45 62.5 74.8 44.5 71.5 38.9 70.1 32.85 35.95 -22.0 0.75 -75.8 -1.65 -79.45 -4.55 -82.75 L-4.7 -86.05 -5.0 -87.7 Q-30.95 -116.0 -51.7 -144.35 M-51.4 194.75 L-52.15 196.6 Q-55.9 204.9 -65.0 212.1 -71.2 212.75 -77.3 214.55 L-78.35 215.8 -79.45 217.0 Q-84.95 218.95 -85.25 214.55 -91.8 223.4 -100.75 224.8 -100.75 223.6 -100.15 222.85 -96.45 218.6 -94.25 213.75 L-92.45 213.65 -89.55 213.3 -88.75 212.15 Q-86.85 209.8 -85.6 207.15 -84.5 207.4 -84.25 207.95 L-82.0 212.5 Q-81.25 211.9 -80.8 211.1 -79.3 208.4 -78.35 205.1 -77.65 204.5 -76.9 204.5 -73.7 204.55 -72.95 208.8 L-72.45 208.9 Q-68.7 205.85 -65.35 202.25 L-62.45 202.85 -61.75 202.65 -60.7 201.4 Q-56.95 196.3 -51.65 193.65 L-51.1 193.85 -51.35 194.65 -51.4 194.75 M-318.55 187.95 L-318.5 189.6 -319.85 188.15 -319.65 187.5 Q-318.55 187.7 -318.55 187.95 M-298.9 194.55 L-298.6 196.1 -299.05 195.25 -298.9 194.55 M-238.5 215.6 L-239.05 216.6 -238.95 217.3 -236.45 216.7 Q-237.4 215.75 -238.5 215.6 M-222.35 238.4 Q-221.4 235.8 -223.7 234.0 -232.45 227.2 -239.45 219.8 -240.45 220.85 -243.05 220.3 -248.4 217.2 -252.8 212.9 L-253.85 212.9 Q-252.95 214.9 -253.5 217.8 -254.2 222.85 -259.65 219.85 -261.75 215.8 -266.15 214.95 -265.6 216.2 -265.4 217.45 -265.05 219.85 -265.05 222.35 -266.25 224.4 -268.3 224.3 -269.45 224.25 -270.85 223.55 L-271.65 222.9 Q-272.85 222.15 -274.1 221.5 L-275.25 219.1 Q-276.65 216.45 -277.35 220.3 -284.2 218.45 -287.8 214.55 L-289.6 215.6 -289.05 216.6 Q-302.3 223.35 -313.2 237.0 L-311.2 237.3 -308.45 237.55 -308.6 237.8 Q-306.25 238.35 -304.1 239.15 -304.1 240.35 -304.6 241.35 -305.75 243.8 -305.55 246.5 -305.75 248.55 -304.9 250.4 -304.1 252.05 -303.75 253.9 -291.1 250.55 -278.85 244.05 L-278.45 243.65 Q-273.5 238.5 -268.35 237.1 -267.75 238.85 -267.95 240.8 -268.25 243.3 -267.65 245.7 L-266.85 246.9 Q-262.8 252.7 -256.8 256.75 -247.95 261.3 -248.5 255.95 -246.9 253.7 -246.15 251.0 -244.1 243.7 -245.6 237.5 L-222.35 238.4 M-20.15 202.05 L-16.85 199.45 -16.05 201.75 -20.15 202.05 M-29.7 198.55 L-29.55 197.8 -28.4 199.55 -29.7 198.55 M-123.25 232.25 L-125.25 233.15 -124.95 232.2 -123.25 232.25 M-418.15 91.95 L-419.25 92.1 -419.25 91.85 -418.15 91.95" fill="#000000" fill-rule="evenodd" stroke="none"/>
    <path d="M-156.75 -262.95 L-148.45 -262.55 Q-144.25 -259.3 -148.35 -255.05 L-149.15 -253.95 Q-153.7 -249.5 -158.3 -247.6 L-162.15 -247.35 -163.75 -246.3 Q-168.0 -246.0 -172.3 -247.8 -166.95 -255.6 -157.55 -262.25 L-156.75 -262.95 M-157.05 -242.8 Q-152.0 -233.65 -167.2 -234.4 -167.75 -234.45 -168.3 -235.05 -166.95 -237.45 -165.0 -239.45 -163.6 -239.85 -162.05 -240.8 -160.0 -242.05 -157.45 -242.45 L-157.05 -242.8 M-257.9 -259.7 Q-258.4 -261.95 -256.7 -262.1 L-250.6 -260.15 -248.25 -259.0 -247.05 -258.05 Q-244.2 -253.55 -244.2 -248.2 L-244.15 -244.5 Q-259.1 -237.6 -262.95 -252.3 -261.65 -256.25 -258.2 -258.85 -257.9 -259.05 -257.9 -259.7 M-249.2 -233.4 Q-245.75 -236.55 -241.25 -236.5 -241.1 -236.5 -240.9 -236.3 -239.65 -230.25 -248.0 -232.6 L-249.2 -233.4" fill="#ffffff" fill-rule="evenodd" stroke="none"/>
    <path d="M-51.7 -144.35 Q-30.95 -116.0 -5.0 -87.7 L-4.7 -86.05 -4.55 -82.75 Q-1.65 -79.45 0.75 -75.8 35.95 -22.0 70.1 32.85 71.5 38.9 74.8 44.5 85.45 62.5 76.9 82.4 49.8 81.25 22.1 63.7 -7.05 47.85 -26.35 19.65 L-26.45 18.7 -26.2 13.4 Q-31.6 9.65 -35.3 4.6 L-35.3 5.55 -36.1 3.45 Q-41.5 -4.55 -43.05 -15.65 -51.5 -44.1 -63.2 -71.95 -64.3 -74.65 -66.45 -76.7 -70.7 -97.2 -78.55 -116.2 -79.4 -118.3 -81.25 -119.8 -81.75 -123.65 -83.8 -126.95 -85.05 -129.05 -86.7 -130.85 -92.4 -148.25 -81.75 -163.95 L-78.75 -167.8 Q-74.45 -167.1 -69.95 -165.3 L-68.7 -160.75 -66.85 -160.3 -64.65 -159.55 -62.5 -157.85 Q-60.75 -156.3 -59.5 -154.35 L-52.85 -143.55 -51.7 -144.35" fill="url(#gradient0)" fill-rule="evenodd" stroke="none"/>
    <path d="M-44.95 196.3 L-42.1 201.0 Q-42.05 204.0 -43.05 206.95 L-43.1 207.1 Q-37.85 210.6 -32.9 214.55 L-31.4 215.75 Q-12.35 216.65 7.25 221.1 9.7 224.15 12.95 226.1 14.85 227.25 14.8 229.7 -2.45 229.5 -19.85 234.2 -20.05 235.45 -19.8 236.6 L-19.65 237.15 -25.65 238.2 -28.7 236.6 Q-30.7 235.45 -32.85 234.6 -43.15 236.3 -52.0 241.2 L-54.1 245.8 Q-55.2 248.15 -55.25 251.05 -57.65 252.65 -60.25 250.1 L-62.5 247.75 Q-85.95 251.85 -110.5 245.3 L-114.15 237.75 -114.55 236.05 Q-111.65 235.1 -110.25 231.0 -109.15 227.85 -109.0 224.35 L-100.75 224.8 Q-91.8 223.4 -85.25 214.55 -84.95 218.95 -79.45 217.0 L-78.35 215.8 -77.3 214.55 Q-71.2 212.75 -65.0 212.1 -55.9 204.9 -52.15 196.6 L-51.4 194.75 -46.2 196.9 -44.95 196.3" fill="url(#gradient1)" fill-rule="evenodd" stroke="none"/>
    <path d="M-286.9 -229.85 Q-288.55 -232.2 -290.05 -235.5 -289.85 -240.55 -294.95 -243.7 -295.65 -244.1 -296.55 -244.1 -296.0 -234.7 -289.75 -226.3 L-293.65 -226.05 Q-302.6 -218.4 -310.35 -209.5 -315.95 -236.45 -304.6 -260.6 L-304.2 -262.25 -304.1 -263.9 -304.1 -265.55 -303.4 -266.8 Q-296.8 -278.35 -289.1 -289.05 -279.95 -301.8 -269.2 -313.4 -252.55 -331.45 -227.05 -337.65 L-212.0 -338.05 -211.65 -338.05 Q-198.25 -332.4 -185.65 -335.55 L-185.35 -336.6 Q-169.3 -334.5 -153.85 -329.45 -147.4 -325.05 -139.7 -322.25 L-138.35 -322.05 -136.95 -323.05 -136.4 -322.8 -135.9 -322.25 -134.95 -321.15 -133.5 -319.5 Q-105.85 -300.9 -94.8 -269.05 -90.9 -257.75 -83.8 -254.1 -83.0 -238.55 -81.15 -223.25 L-88.85 -222.35 Q-91.05 -226.1 -95.25 -229.15 -102.0 -233.95 -109.45 -236.3 L-121.7 -236.0 Q-119.6 -242.0 -119.85 -249.4 L-119.9 -249.85 Q-118.6 -258.05 -120.05 -267.25 -120.5 -270.1 -122.75 -272.4 L-124.6 -273.1 -126.4 -273.5 Q-126.35 -276.45 -125.5 -279.1 -124.7 -281.55 -126.75 -282.25 L-130.4 -281.85 -131.3 -279.3 -131.85 -276.9 Q-153.3 -276.45 -167.85 -265.4 L-169.4 -265.4 Q-175.2 -260.65 -177.9 -254.45 -182.55 -243.85 -184.95 -232.2 L-183.8 -231.05 Q-188.6 -233.25 -193.25 -236.3 L-219.95 -235.9 -222.15 -234.7 -225.4 -232.8 Q-222.0 -243.05 -230.65 -253.8 -237.8 -262.7 -248.0 -265.85 -247.9 -266.85 -248.05 -267.85 L-248.5 -268.7 Q-264.65 -270.55 -276.3 -280.2 -279.2 -273.2 -272.7 -267.85 L-271.25 -266.65 -268.6 -266.2 Q-278.8 -256.85 -275.55 -244.05 -278.65 -249.3 -280.95 -255.15 L-285.6 -256.95 -285.65 -257.2 -288.45 -256.2 -290.35 -255.15 Q-291.75 -240.2 -286.9 -229.85 M-133.85 -265.95 L-133.8 -263.8 -134.35 -265.85 -133.85 -265.95 M-133.3 -261.8 Q-132.65 -259.95 -132.5 -258.05 L-132.55 -257.75 -133.3 -261.8" fill="url(#gradient2)" fill-rule="evenodd" stroke="none"/>
    <path d="M-126.4 -273.5 L-124.6 -273.1 -122.75 -272.4 Q-120.5 -270.1 -120.05 -267.25 -118.6 -258.05 -119.9 -249.85 -122.9 -230.65 -140.7 -217.05 L-140.8 -217.0 Q-146.9 -214.0 -153.45 -214.95 L-156.1 -217.25 Q-157.95 -219.25 -158.5 -221.95 -158.55 -223.8 -157.85 -225.45 L-157.8 -225.6 -156.7 -228.1 Q-138.0 -237.45 -132.55 -257.75 L-132.5 -258.05 Q-132.65 -259.95 -133.3 -261.8 L-133.8 -263.8 -133.85 -265.95 Q-133.65 -268.95 -131.45 -271.55 L-129.55 -272.6 Q-128.15 -273.2 -126.75 -273.6 L-126.4 -273.5" fill="url(#gradient3)" fill-rule="evenodd" stroke="none"/>
    <path d="M-154.55 -233.45 Q-152.6 -234.85 -150.95 -236.7 L-150.95 -237.95 -150.95 -240.4 -150.95 -242.85 -151.8 -244.05 -153.35 -245.85 -149.3 -248.8 Q-145.2 -251.55 -142.65 -256.0 L-142.4 -257.25 -142.3 -259.7 -142.3 -262.15 -142.85 -263.25 Q-144.1 -265.0 -145.8 -266.4 L-146.85 -267.3 -144.1 -267.9 -142.7 -267.4 Q-141.15 -266.7 -140.75 -264.95 L-140.65 -264.4 -137.75 -265.45 Q-137.05 -253.85 -140.3 -242.1 -140.5 -241.4 -140.85 -240.8 -147.95 -236.95 -154.0 -232.7 L-154.55 -233.45" fill="url(#gradient4)" fill-rule="evenodd" stroke="none"/>
    <path d="M-88.85 -222.35 L-81.15 -223.25 Q-77.9 -196.8 -71.45 -171.15 L-75.15 -173.45 -76.2 -173.95 -79.8 -173.55 Q-85.6 -166.5 -89.1 -158.55 L-89.55 -156.3 -90.6 -155.05 -92.45 -152.6 Q-92.45 -144.6 -91.4 -136.75 -91.0 -133.8 -91.0 -130.45 -81.15 -106.95 -71.85 -83.05 -79.8 -96.1 -91.25 -107.65 -94.7 -111.15 -97.9 -113.25 L-110.1 -112.35 -112.3 -111.6 Q-113.05 -111.0 -113.25 -110.2 L-115.35 -104.1 -115.6 -103.0 Q-98.1 -75.5 -74.8 -51.25 -71.05 -47.4 -69.35 -42.65 -77.1 -17.3 -63.4 6.05 L-65.15 7.1 Q-65.5 6.65 -66.05 6.55 -71.75 9.55 -68.0 16.9 L-67.85 17.65 Q-70.45 10.85 -76.9 8.6 -77.4 17.9 -74.55 28.25 L-73.65 30.75 -73.65 30.85 Q-73.65 33.2 -77.05 32.3 -77.45 32.2 -77.95 32.8 -77.25 43.5 -80.7 52.95 L-81.05 53.2 Q-83.75 55.2 -85.25 57.85 -84.95 59.3 -84.15 60.35 L-85.9 63.1 Q-87.25 65.05 -86.3 67.25 -82.85 69.3 -81.55 66.4 -83.9 77.75 -88.15 88.6 -91.2 96.45 -92.1 104.6 -87.5 103.95 -82.65 100.1 -79.7 97.8 -78.0 98.85 -79.65 101.75 -79.5 105.05 L-79.45 106.25 Q-82.4 108.7 -82.95 112.35 L-83.4 113.65 Q-88.25 118.75 -92.3 124.85 -95.35 129.45 -96.45 134.55 -92.25 136.3 -88.85 132.5 -85.95 133.75 -88.1 139.1 L-97.4 150.55 Q-101.7 155.65 -105.45 161.25 -101.7 164.9 -96.8 165.35 -99.2 172.15 -105.15 176.35 -110.05 179.8 -114.15 183.8 -111.2 186.4 -112.7 188.7 -114.2 193.0 -117.95 196.25 L-119.9 198.15 Q-126.2 200.15 -131.15 203.85 -131.45 204.1 -131.45 204.7 -129.15 205.65 -126.8 205.7 L-126.3 217.15 Q-130.9 217.35 -136.15 218.65 L-136.15 218.7 Q-161.9 223.65 -188.3 219.85 -200.95 215.85 -217.4 212.5 -219.05 211.05 -219.85 208.9 -220.1 208.2 -220.65 207.55 -234.75 201.75 -240.85 188.7 -245.85 191.25 -241.15 197.7 L-240.15 198.95 Q-244.5 197.3 -248.45 192.4 L-256.8 168.75 Q-257.55 166.55 -259.65 165.75 -263.35 166.1 -264.35 169.85 -264.75 172.55 -263.55 174.9 -263.1 175.8 -262.9 176.8 L-266.55 171.35 -266.55 171.3 Q-273.95 160.4 -282.2 150.35 L-281.0 150.55 -286.75 139.6 Q-285.9 139.15 -285.35 137.4 L-290.25 132.0 Q-294.3 122.8 -297.25 113.6 -296.2 112.6 -295.9 111.8 L-292.9 116.9 Q-292.95 102.55 -301.4 86.25 -303.6 81.95 -304.8 77.65 -301.15 72.15 -297.9 66.15 L-296.35 64.55 -296.65 63.75 -294.85 60.2 -294.75 60.35 -293.2 64.2 -291.15 68.95 -287.5 65.95 -283.7 62.9 -274.0 36.55 -276.1 30.25 -270.8 21.6 Q-273.05 13.8 -270.65 8.1 -270.4 7.55 -269.45 7.25 L-270.15 -0.5 Q-272.55 -26.75 -273.6 -51.9 -273.75 -55.05 -274.75 -58.2 -273.5 -67.75 -274.25 -76.95 L-271.9 -79.4 Q-259.4 -91.9 -252.1 -107.1 L-252.3 -108.25 -253.0 -109.3 -255.35 -110.8 -256.8 -111.6 Q-272.5 -113.6 -282.0 -105.45 L-282.1 -105.75 -284.3 -110.1 -286.3 -113.65 -286.75 -115.15 -287.25 -117.7 -285.4 -117.2 -287.35 -119.4 -287.25 -117.7 -287.7 -117.85 -287.6 -128.4 -287.8 -130.85 Q-288.55 -134.3 -291.5 -136.2 -295.6 -136.15 -298.95 -134.45 -299.3 -138.15 -302.05 -141.05 -302.5 -161.55 -304.75 -181.45 -306.0 -192.4 -308.7 -202.8 -302.6 -210.8 -296.05 -218.25 -292.8 -221.95 -288.6 -221.55 L-287.0 -217.55 -284.25 -219.9 -284.2 -219.65 -279.9 -218.65 Q-278.65 -217.45 -278.2 -215.95 L-278.1 -215.7 Q-275.6 -213.85 -273.8 -211.25 -270.1 -209.6 -266.85 -209.5 -265.15 -208.1 -262.7 -206.55 L-261.5 -205.55 Q-260.35 -199.5 -259.85 -193.25 L-259.85 -193.15 Q-261.95 -192.2 -262.85 -189.65 L-263.65 -188.3 -266.1 -181.0 Q-266.55 -179.7 -267.3 -178.45 -266.85 -175.85 -266.05 -173.45 L-265.45 -171.05 -264.75 -170.2 -265.45 -168.6 -265.85 -167.4 Q-268.15 -153.0 -274.1 -137.7 -274.5 -136.6 -274.5 -135.4 -273.35 -133.15 -271.4 -131.55 L-270.9 -130.85 Q-262.9 -131.35 -255.1 -132.9 L-255.0 -132.9 Q-249.45 -132.85 -248.5 -130.05 L-248.2 -121.45 Q-247.9 -115.85 -246.7 -110.35 L-245.85 -109.2 Q-242.85 -105.85 -240.55 -109.15 -240.95 -111.2 -239.95 -112.9 -238.05 -116.15 -236.95 -119.8 -236.95 -116.7 -237.3 -113.7 -237.9 -108.7 -235.15 -105.05 -230.7 -104.7 -230.3 -110.7 -230.05 -114.15 -230.05 -118.1 L-230.1 -120.6 -229.2 -118.1 -226.1 -108.85 Q-224.25 -103.05 -219.6 -101.35 L-219.1 -102.6 Q-218.65 -105.1 -219.3 -107.45 L-219.95 -109.55 Q-219.05 -108.3 -218.95 -107.0 -218.75 -104.15 -217.0 -101.9 -216.7 -101.55 -216.7 -100.9 L-215.65 -100.3 -211.65 -100.9 -211.85 -103.35 Q-212.4 -106.45 -212.4 -109.15 L-211.65 -108.7 Q-208.85 -106.4 -209.5 -102.55 -210.25 -98.3 -207.7 -95.2 -203.2 -94.35 -204.15 -99.75 -204.6 -102.4 -203.0 -104.6 L-203.2 -105.8 Q-204.0 -108.15 -204.45 -110.75 L-204.3 -111.95 -203.0 -116.9 -199.5 -117.2 -199.45 -116.9 -199.35 -115.7 Q-196.65 -111.25 -193.6 -107.1 -192.85 -101.95 -190.9 -97.15 L-190.7 -96.0 Q-188.45 -93.25 -186.45 -95.05 L-182.65 -85.55 Q-182.4 -84.95 -181.65 -84.5 -178.1 -84.1 -178.35 -87.4 L-178.4 -88.6 Q-180.5 -93.1 -183.3 -97.35 L-183.85 -98.45 Q-182.15 -105.6 -182.5 -113.25 L-182.4 -115.7 -179.3 -115.85 Q-179.6 -107.45 -174.55 -100.1 -174.25 -99.7 -173.35 -99.7 -176.75 -109.95 -174.3 -121.4 L-174.2 -121.85 -174.1 -123.1 -171.95 -121.55 Q-167.45 -118.05 -162.15 -112.8 L-156.75 -114.05 Q-159.7 -124.65 -160.65 -135.85 L-159.95 -135.7 Q-158.75 -135.6 -157.6 -136.1 -156.95 -136.4 -156.4 -137.0 L-155.3 -138.25 Q-135.65 -138.3 -115.6 -134.9 L-115.25 -134.55 -115.0 -134.8 -111.25 -134.15 -110.4 -135.3 Q-109.25 -136.6 -108.4 -138.1 -107.8 -139.05 -107.65 -140.3 -108.55 -141.55 -109.45 -141.55 L-109.95 -141.5 Q-105.85 -150.8 -111.55 -165.5 -111.95 -166.55 -111.95 -167.8 -118.65 -178.0 -124.6 -188.7 -125.6 -190.35 -125.1 -192.45 -124.95 -193.0 -124.95 -193.65 -127.9 -198.3 -130.1 -203.2 L-127.5 -206.3 -128.95 -208.4 -129.2 -209.65 Q-129.5 -212.8 -131.05 -215.8 L-132.2 -218.25 -132.0 -219.45 -130.75 -223.15 Q-126.5 -226.65 -123.9 -231.15 -105.95 -234.5 -92.8 -221.1 L-89.7 -221.6 Q-89.2 -221.75 -88.85 -222.35 M-292.05 55.4 L-292.1 55.4 -292.35 54.75 -289.7 51.05 -292.05 55.4" fill="url(#gradient5)" fill-rule="evenodd" stroke="none"/>
    <path d="M-154.55 -233.45 L-154.0 -232.7 Q-159.75 -228.7 -164.55 -224.3 -165.65 -226.15 -167.9 -226.45 -175.4 -227.5 -182.55 -230.55 -181.15 -230.35 -179.85 -232.2 -179.7 -236.7 -178.2 -240.7 L-177.3 -243.35 -176.05 -247.65 Q-175.6 -245.4 -174.35 -243.35 L-173.35 -242.05 -171.15 -240.2 -171.45 -239.05 Q-172.2 -235.4 -171.55 -231.8 -167.95 -226.1 -160.35 -229.3 L-154.55 -233.45" fill="url(#gradient6)" fill-rule="evenodd" stroke="none"/>
    <path d="M-157.85 -225.45 Q-158.55 -223.8 -158.5 -221.95 -157.95 -219.25 -156.1 -217.25 L-153.45 -214.95 Q-146.9 -214.0 -140.8 -217.0 L-140.7 -217.05 Q-142.45 -206.75 -135.95 -196.4 L-135.45 -195.25 -138.85 -192.85 -138.9 -192.9 -138.95 -193.0 Q-142.0 -197.25 -144.5 -201.8 -145.45 -203.5 -147.7 -203.05 L-151.1 -200.35 -151.7 -199.4 -149.6 -198.3 -149.9 -198.1 -151.35 -197.25 -154.2 -197.5 -154.3 -197.5 -155.05 -199.0 Q-155.3 -199.6 -156.4 -199.8 L-156.4 -199.75 Q-160.6 -205.65 -166.75 -210.35 -176.9 -218.05 -188.9 -221.55 L-199.75 -221.3 -200.45 -221.55 -202.65 -221.25 -202.9 -221.25 Q-229.7 -217.4 -243.55 -192.25 L-244.0 -192.05 -246.95 -194.2 -247.0 -195.0 Q-246.7 -197.2 -248.5 -197.65 L-245.2 -201.35 Q-244.9 -201.65 -244.9 -202.25 -246.3 -207.25 -251.05 -202.3 L-252.8 -200.45 -253.15 -203.75 Q-253.55 -206.2 -254.85 -208.55 L-250.55 -207.85 Q-249.9 -207.8 -249.2 -208.4 -246.55 -214.65 -248.15 -218.9 -245.85 -218.85 -243.8 -219.7 L-238.3 -220.0 -238.4 -219.9 -239.85 -218.65 -242.4 -215.95 -242.7 -214.95 Q-241.95 -211.75 -239.55 -214.15 -229.75 -224.05 -217.45 -231.8 -202.2 -231.25 -187.75 -228.2 L-187.4 -228.15 -187.3 -228.1 -187.25 -228.1 Q-175.35 -225.55 -164.0 -221.3 -163.55 -221.1 -164.0 -223.15 L-164.15 -223.55 Q-161.0 -224.35 -157.85 -225.45 M-145.3 -194.75 L-145.3 -195.0 -144.95 -194.65 -145.3 -194.75 M-248.75 -220.15 L-248.15 -220.05 -248.65 -219.9 -248.75 -220.15 M-247.6 -182.45 L-248.3 -183.2 -248.25 -183.2 -247.6 -182.45" fill="url(#gradient7)" fill-rule="evenodd" stroke="none"/>
    <path d="M-160.45 -199.85 L-157.65 -199.7 -156.9 -198.9 -155.95 -198.05 -154.3 -197.5 -154.2 -197.5 -151.35 -197.25 -149.9 -198.1 -149.6 -198.3 -149.15 -198.6 -148.5 -198.65 -145.3 -197.8 -145.3 -196.95 -145.3 -195.3 -145.3 -195.0 -145.3 -194.75 -145.35 -194.5 -145.55 -193.65 Q-146.7 -192.75 -147.95 -192.3 -151.1 -191.25 -155.05 -193.0 L-157.9 -194.2 -158.65 -195.05 -159.1 -195.6 -159.35 -195.85 -162.25 -195.5 Q-164.0 -195.8 -164.2 -197.6 L-164.25 -198.05 -164.15 -198.8 Q-163.95 -199.8 -163.0 -200.0 L-160.45 -199.85" fill="url(#gradient8)" fill-rule="evenodd" stroke="none"/>
    <path d="M-200.15 -345.55 Q-191.75 -361.0 -187.35 -378.1 -186.95 -379.65 -186.95 -381.3 -192.7 -387.35 -192.8 -393.95 -192.8 -394.5 -192.3 -395.05 -185.2 -391.9 -180.8 -384.5 -180.4 -383.8 -180.15 -382.95 -182.55 -360.2 -198.95 -344.8 -199.1 -344.65 -199.4 -344.65 L-200.5 -345.0 -200.15 -345.55" fill="url(#gradient9)" fill-rule="evenodd" stroke="none"/>
    <path d="M-176.6 -349.25 L-177.25 -348.3 Q-187.8 -343.7 -188.9 -351.6 -181.1 -354.4 -176.5 -359.05 L-175.8 -359.3 Q-171.95 -353.95 -176.6 -349.25" fill="url(#gradient10)" fill-rule="evenodd" stroke="none"/>
    <path d="M-207.3 -373.05 Q-208.55 -362.05 -211.45 -351.7 -211.9 -349.95 -212.65 -348.3 -219.1 -354.6 -214.1 -366.45 L-212.65 -369.75 Q-218.95 -374.55 -218.1 -380.6 -218.05 -381.3 -217.5 -381.85 -211.9 -380.25 -208.6 -374.8 L-207.3 -373.05" fill="url(#gradient11)" fill-rule="evenodd" stroke="none"/>
    <path d="M-247.75 -223.5 Q-261.85 -227.9 -270.55 -240.0 -270.35 -244.65 -271.65 -248.8 -272.35 -251.05 -272.35 -253.5 -268.35 -259.25 -265.4 -264.1 L-263.6 -263.75 -265.75 -259.85 Q-267.85 -255.0 -267.3 -249.4 L-266.8 -248.3 -261.15 -239.6 Q-257.7 -237.65 -253.95 -237.0 -253.55 -235.65 -253.55 -234.25 -253.45 -231.35 -251.75 -229.3 -249.85 -226.55 -246.85 -226.15 L-247.75 -223.5" fill="url(#gradient12)" fill-rule="evenodd" stroke="none"/>
    <path d="M-286.9 -229.85 Q-291.75 -240.2 -290.35 -255.15 L-288.45 -256.2 -285.65 -257.2 -285.6 -256.95 -280.95 -255.15 Q-278.65 -249.3 -275.55 -244.05 -270.0 -234.5 -261.8 -226.85 -251.75 -225.15 -248.75 -220.15 L-248.65 -219.9 -248.15 -218.9 Q-246.55 -214.65 -249.2 -208.4 -249.9 -207.8 -250.55 -207.85 L-254.85 -208.55 Q-279.05 -213.1 -286.9 -229.85" fill="url(#gradient13)" fill-rule="evenodd" stroke="none"/>
    <path d="M-246.85 -226.15 Q-243.9 -225.75 -239.85 -227.7 L-238.7 -228.85 Q-236.9 -230.45 -236.2 -232.6 -236.25 -234.45 -236.6 -236.2 -237.4 -239.85 -239.45 -241.2 L-241.1 -240.95 -240.9 -241.2 Q-239.3 -249.7 -242.7 -257.0 L-236.6 -254.35 -231.5 -245.55 Q-227.35 -238.6 -228.15 -230.95 -233.2 -227.2 -236.8 -222.2 -237.7 -224.35 -240.05 -223.85 -241.35 -223.55 -241.3 -222.4 L-242.05 -222.1 Q-245.0 -222.65 -247.75 -223.5 L-246.85 -226.15" fill="url(#gradient14)" fill-rule="evenodd" stroke="none"/>
    <path d="M-230.4 -200.5 Q-226.1 -205.35 -221.0 -209.65 L-217.05 -212.8 -216.35 -213.2 Q-213.7 -211.05 -217.0 -206.25 L-217.35 -205.5 Q-219.85 -205.1 -219.25 -202.95 -219.15 -202.6 -219.3 -202.2 L-223.65 -197.6 -227.65 -193.75 Q-231.5 -190.25 -235.5 -187.15 L-234.7 -188.6 Q-233.8 -189.0 -232.85 -189.55 -229.45 -192.15 -226.8 -195.3 L-226.85 -196.1 Q-227.15 -198.0 -226.8 -199.45 L-226.0 -200.15 Q-222.8 -202.4 -224.6 -205.2 L-230.4 -200.5" fill="url(#gradient15)" fill-rule="evenodd" stroke="none"/>
    <path d="M-243.55 -192.25 Q-236.6 -195.85 -230.4 -200.5 L-224.6 -205.2 Q-222.8 -202.4 -226.0 -200.15 L-226.8 -199.45 Q-227.15 -198.0 -226.85 -196.1 L-226.8 -195.3 Q-229.45 -192.15 -232.85 -189.55 -233.8 -189.0 -234.7 -188.6 -242.85 -184.85 -245.7 -191.2 L-244.0 -192.05 -243.55 -192.25" fill="url(#gradient16)" fill-rule="evenodd" stroke="none"/>
    <path d="M-221.0 -209.65 Q-218.25 -214.25 -213.1 -217.0 L-185.65 -213.3 -185.65 -213.7 -182.15 -212.6 Q-170.35 -208.4 -160.45 -199.85 L-163.0 -200.0 Q-163.95 -199.8 -164.15 -198.8 L-164.95 -198.9 -165.4 -198.65 -164.2 -197.6 Q-164.0 -195.8 -162.25 -195.5 -160.6 -193.4 -160.35 -191.45 -158.1 -189.8 -155.8 -189.15 -164.7 -184.7 -174.5 -182.8 L-182.4 -183.4 Q-193.9 -178.3 -200.05 -167.55 -200.8 -166.15 -201.9 -164.9 -211.65 -171.95 -222.0 -174.75 L-221.75 -176.0 Q-231.6 -179.3 -240.4 -184.3 L-238.9 -184.3 -238.4 -184.75 Q-236.6 -185.65 -235.5 -187.15 -231.5 -190.25 -227.65 -193.75 -221.35 -186.65 -217.45 -192.4 -221.05 -194.5 -223.65 -197.6 L-219.3 -202.2 Q-219.15 -202.6 -219.25 -202.95 -219.85 -205.1 -217.35 -205.5 L-217.0 -206.25 Q-213.7 -211.05 -216.35 -213.2 L-217.05 -212.8 -221.0 -209.65 M-182.7 -209.15 Q-182.7 -209.6 -183.1 -210.05 -187.85 -207.95 -189.15 -202.2 L-189.25 -201.0 Q-182.1 -199.95 -182.7 -209.15 M-173.9 -162.6 L-173.9 -161.75 -173.9 -160.1 Q-180.65 -148.55 -194.05 -144.45 -207.8 -142.05 -220.0 -147.45 L-220.25 -147.7 -221.7 -149.1 Q-224.8 -150.5 -227.75 -152.95 -227.9 -154.3 -229.0 -155.45 L-232.0 -157.65 -235.55 -160.4 -235.75 -161.05 Q-238.0 -163.85 -239.2 -167.1 -235.25 -164.0 -229.35 -161.2 -199.1 -146.85 -176.55 -163.2 -173.4 -165.5 -170.4 -168.4 -171.8 -165.4 -173.9 -162.6" fill="url(#gradient17)" fill-rule="evenodd" stroke="none"/>
    <path d="M-164.15 -198.8 L-164.25 -198.05 -164.2 -197.6 -165.4 -198.65 -164.95 -198.9 -164.15 -198.8 M-162.25 -195.5 L-159.35 -195.85 -159.1 -195.6 -158.65 -195.05 -157.9 -194.2 -155.05 -193.0 Q-151.1 -191.25 -147.95 -192.3 L-145.05 -192.25 Q-144.8 -192.3 -144.55 -191.45 -150.4 -187.6 -155.8 -189.15 -158.1 -189.8 -160.35 -191.45 -160.6 -193.4 -162.25 -195.5" fill="url(#gradient18)" fill-rule="evenodd" stroke="none"/>
    <path d="M-166.85 -179.85 L-168.8 -176.7 -169.05 -175.6 Q-187.4 -160.4 -203.8 -159.1 -220.9 -157.85 -235.85 -171.65 -228.25 -171.3 -221.3 -168.05 L-212.0 -167.4 -206.4 -162.65 -205.5 -161.65 -204.05 -161.35 -196.1 -166.05 Q-192.3 -171.65 -186.6 -175.5 -185.3 -176.4 -184.2 -177.65 L-178.35 -177.45 -175.15 -179.6 -166.85 -179.85" fill="url(#gradient19)" fill-rule="evenodd" stroke="none"/>
    <path d="M-138.85 -192.85 L-135.45 -195.25 Q-124.0 -181.1 -115.6 -164.9 -112.8 -154.9 -112.7 -144.0 L-112.7 -141.55 -114.95 -139.1 Q-128.9 -139.85 -142.65 -144.4 -154.45 -145.45 -161.1 -137.45 L-162.15 -137.45 Q-165.55 -129.85 -162.0 -120.15 L-161.8 -118.95 -163.65 -120.35 Q-167.95 -123.95 -171.9 -129.25 -175.4 -129.0 -177.35 -125.55 L-178.6 -121.1 -180.6 -121.0 -181.65 -121.45 Q-187.6 -113.95 -187.85 -101.9 -189.9 -107.05 -192.4 -112.05 L-192.85 -113.25 Q-194.45 -115.65 -192.85 -118.15 L-197.1 -123.9 Q-197.4 -124.3 -198.3 -124.3 -200.05 -121.2 -199.5 -117.2 L-203.0 -116.9 Q-203.55 -118.9 -204.85 -120.55 -207.1 -123.4 -209.85 -124.3 -211.5 -122.9 -211.25 -120.6 -210.95 -117.55 -210.95 -114.45 L-210.95 -113.65 -214.6 -119.15 Q-217.8 -124.35 -222.85 -124.3 L-223.5 -123.0 -223.95 -118.15 -223.95 -118.1 -225.75 -118.1 -225.8 -118.1 Q-226.7 -119.55 -226.85 -121.35 -227.3 -126.55 -231.5 -127.6 L-232.35 -126.25 Q-233.3 -123.7 -233.5 -127.6 L-233.7 -128.8 Q-238.15 -129.25 -239.55 -124.25 -240.8 -119.6 -243.1 -115.3 -245.6 -120.3 -244.7 -125.9 -244.15 -129.5 -244.75 -132.2 -240.35 -129.65 -235.5 -129.25 -236.3 -134.7 -244.5 -137.85 L-256.1 -139.05 -257.2 -137.9 -258.6 -136.6 Q-264.65 -133.5 -270.55 -136.6 -271.15 -141.45 -267.65 -145.25 L-266.6 -146.35 -266.95 -144.9 -262.3 -144.75 Q-259.85 -154.65 -258.75 -165.05 -257.5 -164.3 -256.1 -163.7 L-255.95 -163.7 Q-257.45 -164.35 -258.75 -165.35 L-258.25 -171.9 Q-258.15 -173.95 -260.4 -173.55 L-261.35 -173.65 -262.2 -174.35 -261.45 -178.05 Q-261.0 -176.9 -259.7 -176.4 -258.45 -176.6 -258.0 -177.3 -256.6 -179.75 -256.9 -183.0 -257.0 -184.2 -256.45 -185.45 L-256.25 -185.85 Q-255.95 -183.15 -252.9 -182.3 L-252.1 -181.75 Q-250.15 -182.4 -248.3 -183.2 L-247.6 -182.45 -247.5 -182.3 -247.35 -182.1 -247.0 -181.75 Q-247.55 -176.0 -243.2 -170.9 -243.55 -170.35 -243.55 -169.2 -240.75 -163.05 -236.5 -156.8 L-234.05 -156.25 -233.95 -155.75 -233.1 -154.05 Q-230.25 -152.15 -228.75 -149.1 -224.75 -148.05 -221.95 -144.7 -208.05 -138.95 -192.35 -141.4 -188.3 -143.5 -183.6 -144.7 -179.6 -149.2 -174.65 -152.7 -174.0 -155.95 -171.75 -158.45 L-171.55 -159.3 -171.5 -160.95 -170.75 -161.75 Q-168.2 -164.6 -167.6 -168.35 -167.3 -169.8 -165.65 -170.85 L-165.5 -171.6 Q-164.75 -173.1 -164.8 -174.45 L-161.1 -179.3 -161.1 -179.45 Q-153.65 -181.25 -146.65 -184.6 L-146.65 -185.95 -143.75 -187.5 Q-143.75 -190.5 -144.05 -193.5 -139.9 -187.8 -142.2 -179.05 -142.5 -178.05 -141.95 -176.8 -139.3 -176.55 -138.2 -179.35 L-137.95 -180.5 -137.95 -186.65 -137.95 -191.6 -138.8 -192.8 -138.85 -192.85" fill="url(#gradient20)" fill-rule="evenodd" stroke="none"/>
    <path d="M-234.7 -188.6 L-235.5 -187.15 Q-236.6 -185.65 -238.4 -184.75 L-238.9 -184.3 -240.4 -184.3 -244.25 -184.3 -245.0 -185.15 -245.7 -185.95 Q-250.65 -184.15 -254.45 -187.35 L-254.45 -190.65 -254.45 -192.3 Q-252.4 -193.85 -252.0 -196.4 L-249.4 -197.6 -249.35 -197.8 -248.5 -197.65 Q-246.7 -197.2 -247.0 -195.0 L-246.95 -194.2 -244.0 -192.05 -245.7 -191.2 Q-242.85 -184.85 -234.7 -188.6" fill="url(#gradient21)" fill-rule="evenodd" stroke="none"/>
    <path d="M-295.75 -122.35 L-300.25 -127.5 -299.8 -128.75 -298.7 -129.65 Q-296.05 -132.1 -292.9 -131.3 -291.75 -127.25 -290.9 -123.15 L-292.45 -124.1 -291.85 -122.55 -290.75 -122.6 -290.25 -119.8 -290.55 -120.25 -291.85 -122.55 -292.35 -122.5 -294.75 -122.4 -295.75 -122.35" fill="url(#gradient22)" fill-rule="evenodd" stroke="none"/>
    <path d="M-280.45 -102.0 Q-275.45 -107.05 -268.05 -109.05 -260.45 -111.1 -258.25 -105.45 -263.9 -92.7 -273.6 -82.2 L-274.7 -81.0 Q-276.15 -91.75 -280.45 -102.0" fill="url(#gradient23)" fill-rule="evenodd" stroke="none"/>
    <path d="M-212.75 218.85 L-213.6 221.05 Q-222.25 222.85 -232.15 216.1 L-232.2 215.75 -235.45 212.1 -236.55 210.85 Q-244.05 207.45 -244.1 214.15 -251.05 206.7 -258.55 208.4 L-258.65 210.85 -258.95 212.9 Q-262.05 212.6 -264.35 210.45 -267.9 208.75 -270.15 211.65 -270.35 214.2 -269.65 216.55 L-268.7 219.05 -281.95 207.45 -282.75 208.0 Q-282.7 213.3 -285.95 208.6 -286.55 207.75 -287.45 207.15 -291.0 207.65 -291.4 212.05 L-291.8 212.9 Q-296.55 210.1 -299.65 204.2 -299.9 203.65 -300.85 203.45 -303.35 203.7 -304.4 205.15 L-305.7 202.55 -302.15 202.2 -304.0 199.3 -304.1 199.1 -304.75 197.9 -306.55 193.8 Q-307.25 191.95 -308.45 190.3 L-310.9 187.0 Q-311.6 184.5 -312.65 182.2 L-312.7 182.1 -311.5 180.95 -311.45 181.0 Q-308.1 184.25 -304.1 183.4 -305.95 178.5 -309.95 174.45 -313.75 170.6 -316.4 166.15 L-316.95 164.85 -317.1 163.7 -317.1 162.45 Q-321.35 158.25 -324.65 153.0 -327.2 148.9 -327.25 144.0 L-328.3 142.75 -329.4 141.55 Q-333.65 130.5 -334.4 119.7 -336.75 115.3 -338.1 110.45 L-338.35 109.45 -337.95 108.6 -328.55 103.7 Q-316.95 94.35 -307.7 81.75 L-307.9 84.5 Q-306.55 89.65 -304.4 94.65 -301.05 102.5 -297.05 109.75 -298.35 109.05 -300.85 108.7 -303.2 115.25 -300.4 122.2 L-299.8 123.45 Q-296.65 128.35 -293.75 133.45 -295.55 145.25 -287.75 160.45 L-286.75 162.3 Q-284.15 172.5 -277.1 181.5 L-271.9 181.3 -275.05 177.1 -275.2 176.85 Q-277.5 173.35 -279.15 169.6 -281.1 160.25 -284.7 151.0 -278.65 162.55 -270.35 173.7 L-270.25 173.85 Q-264.45 181.6 -257.6 189.2 -257.1 189.7 -256.75 190.35 L-253.15 191.15 Q-248.45 200.4 -239.05 205.5 -236.1 206.9 -234.35 204.3 -224.55 214.7 -212.75 218.85 M-298.9 194.55 L-299.05 195.25 -298.6 196.1 -298.9 194.55" fill="url(#gradient24)" fill-rule="evenodd" stroke="none"/>
    <path d="M-62.5 -157.85 L-63.25 -160.75 -51.7 -144.35 -52.85 -143.55 -59.5 -154.35 Q-60.75 -156.3 -62.5 -157.85" fill="url(#gradient25)" fill-rule="evenodd" stroke="none"/>
    <path d="M-65.75 -40.2 Q-74.45 -59.25 -88.1 -76.3 -95.9 -86.05 -105.35 -95.2 -110.4 -100.05 -110.5 -105.45 L-110.2 -106.35 Q-105.85 -110.8 -99.3 -108.3 -87.3 -97.8 -77.8 -84.55 -75.2 -80.9 -71.6 -82.4 -64.1 -63.05 -57.0 -43.4 L-65.75 -40.2" fill="url(#gradient26)" fill-rule="evenodd" stroke="none"/>
    <path d="M-63.4 6.05 L-59.15 12.6 -58.95 11.9 Q-58.15 6.8 -54.25 4.65 -57.05 -1.05 -60.55 -6.55 -67.2 -16.95 -70.05 -29.15 L-69.95 -30.35 Q-68.95 -35.6 -65.75 -40.2 L-57.0 -43.4 -57.0 -43.35 Q-48.05 -18.7 -39.75 6.4 L-38.65 9.85 -37.3 11.15 -35.4 13.55 -35.95 33.0 Q-34.85 36.05 -34.05 39.25 -35.05 38.75 -36.1 38.2 L-37.15 37.75 Q-42.8 40.1 -47.55 44.35 L-48.7 45.55 Q-49.45 49.25 -44.75 48.0 -42.85 45.55 -39.95 44.65 L-37.5 44.3 Q-36.45 46.7 -34.8 48.2 -32.1 50.7 -34.25 52.5 L-32.45 62.65 Q-32.75 65.2 -33.3 67.5 L-32.6 69.6 -32.55 69.3 -31.15 73.8 Q-29.35 94.15 -31.5 116.4 -32.15 122.95 -31.75 130.05 L-29.9 132.45 -29.4 133.1 Q-31.5 146.05 -38.15 155.05 L-36.0 166.5 -35.45 167.15 Q-38.95 182.65 -46.2 196.9 L-51.4 194.75 -51.35 194.65 -51.1 193.85 -51.65 193.65 Q-56.95 196.3 -60.7 201.4 L-61.75 202.65 -62.45 202.85 -65.35 202.25 Q-68.7 205.85 -72.45 208.9 L-72.95 208.8 Q-73.7 204.55 -76.9 204.5 -77.65 204.5 -78.35 205.1 -79.3 208.4 -80.8 211.1 -81.25 211.9 -82.0 212.5 L-84.25 207.95 Q-84.5 207.4 -85.6 207.15 -86.85 209.8 -88.75 212.15 L-89.55 213.3 -92.45 213.65 -94.25 213.75 Q-96.45 218.6 -100.15 222.85 -100.75 223.6 -100.75 224.8 L-109.0 224.35 -109.05 221.95 Q-115.8 216.65 -126.3 217.15 L-126.8 205.7 Q-119.8 205.75 -112.7 197.5 -109.8 194.05 -107.6 189.55 L-107.65 185.85 -107.6 184.6 Q-100.95 179.1 -95.95 172.4 -91.95 167.05 -93.9 161.25 -98.6 158.85 -96.05 157.15 -92.65 153.05 -89.95 148.5 -87.7 144.65 -84.85 141.15 -83.95 137.4 -83.3 133.7 -83.05 132.5 -83.15 131.3 L-83.4 128.8 Q-88.1 128.1 -88.5 125.95 L-81.3 115.35 -75.85 107.5 Q-76.1 103.45 -74.8 99.95 -74.4 98.85 -74.4 97.65 L-74.4 95.2 -79.8 93.95 Q-82.75 96.3 -86.3 96.8 -83.25 87.6 -79.75 78.55 -80.5 73.5 -80.05 68.3 L-79.3 61.65 Q-76.2 55.2 -75.15 48.05 L-74.7 46.75 Q-72.9 44.7 -70.0 43.5 -69.45 36.3 -70.25 29.45 L-68.0 28.5 -66.75 31.4 -66.05 32.0 Q-61.9 22.35 -64.65 8.3 L-65.15 7.1 -63.4 6.05" fill="url(#gradient27)" fill-rule="evenodd" stroke="none"/>
    <path d="M-222.35 238.4 L-245.6 237.5 Q-244.1 243.7 -246.15 251.0 -246.9 253.7 -248.5 255.95 -247.95 261.3 -256.8 256.75 -262.8 252.7 -266.85 246.9 L-267.65 245.7 Q-268.25 243.3 -267.95 240.8 -267.75 238.85 -268.35 237.1 -273.5 238.5 -278.45 243.65 L-278.85 244.05 Q-291.1 250.55 -303.75 253.9 -304.1 252.05 -304.9 250.4 -305.75 248.55 -305.55 246.5 -305.75 243.8 -304.6 241.35 -304.1 240.35 -304.1 239.15 -306.25 238.35 -308.6 237.8 L-308.45 237.55 -311.2 237.3 -313.2 237.0 Q-302.3 223.35 -289.05 216.6 L-289.6 215.6 -287.8 214.55 Q-284.2 218.45 -277.35 220.3 -276.65 216.45 -275.25 219.1 L-274.1 221.5 Q-272.85 222.15 -271.65 222.9 L-270.85 223.55 Q-269.45 224.25 -268.3 224.3 -266.25 224.4 -265.05 222.35 -265.05 219.85 -265.4 217.45 -265.6 216.2 -266.15 214.95 -261.75 215.8 -259.65 219.85 -254.2 222.85 -253.5 217.8 -252.95 214.9 -253.85 212.9 L-252.8 212.9 Q-248.4 217.2 -243.05 220.3 -240.45 220.85 -239.45 219.8 -232.45 227.2 -223.7 234.0 -221.4 235.8 -222.35 238.4" fill="url(#gradient28)" fill-rule="evenodd" stroke="none"/>
    <path d="M-307.25 -127.7 L-297.95 -122.3 -295.75 -122.35 -294.75 -122.4 -293.3 -119.55 Q-289.4 -111.65 -286.7 -102.95 L-287.4 -100.25 -288.2 -98.6 Q-288.4 -98.05 -288.25 -97.4 L-288.0 -96.2 -287.15 -95.6 Q-286.0 -95.4 -284.95 -95.95 L-284.35 -94.35 -282.65 -85.8 Q-281.85 -81.1 -281.35 -76.15 L-281.2 -74.7 -280.65 -69.05 -275.4 -15.5 Q-272.75 12.05 -285.75 35.0 -284.35 42.7 -288.75 49.65 L-289.7 51.05 Q-291.8 53.95 -294.95 56.7 -298.3 59.6 -301.2 61.6 L-301.8 62.0 -301.95 62.75 -301.95 62.9 -306.35 67.7 -307.9 69.4 -321.1 84.6 Q-329.95 95.0 -339.8 102.95 L-342.5 105.05 Q-365.4 122.3 -393.75 126.5 L-400.75 127.35 -402.35 127.5 Q-407.55 119.4 -403.15 108.5 L-401.25 103.85 -394.05 86.05 -394.0 85.9 Q-368.25 22.4 -341.6 -41.3 -344.4 -52.45 -336.6 -65.05 L-321.65 -88.8 -318.25 -96.9 -318.5 -93.75 -311.55 -104.35 -311.45 -104.15 -309.9 -104.25 -305.75 -117.1 -307.85 -123.95 Q-307.4 -125.95 -307.25 -127.7" fill="url(#gradient29)" fill-rule="evenodd" stroke="none"/>
    <path d="M-286.3 -113.65 L-284.3 -110.1 -285.0 -108.55 Q-286.05 -106.0 -286.65 -103.05 L-291.2 -118.85 -292.35 -122.5 -291.85 -122.55 -290.55 -120.25 -290.25 -119.8 -289.2 -118.25 -286.3 -113.65 M-290.9 -123.15 L-289.95 -122.6 -290.75 -122.6 -291.85 -122.55 -292.45 -124.1 -290.9 -123.15" fill="url(#gradient30)" fill-rule="evenodd" stroke="none"/>
    <path d="M-284.35 -94.35 L-284.95 -95.95 Q-284.05 -96.45 -283.4 -97.3 L-283.15 -97.65 -282.05 -99.0 -282.35 -99.9 -282.45 -100.2 -282.75 -101.4 -282.9 -102.65 -282.3 -105.2 -282.1 -105.75 -282.0 -105.45 -280.45 -102.0 Q-276.15 -91.75 -274.7 -81.0 L-274.6 -80.3 -276.7 -77.05 -276.75 -74.15 -276.9 -63.9 -276.9 -62.95 -278.8 -71.6 -279.8 -76.0 -282.6 -87.6 -284.35 -94.35" fill="url(#gradient31)" fill-rule="evenodd" stroke="none"/>
    <path d="M-289.7 51.05 L-288.75 49.65 Q-273.05 26.1 -270.15 -0.5 L-269.45 7.25 Q-270.4 7.55 -270.65 8.1 -273.05 13.8 -270.8 21.6 L-276.1 30.25 -274.0 36.55 -283.7 62.9 -287.5 65.95 -292.05 55.4 -289.7 51.05" fill="url(#gradient32)" fill-rule="evenodd" stroke="none"/>
  </g>
  <defs>
    <radialGradient cx="0" cy="0" gradientTransform="matrix(-0.2965, 0.0, 0.0, 0.2965, -58.8, -117.75)" gradientUnits="userSpaceOnUse" id="gradient0" r="819.2" spreadMethod="pad">
      <stop offset="0.0" stop-color="#b9b9b9"/>
      <stop offset="1.0" stop-color="#000000"/>
    </radialGradient>
    <linearGradient gradientTransform="matrix(0.079, 0.0, 0.0, -0.0347, -49.9, 223.2)" gradientUnits="userSpaceOnUse" id="gradient1" spreadMethod="pad" x1="-819.2" x2="819.2">
      <stop offset="0.0" stop-color="#fc6514"/>
      <stop offset="0.403921568627451" stop-color="#efa427"/>
      <stop offset="1.0" stop-color="#cfa205"/>
    </linearGradient>
    <radialGradient cx="0" cy="0" gradientTransform="matrix(-0.1711, 0.0, 0.0, 0.1711, -214.85, -265.4)" gradientUnits="userSpaceOnUse" id="gradient2" r="819.2" spreadMethod="pad">
      <stop offset="0.0" stop-color="#ffffff"/>
      <stop offset="1.0" stop-color="#000000"/>
    </radialGradient>
    <radialGradient cx="0" cy="0" gradientTransform="matrix(-0.0405, 0.0, 0.0, 0.0405, -138.9, -244.15)" gradientUnits="userSpaceOnUse" id="gradient3" r="819.2" spreadMethod="pad">
      <stop offset="0.0" stop-color="#ffffff"/>
      <stop offset="1.0" stop-color="#000000"/>
    </radialGradient>
    <radialGradient cx="0" cy="0" gradientTransform="matrix(-0.0285, 0.0, 0.0, 0.0285, -150.5, -245.9)" gradientUnits="userSpaceOnUse" id="gradient4" r="819.2" spreadMethod="pad">
      <stop offset="0.0" stop-color="#f2feff"/>
      <stop offset="1.0" stop-color="#58cffc"/>
    </radialGradient>
    <radialGradient cx="0" cy="0" gradientTransform="matrix(-0.5187, 0.0, 0.0, 0.5187, -107.95, -196.5)" gradientUnits="userSpaceOnUse" id="gradient5" r="819.2" spreadMethod="pad">
      <stop offset="0.0" stop-color="#fcc91b"/>
      <stop offset="0.34509803921568627" stop-color="#eff931"/>
      <stop offset="0.6666666666666666" stop-color="#fefded"/>
      <stop offset="0.8274509803921568" stop-color="#f0efe1"/>
      <stop offset="1.0" stop-color="#888888"/>
    </radialGradient>
    <radialGradient cx="0" cy="0" gradientTransform="matrix(-0.0277, 0.0, 0.0, 0.0277, -175.75, -239.3)" gradientUnits="userSpaceOnUse" id="gradient6" r="819.2" spreadMethod="pad">
      <stop offset="0.0" stop-color="#f2feff"/>
      <stop offset="1.0" stop-color="#58cffc"/>
    </radialGradient>
    <radialGradient cx="0" cy="0" gradientTransform="matrix(-0.1779, 0.0, 0.0, 0.1779, -196.1, -299.85)" gradientUnits="userSpaceOnUse" id="gradient7" r="819.2" spreadMethod="pad">
      <stop offset="0.0" stop-color="#ffffff"/>
      <stop offset="1.0" stop-color="#000000"/>
    </radialGradient>
    <linearGradient gradientTransform="matrix(0.0116, 0.0, 0.0, 0.0049, -154.8, -195.95)" gradientUnits="userSpaceOnUse" id="gradient8" spreadMethod="pad" x1="-819.2" x2="819.2">
      <stop offset="0.0" stop-color="#fc6514"/>
      <stop offset="0.403921568627451" stop-color="#efa427"/>
      <stop offset="1.0" stop-color="#cfa205"/>
    </linearGradient>
    <radialGradient cx="0" cy="0" gradientTransform="matrix(0.0328, 0.0, 0.0, 0.0328, -190.3, -369.85)" gradientUnits="userSpaceOnUse" id="gradient9" r="819.2" spreadMethod="pad">
      <stop offset="0.0" stop-color="#ffffff"/>
      <stop offset="1.0" stop-color="#000000"/>
    </radialGradient>
    <radialGradient cx="0" cy="0" gradientTransform="matrix(0.0105, 0.0, 0.0, 0.0105, -181.5, -352.95)" gradientUnits="userSpaceOnUse" id="gradient10" r="819.2" spreadMethod="pad">
      <stop offset="0.0" stop-color="#ffffff"/>
      <stop offset="1.0" stop-color="#000000"/>
    </radialGradient>
    <radialGradient cx="0" cy="0" gradientTransform="matrix(0.0217, 0.0, 0.0, 0.0217, -212.75, -365.05)" gradientUnits="userSpaceOnUse" id="gradient11" r="819.2" spreadMethod="pad">
      <stop offset="0.0" stop-color="#ffffff"/>
      <stop offset="1.0" stop-color="#000000"/>
    </radialGradient>
    <radialGradient cx="0" cy="0" gradientTransform="matrix(-0.0349, 0.0, 0.0, 0.0349, -260.15, -236.0)" gradientUnits="userSpaceOnUse" id="gradient12" r="819.2" spreadMethod="pad">
      <stop offset="0.0" stop-color="#f2feff"/>
      <stop offset="1.0" stop-color="#58cffc"/>
    </radialGradient>
    <radialGradient cx="0" cy="0" gradientTransform="matrix(-0.0388, 0.0, 0.0, 0.0388, -269.1, -232.5)" gradientUnits="userSpaceOnUse" id="gradient13" r="819.2" spreadMethod="pad">
      <stop offset="0.0" stop-color="#ffffff"/>
      <stop offset="1.0" stop-color="#000000"/>
    </radialGradient>
    <radialGradient cx="0" cy="0" gradientTransform="matrix(-0.0308, 0.0, 0.0, 0.0308, -234.9, -244.8)" gradientUnits="userSpaceOnUse" id="gradient14" r="819.2" spreadMethod="pad">
      <stop offset="0.0" stop-color="#f2feff"/>
      <stop offset="1.0" stop-color="#58cffc"/>
    </radialGradient>
    <linearGradient gradientTransform="matrix(0.0145, 0.0, 0.0, 0.0165, -227.05, -199.7)" gradientUnits="userSpaceOnUse" id="gradient15" spreadMethod="pad" x1="-819.2" x2="819.2">
      <stop offset="0.0" stop-color="#fc6514"/>
      <stop offset="0.403921568627451" stop-color="#efa427"/>
      <stop offset="1.0" stop-color="#cfa205"/>
    </linearGradient>
    <linearGradient gradientTransform="matrix(0.0133, 0.0, 0.0, 0.011, -234.85, -196.2)" gradientUnits="userSpaceOnUse" id="gradient16" spreadMethod="pad" x1="-819.2" x2="819.2">
      <stop offset="0.0" stop-color="#fc6514"/>
      <stop offset="0.403921568627451" stop-color="#efa427"/>
      <stop offset="1.0" stop-color="#cfa205"/>
    </linearGradient>
    <linearGradient gradientTransform="matrix(0.0543, 0.0, 0.0, -0.0318, -198.6, -190.95)" gradientUnits="userSpaceOnUse" id="gradient17" spreadMethod="pad" x1="-819.2" x2="819.2">
      <stop offset="0.0" stop-color="#fc6514"/>
      <stop offset="0.403921568627451" stop-color="#efa427"/>
      <stop offset="1.0" stop-color="#cfa205"/>
    </linearGradient>
    <linearGradient gradientTransform="matrix(0.0127, 0.0, 0.0, 0.0062, -155.0, -193.8)" gradientUnits="userSpaceOnUse" id="gradient18" spreadMethod="pad" x1="-819.2" x2="819.2">
      <stop offset="0.0" stop-color="#fc6514"/>
      <stop offset="0.403921568627451" stop-color="#efa427"/>
      <stop offset="1.0" stop-color="#cfa205"/>
    </linearGradient>
    <radialGradient cx="0" cy="0" gradientTransform="matrix(0.0266, 0.0, 0.0, 0.0266, -187.25, -172.2)" gradientUnits="userSpaceOnUse" id="gradient19" r="819.2" spreadMethod="pad">
      <stop offset="0.0" stop-color="#ff0000"/>
      <stop offset="1.0" stop-color="#000000"/>
    </radialGradient>
    <radialGradient cx="0" cy="0" gradientTransform="matrix(-0.1565, 0.0, 0.0, 0.1565, -240.85, -145.65)" gradientUnits="userSpaceOnUse" id="gradient20" r="819.2" spreadMethod="pad">
      <stop offset="0.0" stop-color="#a0a0a0"/>
      <stop offset="1.0" stop-color="#000000"/>
    </radialGradient>
    <linearGradient gradientTransform="matrix(0.0121, 0.0, 0.0, 0.0082, -244.5, -191.05)" gradientUnits="userSpaceOnUse" id="gradient21" spreadMethod="pad" x1="-819.2" x2="819.2">
      <stop offset="0.0" stop-color="#fc6514"/>
      <stop offset="0.403921568627451" stop-color="#efa427"/>
      <stop offset="1.0" stop-color="#cfa205"/>
    </linearGradient>
    <radialGradient cx="0" cy="0" gradientTransform="matrix(-0.2701, 0.0, 0.0, 0.2701, -320.35, -76.7)" gradientUnits="userSpaceOnUse" id="gradient22" r="819.2" spreadMethod="pad">
      <stop offset="0.0" stop-color="#b9b9b9"/>
      <stop offset="1.0" stop-color="#000000"/>
    </radialGradient>
    <radialGradient cx="0" cy="0" gradientTransform="matrix(-0.0524, 0.0, 0.0, 0.0524, -272.65, -94.75)" gradientUnits="userSpaceOnUse" id="gradient23" r="819.2" spreadMethod="pad">
      <stop offset="0.0" stop-color="#b9b9b9"/>
      <stop offset="1.0" stop-color="#000000"/>
    </radialGradient>
    <radialGradient cx="0" cy="0" gradientTransform="matrix(-0.2184, 0.0, 0.0, 0.2184, -317.45, 75.9)" gradientUnits="userSpaceOnUse" id="gradient24" r="819.2" spreadMethod="pad">
      <stop offset="0.0" stop-color="#b9b9b9"/>
      <stop offset="1.0" stop-color="#000000"/>
    </radialGradient>
    <radialGradient cx="0" cy="0" gradientTransform="matrix(0.2059, 0.0, 0.0, 0.2059, -358.9, -42.0)" gradientUnits="userSpaceOnUse" id="gradient25" r="819.2" spreadMethod="pad">
      <stop offset="0.0" stop-color="#ffffff"/>
      <stop offset="1.0" stop-color="#000000"/>
    </radialGradient>
    <radialGradient cx="0" cy="0" gradientTransform="matrix(-0.0721, 0.0, 0.0, 0.0721, -93.5, -89.85)" gradientUnits="userSpaceOnUse" id="gradient26" r="819.2" spreadMethod="pad">
      <stop offset="0.0" stop-color="#b9b9b9"/>
      <stop offset="1.0" stop-color="#000000"/>
    </radialGradient>
    <radialGradient cx="0" cy="0" gradientTransform="matrix(-0.1872, 0.0, 0.0, 0.1872, -53.05, 82.45)" gradientUnits="userSpaceOnUse" id="gradient27" r="819.2" spreadMethod="pad">
      <stop offset="0.0" stop-color="#b9b9b9"/>
      <stop offset="1.0" stop-color="#000000"/>
    </radialGradient>
    <linearGradient gradientTransform="matrix(0.0274, 0.0, 0.0, -0.024, -290.8, 234.25)" gradientUnits="userSpaceOnUse" id="gradient28" spreadMethod="pad" x1="-819.2" x2="819.2">
      <stop offset="0.0" stop-color="#fc6514"/>
      <stop offset="0.403921568627451" stop-color="#efa427"/>
      <stop offset="1.0" stop-color="#cfa205"/>
    </linearGradient>
    <radialGradient cx="0" cy="0" gradientTransform="matrix(-0.2562, 0.0847, 0.0847, 0.2562, -310.4, -73.25)" gradientUnits="userSpaceOnUse" id="gradient29" r="819.2" spreadMethod="pad">
      <stop offset="0.0" stop-color="#b9b9b9"/>
      <stop offset="1.0" stop-color="#000000"/>
    </radialGradient>
    <radialGradient cx="0" cy="0" gradientTransform="matrix(-0.4919, 0.1627, 0.1627, 0.4919, -146.55, -253.5)" gradientUnits="userSpaceOnUse" id="gradient30" r="819.2" spreadMethod="pad">
      <stop offset="0.0" stop-color="#fcc91b"/>
      <stop offset="0.34509803921568627" stop-color="#eff931"/>
      <stop offset="0.6666666666666666" stop-color="#fefded"/>
      <stop offset="0.8274509803921568" stop-color="#f0efe1"/>
      <stop offset="1.0" stop-color="#888888"/>
    </radialGradient>
    <radialGradient cx="0" cy="0" gradientTransform="matrix(-0.0497, 0.0164, 0.0164, 0.0497, -270.8, -105.35)" gradientUnits="userSpaceOnUse" id="gradient31" r="819.2" spreadMethod="pad">
      <stop offset="0.0" stop-color="#b9b9b9"/>
      <stop offset="1.0" stop-color="#000000"/>
    </radialGradient>
    <radialGradient cx="0" cy="0" gradientTransform="matrix(-0.2072, 0.0685, 0.0685, 0.2072, -259.75, 70.55)" gradientUnits="userSpaceOnUse" id="gradient32" r="819.2" spreadMethod="pad">
      <stop offset="0.0" stop-color="#b9b9b9"/>
      <stop offset="1.0" stop-color="#000000"/>
    </radialGradient>
  </defs>
</svg>
